<svg xmlns="http://www.w3.org/2000/svg" xmlns:xlink="http://www.w3.org/1999/xlink" viewBox="0 0 256 256">
  <defs>
    <path id="a" d="M0 0h45.976v70.04H0z"/>
    <path id="c" d="M0 0h33.905v105.821H0z"/>
    <path id="e" d="M0 0h71.998v40.246H0z"/>
    <path id="g" d="M.366 17.435c-1.78 10.708 3.105 20.313 10.91 21.454 7.807 1.14 15.578-6.616 17.358-17.324 1.78-10.708-3.105-20.313-10.91-21.454A10.607 10.607 0 0 0 16.19 0C8.924 0 2.03 7.429.366 17.435"/>
    <path id="i" d="M.366 17.435c-1.78 10.708 3.105 20.313 10.91 21.454 7.807 1.14 15.578-6.616 17.358-17.324 1.78-10.708-3.105-20.313-10.91-21.454A10.607 10.607 0 0 0 16.19 0C8.924 0 2.03 7.429.366 17.435Z"/>
    <path id="k" d="M.503 16.972C-1.58 27.65 2.999 37.437 10.729 38.833c7.73 1.396 15.686-6.128 17.768-16.805a27.58 27.58 0 0 0 .316-2.005c.554-4.647-.144-9.029-1.794-12.502C25.164 3.616 22.105.859 18.271.167A10.467 10.467 0 0 0 16.407 0C9.3 0 2.418 7.153.503 16.972"/>
    <path id="m" d="M.503 16.972C-1.58 27.65 2.999 37.437 10.729 38.833c7.73 1.396 15.686-6.128 17.768-16.805a27.58 27.58 0 0 0 .316-2.005c.554-4.647-.144-9.029-1.794-12.502C25.164 3.616 22.105.859 18.271.167A10.467 10.467 0 0 0 16.407 0C9.3 0 2.418 7.153.503 16.972Z"/>
  </defs>
  <g fill="none" fill-rule="evenodd">
    <path fill="#D8D8D8" d="M46.272 192.646a5.546 5.546 0 0 1-5.047-3.236c-3.751-8.2-4.477-15.88-2.218-23.48 2.19-7.368 5.644-12.093 9.586-16.394 2.419-2.637 5.998-4.336 8.3-2.322 2.304 2.014 1.439 6.712-.967 9.865-7.53 9.872-10.026 15.906-4.614 27.735a5.529 5.529 0 0 1-2.741 7.331c-.746.34-1.529.5-2.3.5Z"/>
    <path fill="#393939" d="M137.383 121.671a.302.302 0 0 1-.16-.556c2.09-1.295 4.168-2.908 6.175-4.792a.302.302 0 0 1 .442.407c-1.916 2.39-3.993 4-6.347 4.921a.319.319 0 0 1-.11.02Z"/>
    <path fill="#323233" d="M194.921 67.862a1.678 1.678 0 0 0-.064-.114l-2.138 3.533a19.16 19.16 0 0 1 3.421 6.734c-.022.154-.051.311-.076.466-.849 4.686-4.315 9.319-6.455 13.502-4.893 9.568-10.923 18.035-15.482 22.977 6.46-5.273 16.681-12.916 20.593-21.862 1.03-2.353 1.73-4.82 2.01-7.319h.004c.627-5.296.583-13.639-1.813-17.917Z"/>
    <path fill="#323233" d="m185.517 62.543-.006-.007c-2.095-.228-10.592 1.035-13.29 2.04l-.025.008.001.005c-11.516 3.394-21.49 17.137-26.274 28.077-7.012 16.04 3.633 29.199 16.601 29.256 3.385.013 7.513-.93 10.89-2.712-1.383.434-2.892.611-4.555.496-12.124-.843-19.97-14.444-12.36-30.024 3.917-8.021 9.319-17.402 16.7-22.824a26.601 26.601 0 0 1 4.19-2.513 22.702 22.702 0 0 1 1.154-.509c2.337.143 4.607.71 6.702 1.644.636-.903 1.14-2.09.272-2.937Z"/>
    <path fill="#323233" d="M193.63 71.23a19.838 19.838 0 0 1 2.504 4.433c-.222-2.394-.654-4.622-1.35-6.339l-1.154 1.906Zm2.684 9.347c-.878 2.78-2.45 5.47-3.98 8.088-.745 1.276-1.45 2.48-2.053 3.661-3.47 6.784-7.355 12.738-10.77 17.28 5.588-4.667 11.73-10.432 14.517-16.809 1.032-2.355 1.688-4.744 1.952-7.1a.786.786 0 0 1 .014-.085c.183-1.561.295-3.282.32-5.035Zm-22.187 35.135a.752.752 0 0 1-.555-1.262c4.013-4.35 10.157-12.626 15.366-22.809.623-1.217 1.337-2.44 2.094-3.735 1.823-3.12 3.709-6.347 4.29-9.559l.028-.17.02-.115a18.338 18.338 0 0 0-3.244-6.316.75.75 0 0 1-.053-.855l2.138-3.532a.776.776 0 0 1 .65-.364c.264 0 .51.141.645.369.028.047.055.095.08.144 2.65 4.75 2.44 13.773 1.896 18.359a.727.727 0 0 1-.013.077c-.286 2.48-.979 4.989-2.059 7.455-3.618 8.274-12.449 15.397-18.897 20.598-.664.535-1.303 1.05-1.909 1.545a.755.755 0 0 1-.477.17Z"/>
    <path fill="#323233" d="M181.634 63.507c1.129.245 2.236.589 3.314 1.029.288-.537.35-.962.182-1.272-.744-.025-2.019.07-3.496.243Zm-9.101 1.756a.723.723 0 0 1-.123.047c-10.866 3.204-20.786 16.2-25.796 27.658-3.168 7.247-2.876 14.359.824 20.025 3.325 5.093 8.966 8.15 15.09 8.177 1.824.007 3.784-.263 5.69-.764-5.417-.559-10.078-3.59-12.852-8.383-3.66-6.324-3.494-14.586.455-22.67 3.486-7.139 9.035-17.3 16.932-23.1a28.562 28.562 0 0 1 2.718-1.758c-1.201.25-2.244.515-2.938.768Zm-9.934 57.411h-.077c-6.633-.029-12.744-3.34-16.347-8.859-3.928-6.016-4.272-13.834-.943-21.449 5.138-11.751 15.372-25.096 26.673-28.475l.003-.002.052-.02c2.762-1.014 11.375-2.327 13.633-2.08.18.019.347.103.47.234.566.564 1.266 1.804-.201 3.89a.755.755 0 0 1-.924.255 18.54 18.54 0 0 0-6.27-1.57 24.337 24.337 0 0 0-1.362.624 26.001 26.001 0 0 0-3.663 2.244c-7.626 5.602-13.05 15.55-16.467 22.546-3.726 7.626-3.91 15.375-.505 21.257 2.62 4.526 7.081 7.327 12.24 7.686 1.522.106 2.961-.05 4.277-.463a.752.752 0 0 1 .579 1.383c-3.325 1.755-7.494 2.8-11.168 2.8Z"/>
    <path fill="#CACACA" d="M196.14 78.015a19.152 19.152 0 0 0-3.421-6.734 19.672 19.672 0 0 0-7.474-5.8 19.367 19.367 0 0 0-6.702-1.645c2.297-.928 4.63-1.387 6.975-1.293.147.006.293.014.44.024 4.321.3 7.268 2.182 8.899 5.18.022.038.044.075.064.114 1.397 2.644 1.79 6.134 1.219 10.154"/>
    <path fill="#323233" d="M181.97 63.583a20.475 20.475 0 0 1 11.342 7.233 19.916 19.916 0 0 1 2.324 3.72c-.012-2.463-.477-4.612-1.382-6.323a1.227 1.227 0 0 0-.046-.081c-1.594-2.93-4.383-4.541-8.303-4.814a14.854 14.854 0 0 0-3.935.265Zm14.17 15.185a.754.754 0 0 1-.726-.551 18.343 18.343 0 0 0-3.287-6.47 18.965 18.965 0 0 0-7.188-5.579 18.545 18.545 0 0 0-6.442-1.58.752.752 0 0 1-.237-1.448c2.448-.99 4.9-1.443 7.288-1.349.154.006.307.015.462.025 4.405.306 7.693 2.233 9.51 5.572.017.029.048.082.076.138 1.438 2.72 1.887 6.388 1.29 10.595a.753.753 0 0 1-.747.647Z"/>
    <path fill="#CACACA" d="M163.054 58.002a1.925 1.925 0 0 0-.08-.123l-2.125 4.134a21.571 21.571 0 0 1 4.37 7.296c-.013.175-.033.354-.049.53-.586 5.328-4.115 10.802-6.19 15.667-4.746 11.126-10.854 21.106-15.587 27.012 6.842-6.426 17.72-15.807 21.412-26.16.974-2.723 1.566-5.547 1.684-8.375l.002-.002h.003c.29-5.996-.413-15.362-3.44-19.98Z"/>
    <path fill="#CACACA" d="m152.077 52.763-.007-.008c-2.372-.093-11.814 1.99-14.765 3.328l-.028.012.001.005c-12.666 4.711-22.79 20.924-27.306 33.583-6.617 18.561 6.369 32.507 20.937 31.559 3.803-.25 8.364-1.63 12.018-3.896-1.52.596-3.2.913-5.078.913-13.681 0-23.56-14.663-16.234-32.753 3.77-9.314 9.102-20.27 16.967-26.936a29.98 29.98 0 0 1 4.054-2.888 26.224 26.224 0 0 1 1.71-.922 21.774 21.774 0 0 1 7.655 1.323c.643-1.064 1.117-2.437.076-3.32Z"/>
    <path fill="#323233" d="M161.755 61.9a22.222 22.222 0 0 1 3.505 5.486c-.514-3.393-1.337-6.113-2.247-7.935l-1.258 2.448Zm3.935 9.49c-.686 3.441-2.365 6.837-3.995 10.134-.738 1.492-1.435 2.902-2.022 4.277-3.508 8.225-7.596 15.475-11.183 20.92 6.074-5.785 12.879-12.968 15.605-20.615.978-2.734 1.53-5.478 1.64-8.155a.756.756 0 0 1 .01-.09c.108-2.297.08-4.463-.055-6.47Zm-22.297 41.88a.753.753 0 0 1-.589-1.223c4.17-5.203 10.427-14.985 15.482-26.836.603-1.414 1.31-2.841 2.056-4.353 1.807-3.654 3.675-7.432 4.08-11.102l.017-.193c.006-.051.01-.103.015-.154a20.755 20.755 0 0 0-4.163-6.89.751.751 0 0 1-.112-.85l2.124-4.134a.754.754 0 0 1 1.291-.085c.035.05.068.1.1.152 3.337 5.108 3.804 15.233 3.554 20.415a.827.827 0 0 1-.009.082c-.126 2.8-.705 5.664-1.723 8.512-3.406 9.552-12.756 18.231-19.583 24.569-.703.653-1.381 1.282-2.023 1.885a.752.752 0 0 1-.517.205Z"/>
    <g transform="translate(107.466 52)">
      <mask id="b" fill="#fff">
        <use xlink:href="#a"/>
      </mask>
      <path fill="#323233" d="M39.74 2.166c1.504.18 2.989.512 4.44.995.341-.724.376-1.278.103-1.654-.928.026-2.62.282-4.544.659Zm-9.542 2.58a.731.731 0 0 1-.122.06C18.095 9.26 7.953 24.655 3.216 37.935c-3 8.417-2.11 16.412 2.51 22.513 4.152 5.485 10.757 8.492 17.668 8.042 2.22-.146 4.591-.668 6.851-1.48-6.308-.044-11.965-3.093-15.539-8.381-4.587-6.789-5.045-16.049-1.256-25.406 3.352-8.28 8.78-20.11 17.178-27.228a31.597 31.597 0 0 1 3.42-2.511c-1.586.43-2.976.872-3.85 1.261ZM22.036 70.04c-6.883 0-13.347-3.18-17.514-8.684-4.863-6.423-5.856-15.144-2.725-23.925C6.639 23.85 17.068 8.089 29.468 3.425c.003 0 .005-.002.006-.003a1.41 1.41 0 0 1 .053-.024C32.477 2.06 42.077-.098 44.634.003a.76.76 0 0 1 .487.204c.657.568 1.51 1.866.061 4.264a.754.754 0 0 1-.904.318 20.792 20.792 0 0 0-7.22-1.278 25.917 25.917 0 0 0-1.505.82 29.338 29.338 0 0 0-3.95 2.814c-8.142 6.9-13.461 18.51-16.754 26.642-3.598 8.886-3.194 17.634 1.109 24.001 3.314 4.905 8.573 7.718 14.426 7.718 1.73 0 3.346-.29 4.802-.86a.751.751 0 0 1 .674 1.34c-3.61 2.238-8.233 3.735-12.366 4.007a22.34 22.34 0 0 1-1.458.047Z" mask="url(#b)"/>
    </g>
    <path fill="#323233" d="M165.219 69.31a21.57 21.57 0 0 0-4.37-7.297 22.154 22.154 0 0 0-8.848-5.93 21.81 21.81 0 0 0-7.656-1.323c2.508-1.222 5.091-1.92 7.732-1.997.166-.005.33-.008.496-.008 4.877 0 8.334 1.884 10.4 5.123.029.04.056.08.082.123 1.776 2.86 2.489 6.748 2.164 11.308Z"/>
    <path fill="#323233" d="M147.733 54.235a22.57 22.57 0 0 1 4.527 1.14 22.96 22.96 0 0 1 9.148 6.133 22.308 22.308 0 0 1 3.094 4.348c-.166-2.962-.873-5.5-2.089-7.458a1.157 1.157 0 0 0-.06-.092c-2.036-3.192-5.322-4.798-9.78-4.798a16.977 16.977 0 0 0-4.84.727Zm17.486 15.826a.754.754 0 0 1-.71-.5 20.75 20.75 0 0 0-4.218-7.043 21.453 21.453 0 0 0-8.547-5.728c-2.384-.87-4.87-1.3-7.392-1.278a.753.753 0 0 1-.337-1.429c2.66-1.296 5.364-1.994 8.04-2.072.173-.005.344-.008.518-.008 4.937 0 8.753 1.892 11.037 5.471.022.032.06.088.094.146 1.819 2.927 2.605 6.992 2.267 11.743a.753.753 0 0 1-.752.698Z"/>
    <path fill="#FFF" d="m212.843 89.918-.285.656-1.388 3.207-1.857-1.51c-11.545 24.932-22.066 62.841-26.783 100.587a371.91 371.91 0 0 0-.804 6.966h2.92l-.181 3.02H45.62c-.027 0-.055 0-.08-.004a.987.987 0 0 1-.925-1.102c.262-2.603.552-5.209.87-7.82 4.813-39.427 16.014-79.18 28.146-104.247a1.76 1.76 0 0 1 1.441-.986c3.99-.325 20.62-1.419 63.258-1.419 43.402 0 66.158 1.135 71.44 1.436a4.79 4.79 0 0 1 2.23.698l.844.519Z"/>
    <path fill="#CACACA" d="M149.91 93.629h-.005c-2.626-.013-5.339-.022-8.14-.026a.904.904 0 1 1 .002-1.806h.002c2.803.005 5.517.013 8.145.026a.904.904 0 0 1-.004 1.806Zm-24.728.004a.904.904 0 0 1-.005-1.806c2.599-.013 5.312-.023 8.145-.028h.001a.904.904 0 1 1 .002 1.805c-2.83.006-5.541.015-8.139.03h-.004Zm41.314.138h-.011c-2.599-.033-5.31-.062-8.139-.086a.904.904 0 1 1 .016-1.806c2.83.025 5.545.053 8.146.086a.904.904 0 0 1-.012 1.806Zm-57.898.023a.904.904 0 0 1-.013-1.805c2.62-.039 5.36-.072 8.145-.098a.904.904 0 1 1 .017 1.806c-2.781.026-5.519.06-8.135.097h-.014Zm74.482.262h-.02c-2.635-.059-5.372-.113-8.137-.16a.904.904 0 0 1-.889-.918.905.905 0 0 1 .92-.888c2.768.048 5.508.102 8.146.16a.904.904 0 0 1-.02 1.806Zm-91.061.088a.904.904 0 0 1-.026-1.806c2.571-.074 5.312-.141 8.146-.2a.904.904 0 1 1 .038 1.806c-2.83.058-5.565.126-8.132.2h-.026Zm107.64.386h-.032c-2.58-.093-5.315-.181-8.132-.261a.904.904 0 1 1 .052-1.805c2.82.08 5.56.168 8.145.261a.904.904 0 0 1-.032 1.805Zm-124.206.308a.904.904 0 0 1-.054-1.804 394.89 394.89 0 0 1 8.147-.406.904.904 0 1 1 .074 1.804 395.677 395.677 0 0 0-8.167.406Zm122.299 12.399a.903.903 0 0 1-.85-1.212c.95-2.606 1.926-5.17 2.902-7.623a.905.905 0 0 1 1.682.666c-.97 2.437-1.94 4.985-2.884 7.574a.905.905 0 0 1-.85.595Zm-5.272 15.697a.903.903 0 0 1-.865-1.17 358.168 358.168 0 0 1 2.498-7.758.905.905 0 0 1 1.716.572 357.295 357.295 0 0 0-2.485 7.719.905.905 0 0 1-.864.637Zm-4.56 15.919a.905.905 0 0 1-.876-1.134 414.814 414.814 0 0 1 2.162-7.855.906.906 0 0 1 1.74.495 414.111 414.111 0 0 0-2.152 7.821.905.905 0 0 1-.874.673Zm-3.928 16.078a.903.903 0 0 1-.883-1.1 449.207 449.207 0 0 1 1.855-7.93.905.905 0 0 1 1.759.428 442.887 442.887 0 0 0-1.85 7.896.905.905 0 0 1-.881.706Zm-3.328 16.22a.903.903 0 0 1-.89-1.068 446.463 446.463 0 0 1 1.562-7.995.904.904 0 0 1 1.772.361 445.01 445.01 0 0 0-1.555 7.963.904.904 0 0 1-.889.738Zm-2.716 16.34a.903.903 0 0 1-.896-1.033c.388-2.658.812-5.368 1.257-8.053a.905.905 0 0 1 1.785.295 425.474 425.474 0 0 0-1.252 8.018.904.904 0 0 1-.894.772Zm-1.611 12.335a.903.903 0 0 1-.9-1.006c.15-1.313.31-2.647.478-3.991a.904.904 0 0 1 1.796.222c-.167 1.34-.327 2.668-.476 3.975a.904.904 0 0 1-.898.8Z"/>
    <path fill="#323233" d="M190.002 203.597H45.622c-.506 0-.985-.209-1.316-.573-.33-.364-.49-.86-.44-1.36 4.01-40.012 15.427-84.101 29.086-112.32a2.52 2.52 0 0 1 2.058-1.407c4.104-.334 20.798-1.422 63.321-1.422 42.966 0 65.576 1.1 71.483 1.437a5.56 5.56 0 0 1 2.578.807l.846.518c.355.218.466.68.248 1.035a.755.755 0 0 1-1.036.248l-.846-.518a4.049 4.049 0 0 0-1.877-.587c-5.896-.337-28.47-1.435-71.396-1.435-42.466 0-59.109 1.084-63.198 1.417-.354.029-.67.244-.823.56-13.588 28.075-24.95 71.965-28.943 111.817a.25.25 0 0 0 .057.2.253.253 0 0 0 .197.078h144.38a.753.753 0 1 1 0 1.505Z"/>
    <path fill="#FFF" d="M53.998 176.444c-5.469.848-11.227 2.326-16.832 4.223-2.547.86-5.062 1.806-7.504 2.82-4.808 1.991-9.33 4.235-13.245 6.571 1.066.178 1.963.352 4.352.488 2.091.118 5.322.209 10.816.241 3.76.026 8.578.023 14.812-.015 2.143-.012 2.865 4.97 2.24 8.536-.327 1.866-1.023 3.345-2.078 3.516-.076.015-.15.02-.228.02-10.682-.057-16.009-.087-22.292-.087-9.465 0-20.74-.29-22.92-8.503a10.85 10.85 0 0 1-.34-2.028c-.726-9.368 14.296-15.374 23.142-18.998h.005c2.01-.822 3.969-1.612 5.905-2.362 7.307-2.837 14.263-5.103 22.312-6.35a6.132 6.132 0 0 1 1.645-.03c2.628.31 3.51 11.448.21 11.958Z"/>
    <path fill="#323233" d="M25.075 185.506c6.436-2.998 13.832-5.702 21.261-7.523 2.049-.986 4.062-1.826 6.053-2.316a6.036 6.036 0 0 0 4.418-7.311 6.024 6.024 0 0 0-3.019-3.871 6.135 6.135 0 0 0-1.646.03c-10.18 1.577-18.61 4.786-28.216 8.712 5.12-1.237 7.101 9.188 1.149 12.279Z"/>
    <path fill="#323233" d="M26.708 172.91c.947.56 1.727 1.546 2.23 2.886.649 1.726.728 3.775.218 5.623a8.268 8.268 0 0 1-.708 1.762c5.78-2.454 11.804-4.477 17.632-5.91 2.444-1.172 4.337-1.893 6.129-2.335a5.29 5.29 0 0 0 3.866-6.4 5.296 5.296 0 0 0-2.517-3.318 5.392 5.392 0 0 0-1.302.041c-9.274 1.436-17.18 4.282-25.548 7.651Zm-1.633 13.348a.754.754 0 0 1-.348-1.42c3.1-1.61 3.867-5.673 2.8-8.514-.331-.88-1.326-2.873-3.424-2.365a.752.752 0 0 1-.463-1.428c9.404-3.844 18.032-7.156 28.386-8.76a6.88 6.88 0 0 1 1.85-.033c.093.01.184.039.267.083a6.8 6.8 0 0 1 3.395 4.353c.9 3.637-1.328 7.325-4.968 8.223-1.705.42-3.526 1.118-5.907 2.263a.74.74 0 0 1-.147.053c-7.011 1.72-14.316 4.303-21.123 7.474a.743.743 0 0 1-.318.071Z"/>
    <path fill="#323233" d="m24.161 173.942-.359.147c-8.58 3.515-22.942 9.399-22.271 18.079.7 9.084 11.046 9.836 22.508 9.836 6.048 0 11.082.027 21.11.081l1.186.007c.29.008.569-.23.838-.69 1.214-2.073 1.247-7.144.059-9.196-.263-.454-.542-.687-.83-.681-24.96.146-27.336-.257-29.852-.682l-.259-.043a.753.753 0 0 1-.262-1.388c10.953-6.538 25.457-11.792 37.853-13.712.913-.141 1.543-2.162 1.496-4.805-.058-3.291-1.05-5.588-1.679-5.663a5.38 5.38 0 0 0-1.442.027c-10.192 1.578-18.73 4.858-28.046 8.664a.497.497 0 0 1-.05.019Zm22.184 29.655h-.022l-1.182-.006c-10.026-.055-15.058-.082-21.102-.082-9.217 0-23.146 0-24.011-11.225-.756-9.772 14.241-15.916 23.202-19.587l.404-.165a.745.745 0 0 1 .051-.02c9.387-3.835 18.003-7.138 28.342-8.74a6.917 6.917 0 0 1 1.85-.034c2.285.271 2.968 4.784 3.01 7.132.064 3.677-.972 6.04-2.774 6.318-11.528 1.786-24.908 6.498-35.452 12.439 2.726.295 8.414.506 27.731.393.603 0 1.456.243 2.146 1.434 1.441 2.49 1.409 8.195-.063 10.708-.692 1.182-1.536 1.435-2.13 1.435Z"/>
    <path fill="#CACACA" d="M238.386 105.555c.326.2.51.564.477.944-1.525 17.227-2.952 42.67-3.841 69.543a1783.4 1783.4 0 0 0-.665 25.816c-.01.549-.459.987-1.008.987h-50.817a1.009 1.009 0 0 1-1.005-1.107c4.2-41.87 16.052-85.229 28.965-111.964a.99.99 0 0 1 1.434-.417l26.46 16.198Z"/>
    <path fill="#323233" d="M211.385 89.953a.22.22 0 0 0-.063.01.247.247 0 0 0-.15.137c-.059.12-.115.237-.17.354l-.115.24c-1.802 3.77-3.607 7.92-5.365 12.33-11.163 28.047-19.853 64.977-23.245 98.789a.253.253 0 0 0 .065.195.253.253 0 0 0 .19.084h50.817c.14 0 .251-.109.254-.247a1779.782 1779.782 0 0 1 .666-25.828c.878-26.558 2.28-51.92 3.843-69.584a.257.257 0 0 0-.122-.24l-26.458-16.195a.283.283 0 0 0-.147-.045Zm21.964 113.644h-50.817a1.764 1.764 0 0 1-1.756-1.932c3.406-33.945 12.132-71.027 23.345-99.196 1.77-4.441 3.588-8.622 5.405-12.425l.114-.237.174-.362c.216-.449.61-.787 1.082-.926a1.77 1.77 0 0 1 1.424.197l26.46 16.197a1.755 1.755 0 0 1 .833 1.652c-1.56 17.639-2.96 42.971-3.837 69.503a1776.75 1776.75 0 0 0-.665 25.806 1.768 1.768 0 0 1-1.762 1.723Z"/>
    <g transform="translate(187.494 98.179)">
      <mask id="d" fill="#fff">
        <use xlink:href="#c"/>
      </mask>
      <path fill="#323233" d="M33 6.055a.903.903 0 0 1-.472-.133l-6.942-4.249a.902.902 0 0 1-.298-1.242.906.906 0 0 1 1.244-.298l6.941 4.25A.902.902 0 0 1 33 6.054Zm-13.216 9.577a.903.903 0 0 1-.857-1.193c.897-2.64 1.83-5.223 2.776-7.679a.906.906 0 0 1 1.69.648 202.13 202.13 0 0 0-2.752 7.61.906.906 0 0 1-.857.614ZM15.07 31.187a.906.906 0 0 1-.873-1.14 284.7 284.7 0 0 1 2.243-7.838.905.905 0 0 1 1.732.521 283.508 283.508 0 0 0-2.229 7.79.904.904 0 0 1-.873.667Zm-3.88 15.785a.903.903 0 0 1-.884-1.1c.606-2.711 1.23-5.38 1.857-7.932a.905.905 0 0 1 1.757.43 392.288 392.288 0 0 0-1.847 7.895.906.906 0 0 1-.883.707ZM7.914 62.894a.907.907 0 0 1-.89-1.071c.519-2.73 1.049-5.417 1.576-7.987a.905.905 0 0 1 1.773.362 552.115 552.115 0 0 0-1.57 7.961.905.905 0 0 1-.889.735ZM5.072 78.895a.903.903 0 0 1-.893-1.051c.458-2.753.922-5.45 1.377-8.016a.905.905 0 0 1 1.782.315c-.454 2.56-.917 5.251-1.375 7.997a.904.904 0 0 1-.891.755ZM2.523 94.944a.903.903 0 0 1-.896-1.038c.424-2.787.843-5.49 1.246-8.036a.905.905 0 0 1 1.788.283 1278.08 1278.08 0 0 0-1.245 8.024.904.904 0 0 1-.893.767ZM.906 105.821a.904.904 0 0 1-.897-1.033l.417-2.84a.904.904 0 0 1 1.79.262l-.416 2.838a.905.905 0 0 1-.894.773Z" mask="url(#d)"/>
    </g>
    <path fill="#323233" d="M16.416 190.81a.754.754 0 0 1-.104-.006c-1.215-.167-2.884-.556-4.355-1.015a.752.752 0 1 1 .45-1.436c1.397.435 2.972.803 4.111.96a.753.753 0 0 1-.102 1.498Zm218.606-14.516c-.111 3.41-.217 6.843-.31 10.286l-8.888-10.457 9.198.17Z"/>
    <path fill="#323233" d="m227.478 176.906 6.535 7.688c.065-2.303.14-4.763.23-7.562l-6.765-.126Zm7.234 10.427a.754.754 0 0 1-.575-.266l-8.888-10.458a.751.751 0 0 1 .589-1.239l9.198.171a.754.754 0 0 1 .74.777 1859.44 1859.44 0 0 0-.31 10.282.752.752 0 0 1-.754.733Z"/>
    <path fill="#CACACA" d="M246.052 173.44c-5.302-4.453-11.993-7.82-17.524-9.085-3.254-.745-6.502 1.285-7.248 4.534a6.039 6.039 0 0 0 4.544 7.234c.088.02.179.04.267.065.002 0 .007 0 .01.003.486.115.97.251 1.451.407h.003l.003.002c7.658 2.435 14.772 9.054 15.553 12.125-3.445 2.566-14.142 2.16-22.063 2.221-3.896.028-8.568.063-13.399.073-3.095.007-6.255.005-9.317-.01a607.448 607.448 0 0 1-9.417-.113 6.046 6.046 0 0 0-6.174 5.907 6.04 6.04 0 0 0 5.92 6.162c.96.02 1.953.038 2.973.053 9.304.136 20.81.065 29.505 0 9.029-.068 18.335.732 25.535-2.402 2.79-1.215 7.825-4.391 8.497-10.324.686-6.026-3.414-12.067-9.119-16.853Z"/>
    <path fill="#323233" d="M208.91 191.02c-2.666.625-5.597 1.795-7.2 2.841a255.22 255.22 0 0 1-3.377-2.852c3.061.015 7.482.018 10.576.01Z"/>
    <path fill="#323233" d="M200.386 191.77c.556.47 1.016.858 1.388 1.167a20.46 20.46 0 0 1 2.38-1.162c-1.301 0-2.59-.003-3.768-.006Zm1.324 2.844a.754.754 0 0 1-.479-.171 241.33 241.33 0 0 1-3.389-2.863.752.752 0 0 1 .495-1.323c2.866.014 7.213.018 10.57.01h.002a.754.754 0 0 1 .173 1.485c-2.54.596-5.402 1.723-6.96 2.74a.753.753 0 0 1-.412.122Z"/>
    <g transform="translate(184.002 163.603)">
      <mask id="f" fill="#fff">
        <use xlink:href="#e"/>
      </mask>
      <path fill="#323233" d="M21.23 40.246c-4.939 0-9.926-.033-14.571-.13-3.75-.079-6.736-3.188-6.657-6.93.078-3.738 3.195-6.718 6.942-6.644 9.659.203 20.962.118 30.044.05h.053a417.63 417.63 0 0 1 3.339-.008c6.563.003 14.653.005 17.825-1.771-1.386-3.169-8.752-9.775-16.552-11.56a.753.753 0 1 1 .337-1.467c8.353 1.912 16.907 9.439 17.851 13.152a.752.752 0 0 1-.28.788C56.38 28.095 47.88 28.091 40.38 28.09c-1.143 0-2.26-.001-3.327.007H37c-9.091.068-20.407.153-30.085-.05-2.917-.057-5.344 2.262-5.405 5.171-.061 2.913 2.263 5.333 5.182 5.394 9.851.207 21.268.12 30.442.052 1.642-.013 3.316.004 4.934.02 7.487.074 14.558.143 20.304-2.359 1.715-.747 7.363-3.654 8.051-9.72.564-4.974-2.372-10.546-8.27-15.69C57.02 6.436 50.2 2.824 44.358 1.486A.753.753 0 1 1 44.695.02c6.07 1.39 13.14 5.13 18.45 9.762 6.28 5.479 9.397 11.513 8.776 16.992-.78 6.867-7.045 10.102-8.947 10.93-6.041 2.631-13.606 2.557-20.921 2.485a283.19 283.19 0 0 0-4.909-.02c-4.863.036-10.357.078-15.915.078Z" mask="url(#f)"/>
    </g>
    <path fill="#CACACA" d="M206.704 185.167c-.975 2.791-2.916 5.81-4.994 8.694-1.885 5.191-6.966 9.236-12.772 9.236h-3.684c-3.483 0-6.645-1.047-9.08-2.842-4.085-3.013-6.116-8.132-4.153-13.936a28.068 28.068 0 0 1 1.527-3.667c.832-1.668 1.82-3.224 3-4.826 3.802-5.171 3.751-11.072.987-18.488-.5-1.338-.666-2.603-.578-3.748.3-3.825 3.448-6.267 6.485-5.372-.272-1.205-.305-2.42-.058-3.498.244-1.059.756-1.99 1.577-2.656 2.377-1.927 5.862-.946 7.88 1.705.378.496.741.999 1.097 1.504 2.28-2.806 6.385-1.871 8.671 1.537 6.456 9.632 7.795 25.776 4.095 36.357Z"/>
    <path fill="#323233" d="M185.254 203.755c-5.12 0-9.766-2.208-12.427-5.907-2.427-3.372-2.967-7.586-1.521-11.864 1.035-3.066 2.465-5.749 4.634-8.698 3.45-4.69 3.723-10.174.887-17.779-1.191-3.196-.726-6.361 1.245-8.468 1.222-1.306 2.825-1.955 4.448-1.841-.277-2.44.427-4.563 1.966-5.811 1.138-.922 2.533-1.315 4.035-1.135 1.86.223 3.654 1.305 4.92 2.968.189.247.383.508.585.788a5.006 5.006 0 0 1 3.564-1.228c2.123.097 4.233 1.412 5.645 3.518 6.311 9.414 8.148 25.677 4.181 37.023-1.08 3.091-2.85 6.208-5.12 9.012a.755.755 0 0 1-1.173-.945c2.13-2.634 3.86-5.675 4.869-8.563 3.828-10.949 2.066-26.626-4.01-35.69-1.147-1.71-2.815-2.777-4.462-2.852-1.188-.054-2.225.42-2.998 1.371a.755.755 0 0 1-1.203-.042 47.294 47.294 0 0 0-1.079-1.481c-1.006-1.321-2.464-2.213-3.9-2.384-1.087-.13-2.09.149-2.904.808-1.311 1.063-1.782 3.084-1.26 5.406a.752.752 0 0 1-.95.887c-1.428-.422-2.943.033-4.052 1.219-1.573 1.68-1.922 4.266-.934 6.916 3.032 8.131 2.697 14.051-1.084 19.195-2.102 2.856-3.424 5.335-4.422 8.288-1.286 3.806-.818 7.537 1.318 10.505 2.379 3.306 6.566 5.28 11.202 5.28.187 0 4.542-.004 6.79-.01h.003a.753.753 0 0 1 .002 1.504c-2.25.007-6.607.01-6.795.01Z"/>
    <path fill="#323233" d="M200.303 172.677a.753.753 0 0 1-.743-.885c1.803-10.06-2.399-18.702-6.24-24.18a.752.752 0 0 1 .185-1.048.755.755 0 0 1 1.05.185c5.744 8.191 7.988 16.943 6.489 25.308a.753.753 0 0 1-.741.62Zm-9.782 1.143a.753.753 0 0 1-.742-.891l.02-.121c1.025-6.093-.1-12.718-3.169-18.638-.853-1.647-2.103-2.838-3.428-3.266a.76.76 0 0 1-.187-.09l.367-.548.027-.088.24-.714.043.016c1.69.556 3.248 2.012 4.278 4 3.218 6.207 4.395 13.164 3.314 19.591l-.022.135a.754.754 0 0 1-.74.614Z"/>
    <path fill="#D8D8D8" d="M52.564 192.9a5.545 5.545 0 0 1-5.25-3.757c-1.988-5.85-2.232-11.755-.724-17.553 1.24-4.765 3.23-9.724 7.144-14.25 2.346-2.713 5.615-3.866 7.919-1.955 2.05 1.7 2.636 5.243.587 8.556-5.357 8.659-6.866 14.47-4.426 21.646a5.53 5.53 0 0 1-3.469 7.017c-.59.2-1.19.295-1.781.295Z"/>
    <path fill="#393939" d="M47.08 149.671c-1.671 0-3.577.81-4.978 2.293-5.203 5.509-8.594 11.014-10.366 16.831-2.237 7.338-1.516 14.757 2.202 22.684.85 1.812 2.724 2.983 4.774 2.983.753 0 1.485-.156 2.176-.463a5.118 5.118 0 0 0 2.748-2.894 4.934 4.934 0 0 0-.158-3.853c-5.447-11.612-2.872-17.428 5.392-26.858 2.734-3.12 3.111-7.705.808-9.813-.673-.616-1.593-.91-2.599-.91Zm-8.368 45.393c-2.283 0-4.371-1.307-5.32-3.33-3.784-8.067-4.515-15.628-2.233-23.114 1.8-5.908 5.236-11.491 10.505-17.07 2.504-2.651 6.361-3.299 8.422-1.413 2.534 2.32 2.179 7.298-.761 10.653-8.081 9.221-10.604 14.901-5.3 26.206a5.528 5.528 0 0 1 .176 4.319 5.716 5.716 0 0 1-3.067 3.234 5.934 5.934 0 0 1-2.422.515Z"/>
    <path fill="#FFF" d="M62.24 163.688c-4.904 7.928-6.58 13.466-4.959 19.849.484 1.265.87 2.595 1.144 3.966.761 3.802.068 7.28-1.582 9.962-2.021 3.292-5.479 5.38-9.435 5.38-.288 0-.57-.008-.85-.021-2.442-.113-4.601-.714-6.499-1.708-3.107-1.63-5.506-4.316-7.252-7.643l-.003-.002a26.902 26.902 0 0 1-1.22-2.684c-.882-2.259-1.52-4.726-1.922-7.3-.06-.376-.114-.753-.164-1.133-.54-4.154-.398-7.955.333-11.488 1.643-7.968 6.274-14.582 12.809-20.87 2.346-2.259 5.453-2.968 7.414-1.818 1.32-1.049 2.807-1.763 4.185-1.841a415.124 415.124 0 0 0-3.286 14.519 30.436 30.436 0 0 1 2.78-3.768 10.492 10.492 0 0 1 1.326-1.29 8.108 8.108 0 0 1 1.89-1.154c1.646-.7 3.344-.639 4.705.49 2.048 1.698 2.635 5.242.587 8.554Z"/>
    <path fill="#FFF" d="M60.268 160.897c-1.805 2.94-4.79 7.187-6.028 13.292-1.263 6.23-.106 11.587-.811 17.084-.586 4.563-2.196 11.513-11.775 11.54-5.175.014-7.931-5.797-8.847-9.34l-.002-.002c-1.696-3.227-2.78-7.06-3.307-11.116-1.756-13.523 3.71-23.28 13.142-32.358 2.346-2.26 5.454-2.968 7.414-1.819 1.32-1.048 2.808-1.763 4.186-1.841a415.297 415.297 0 0 0-3.286 14.52 30.441 30.441 0 0 1 2.78-3.768c.405-.47.841-.893 1.292-1.263l-.002.005c.012-.01.022-.022.035-.032.625-.581 1.265-.956 1.89-1.155 3.084-.978 5.695 2.38 3.319 6.253Z"/>
    <path fill="#323233" d="M47.406 203.597h-.02c-.254 0-2.192-.01-4.208-.02-2.113-.01-4.496-.022-4.787-.022h-.032a.764.764 0 0 1-.757-.759c.005-.549.384-.694.77-.732v-.014c.031 0 .061.003.09.007.112-.006.22-.006.32-.006l4.403.021c2.014.01 3.95.02 4.204.02 3.058.012 5.948-1.37 7.926-3.775 2.305-2.8 3.17-6.687 2.372-10.666a24.032 24.032 0 0 0-.74-2.806c-.508-1.535-.813-2.902-.935-4.178-.49-5.133 1.128-10.166 5.586-17.373 1.433-2.315 1.77-5.76-.427-7.581-2.101-1.743-5.033-.254-6.866 1.867a29.95 29.95 0 0 0-2.712 3.676.756.756 0 0 1-1.377-.552 413.632 413.632 0 0 1 3.018-13.423c-.872.259-1.805.768-2.712 1.487a.756.756 0 0 1-.851.06c-1.703-1-4.44-.28-6.509 1.711-10.474 10.081-14.457 19.864-12.915 31.719.54 4.164 1.627 7.82 3.228 10.867a.752.752 0 0 1-.318 1.015.755.755 0 0 1-1.018-.317c-1.683-3.205-2.824-7.03-3.388-11.371-1.609-12.375 2.513-22.55 13.365-32.996 2.379-2.29 5.59-3.146 7.856-2.162 1.073-.783 2.579-1.614 4.225-1.707a.754.754 0 0 1 .775.93c-.88 3.58-1.726 7.247-2.527 10.942.235-.292.474-.58.718-.861 2.812-3.251 6.501-4.091 8.972-2.042 2.181 1.81 3.138 5.664.747 9.53-4.27 6.9-5.825 11.664-5.369 16.439.111 1.163.394 2.422.866 3.85.32.974.586 1.977.787 2.982.886 4.423-.093 8.766-2.686 11.916-2.262 2.748-5.569 4.324-9.074 4.324Zm101.858-30.337a.754.754 0 0 1-.508-1.308c3.918-3.567 9.238-5.78 14.98-6.23a.753.753 0 1 1 .117 1.5c-5.33.419-10.463 2.548-14.081 5.841a.75.75 0 0 1-.508.197Z"/>
    <path fill="#323233" d="M45.772 176.607a.753.753 0 0 1-.75-.83c.159-1.542.44-3.099.838-4.627 1.551-5.961 3.872-10.586 7.303-14.553a.755.755 0 0 1 1.063-.078c.315.271.35.746.078 1.061-3.274 3.787-5.494 8.219-6.984 13.948a29.652 29.652 0 0 0-.8 4.404.753.753 0 0 1-.748.675Zm-8.037-1.933h-.017a.753.753 0 0 1-.737-.77c.062-2.73.5-5.486 1.302-8.189 2.338-7.865 6.07-12.668 9.756-16.687 1.868-2.043 4.17-3.33 6.159-3.442a.752.752 0 1 1 .085 1.502c-1.58.09-3.545 1.222-5.13 2.955-3.565 3.888-7.173 8.527-9.424 16.1a29.753 29.753 0 0 0-1.24 7.796.753.753 0 0 1-.754.735Z"/>
    <path fill="#FAFAFA" d="M109.753 140.46c-6.25-4.647-17.965-6.613-26.89-4.47-.08.019-.16.034-.24.042a27.64 27.64 0 0 1 1.633-4.932c3.173-7.232 9.05-11.757 14.895-10.738 7.015 1.225 11.51 9.995 10.602 20.098Z"/>
    <path fill="#323233" d="M86.41 117.484a.752.752 0 0 1-.56-1.255c4.744-5.282 10.978-7.727 16.675-6.54a.753.753 0 1 1-.308 1.472c-5.165-1.075-10.864 1.195-15.245 6.073a.753.753 0 0 1-.562.25Z"/>
    <path fill="#FFF" d="M109.477 142.64c-1.814 10.99-9.378 18.84-16.895 17.529a9.505 9.505 0 0 1-2.096-.618c-6.255-2.634-9.866-11.73-8.228-21.66 1.815-10.99 9.379-18.84 16.892-17.528.01.002.023.003.034.008 7.497 1.331 12.1 11.291 10.293 22.269Z"/>
    <path fill="#FFF" d="M109.731 140.678a29.25 29.25 0 0 1-.74 4.3 2.613 2.613 0 0 1-.546-.151c-6.746-2.648-17.266-3.51-25.868-.822a2.595 2.595 0 0 1-.674.12 28.506 28.506 0 0 1 .131-4.587 29.68 29.68 0 0 1 .224-1.647c1.814-10.99 9.379-18.84 16.894-17.529 3.727.65 6.743 3.431 8.614 7.41 2.315 3.37 2.877 8.39 1.965 12.906Z"/>
    <path fill="#323233" d="M94.24 161.065a10.41 10.41 0 0 1-1.787-.155c-7.91-1.38-12.817-11.76-10.939-23.14 1.118-6.773 4.467-12.717 8.96-15.899 2.805-1.987 5.85-2.765 8.807-2.25 3.852.672 7.108 3.453 9.168 7.832a.754.754 0 0 1-1.365.64c-1.845-3.922-4.708-6.404-8.062-6.99-2.551-.444-5.205.245-7.675 1.995-4.172 2.955-7.291 8.531-8.345 14.916-1.744 10.57 2.612 20.175 9.71 21.414 2.551.444 5.205-.245 7.676-1.995 4.17-2.955 7.29-8.531 8.344-14.916a.754.754 0 0 1 1.488.244c-1.118 6.773-4.467 12.717-8.96 15.899-2.243 1.589-4.639 2.405-7.02 2.405Z"/>
    <g transform="translate(81 120)">
      <mask id="h" fill="#fff">
        <use xlink:href="#g"/>
      </mask>
      <path fill="#323233" d="M6.988 34.052c.57-3.352 2.748-5.814 4.867-5.497 2.119.316 3.374 3.29 2.805 6.643-.57 3.352-2.749 5.813-4.868 5.497-2.118-.316-3.374-3.29-2.804-6.643" mask="url(#h)"/>
    </g>
    <g transform="translate(81 120)">
      <mask id="j" fill="#fff">
        <use xlink:href="#i"/>
      </mask>
      <path fill="#323233" d="M11.481 28.82c-.5 0-1.016.171-1.516.503-1.284.855-2.307 2.664-2.668 4.722-.56 3.186.565 6.037 2.507 6.356.603.098 1.247-.066 1.861-.475 1.285-.855 2.308-2.664 2.67-4.722.559-3.186-.566-6.037-2.508-6.355a2.16 2.16 0 0 0-.346-.028Zm-1.329 12.195a2.83 2.83 0 0 1-.456-.037c-2.278-.373-3.63-3.526-3.015-7.027.393-2.24 1.486-4.148 2.923-5.105.754-.501 1.56-.7 2.33-.573 2.279.373 3.632 3.525 3.016 7.027-.393 2.24-1.486 4.148-2.922 5.104-.607.403-1.247.61-1.876.61Z" mask="url(#j)"/>
    </g>
    <path fill="#FFF" d="M109.104 143.34c-6.733-2.64-17.235-3.5-25.825-.818-1.438.448-2.65-.388-2.516-1.847.141-1.528 1.246-2.402 2.635-2.88 8.925-3.077 19.29-2.753 26.303.968 1.448.769 2.214 1.978 1.98 3.407-.18 1.083-1.306 1.668-2.577 1.17"/>
    <path fill="#323233" d="M109.996 144.269c-.152 0-.306-.012-.463-.037a3.368 3.368 0 0 1-.704-.193c-5.954-2.335-16.419-3.581-25.324-.802-.3.092-.593.144-.872.153-.776.031-1.477-.235-1.97-.751-.492-.518-.723-1.24-.65-2.033.131-1.414.96-2.526 2.399-3.216.23-.112.48-.216.74-.305a38.527 38.527 0 0 1 4.411-1.228.75.75 0 1 1 .318 1.467 36.973 36.973 0 0 0-4.235 1.18c-.204.07-.397.149-.577.237-.967.463-1.475 1.118-1.556 2.004-.034.361.05.659.242.86.189.199.48.3.821.287.15-.005.311-.035.482-.087 9.301-2.903 19.923-1.671 26.323.837.131.052.262.088.387.108.614.098 1.085-.185 1.171-.703.179-1.09-.448-1.824-1.005-2.246a4.184 4.184 0 0 0-.589-.376.748.748 0 0 1-.306-1.016.753.753 0 0 1 1.02-.306c.298.16.557.327.792.508 1.246.944 1.807 2.253 1.574 3.68-.2 1.187-1.205 1.977-2.43 1.978Z"/>
    <path fill="#FAFAFA" d="M154.571 139.71c-6.285-4.735-18.194-6.885-27.335-4.893a2.091 2.091 0 0 1-.245.037 27.175 27.175 0 0 1 1.759-4.89c3.372-7.16 9.45-11.576 15.392-10.465 7.13 1.335 11.546 10.153 10.43 20.21Z"/>
    <path fill="#323233" d="M152.675 114.017a.75.75 0 0 1-.47-.164c-4.292-3.424-9.63-4.269-14.645-2.317a.75.75 0 1 1-.547-1.398c5.53-2.151 11.41-1.224 16.133 2.543a.749.749 0 0 1-.47 1.336"/>
    <path fill="#FFF" d="M154.247 141.878c-2.058 10.929-9.92 18.632-17.557 17.203a9.57 9.57 0 0 1-.944-.227c-7.066-2.044-11.135-11.68-9.164-22.152 1.938-10.287 9.02-17.718 16.216-17.359.447.02.896.074 1.344.156 7.638 1.43 12.163 11.448 10.105 22.38Z"/>
    <path fill="#FFF" d="M154.545 139.927a28.68 28.68 0 0 1-.836 4.275 2.701 2.701 0 0 1-.555-.16c-6.829-2.75-17.54-3.78-26.362-1.239a2.706 2.706 0 0 1-.69.109 27.8 27.8 0 0 1 .22-4.572c.07-.543.158-1.09.26-1.638 2.058-10.929 9.921-18.632 17.56-17.203 3.789.709 6.812 3.533 8.645 7.533 1.957 3.454 2.627 8.34 1.758 12.895Z"/>
    <path fill="#323233" d="M138.512 160c-.653 0-1.309-.06-1.962-.182-8.035-1.503-12.838-11.935-10.707-23.254 2.132-11.32 10.402-19.305 18.437-17.802 3.91.731 7.174 3.556 9.19 7.954a.75.75 0 0 1-.37.994.754.754 0 0 1-.998-.37c-1.808-3.942-4.684-6.464-8.1-7.103-7.218-1.351-14.7 6.098-16.679 16.604-1.978 10.506 2.286 20.152 9.505 21.503 7.219 1.35 14.701-6.099 16.68-16.604a.753.753 0 0 1 1.479.276C153.029 152.414 145.89 160 138.512 160Z"/>
    <g transform="translate(124 120)">
      <mask id="l" fill="#fff">
        <use xlink:href="#k"/>
      </mask>
      <path fill="#323233" d="M6.736 34.365c.432-3.567 2.596-6.255 4.835-6.004 2.238.251 3.703 3.345 3.271 6.912-.432 3.567-2.596 6.254-4.834 6.003-2.239-.25-3.704-3.345-3.272-6.911" mask="url(#l)"/>
    </g>
    <g transform="translate(124 120)">
      <mask id="n" fill="#fff">
        <use xlink:href="#m"/>
      </mask>
      <path fill="#323233" d="M11.27 28.636c-1.975 0-3.843 2.502-4.238 5.76-.202 1.673.014 3.287.61 4.544.571 1.208 1.422 1.934 2.394 2.043.973.109 1.974-.41 2.82-1.459.879-1.092 1.475-2.615 1.677-4.287.202-1.673-.014-3.286-.609-4.544-.572-1.208-1.423-1.934-2.395-2.043a2.264 2.264 0 0 0-.26-.014Zm-.975 12.948c-.11 0-.22-.007-.33-.019-1.192-.134-2.215-.98-2.878-2.382-.641-1.353-.875-3.077-.66-4.854.45-3.722 2.77-6.53 5.172-6.261 1.193.134 2.216.98 2.88 2.382.64 1.353.874 3.077.659 4.855-.215 1.777-.855 3.403-1.802 4.578-.89 1.106-1.959 1.7-3.041 1.7Z" mask="url(#n)"/>
    </g>
    <path fill="#FFF" d="M152.743 145.055c-6.846-2.756-17.584-3.79-26.432-1.242-1.481.426-2.706-.43-2.54-1.891.173-1.53 1.32-2.387 2.753-2.845 9.198-2.938 19.807-2.444 26.918 1.4 1.468.794 2.23 2.018 1.962 3.446-.204 1.084-1.369 1.651-2.66 1.132Z"/>
    <path fill="#323233" d="M153.685 146c-.167 0-.34-.014-.513-.045a3.487 3.487 0 0 1-.711-.203c-6.058-2.439-16.76-3.86-25.94-1.217a3.488 3.488 0 0 1-.887.138c-.8.02-1.514-.265-2.005-.8-.483-.527-.699-1.25-.61-2.037.162-1.416 1.03-2.517 2.512-3.182a6.52 6.52 0 0 1 .762-.293 40.37 40.37 0 0 1 4.537-1.158.752.752 0 1 1 .289 1.476 38.679 38.679 0 0 0-4.364 1.113 5.313 5.313 0 0 0-.598.23c-1.003.451-1.537 1.099-1.637 1.984-.04.354.037.648.224.852.192.21.497.32.858.312a2.01 2.01 0 0 0 .503-.08c9.574-2.756 20.42-1.35 26.922 1.268.135.054.27.093.4.115.64.11 1.137-.167 1.236-.689.203-1.084-.424-1.827-.986-2.259a4.281 4.281 0 0 0-.597-.388.75.75 0 0 1-.3-1.02.756.756 0 0 1 1.025-.298c.301.164.563.335.8.52 1.26.968 1.809 2.291 1.542 3.723-.223 1.168-1.239 1.938-2.462 1.938Zm8.388-47.358a.752.752 0 0 1-.628-1.17c1.231-1.843 2.224-4.934 2.656-8.268.155-1.204.235-2.395.235-3.54 0-.415.339-.751.755-.751.417 0 .755.337.755.752 0 1.208-.084 2.464-.248 3.731-.467 3.606-1.522 6.853-2.896 8.91a.756.756 0 0 1-.63.336Z"/>
    <path fill="#CACACA" d="M158.936 100.891c-.626-.103-1.047-.61-.92-1.263.128-.655.759-1.108 1.408-1.012.65.094 1.064.659.921 1.263-.142.605-.712 1.128-1.409 1.012Zm.712-4.433c-5.495-.798-10.823 3.034-11.904 8.556-1.081 5.525 2.476 9.817 7.78 10.692 5.879.967 10.705-3.452 11.904-8.558 1.197-5.107-2.287-9.892-7.78-10.69Z"/>
    <path fill="#323233" d="M159.252 99.356a.522.522 0 0 0-.496.417c-.018.095-.007.172.035.232.05.072.148.124.269.144.293.048.502-.235.55-.442a.244.244 0 0 0-.034-.202.37.37 0 0 0-.26-.145.466.466 0 0 0-.064-.004Zm-.118 2.304c-.105 0-.212-.01-.321-.027a1.888 1.888 0 0 1-1.261-.768 1.792 1.792 0 0 1-.278-1.38c.207-1.044 1.22-1.766 2.26-1.613.529.076 1 .362 1.29.786.28.41.371.905.256 1.393-.198.838-.96 1.609-1.946 1.609Zm-.938-4.555c-4.594 0-8.796 3.38-9.711 8.053-.456 2.327-.046 4.49 1.183 6.254 1.304 1.87 3.427 3.131 5.98 3.552 5.526.91 9.956-3.347 11.046-7.988.508-2.168.109-4.356-1.125-6.16-1.341-1.96-3.483-3.244-6.03-3.613a9.364 9.364 0 0 0-1.343-.098Zm-1.047 19.487c-.57 0-1.154-.046-1.748-.144-2.958-.488-5.435-1.972-6.973-4.178-1.468-2.106-1.96-4.665-1.425-7.4 1.155-5.902 6.877-10.01 12.754-9.156 2.97.431 5.477 1.943 7.059 4.255 1.474 2.156 1.953 4.766 1.347 7.35-1.132 4.82-5.446 9.273-11.014 9.273Z"/>
    <path fill="#323233" d="M159.692 100.366a2.39 2.39 0 0 1-.573-.07c-1.395-.351-2.315-1.951-2.592-4.506-.249-2.305.025-5.2.773-8.155.867-3.421 2.257-6.469 3.816-8.36a.757.757 0 0 1 1.062-.104.75.75 0 0 1 .104 1.058c-1.422 1.727-2.704 4.56-3.518 7.775-.705 2.785-.967 5.493-.736 7.626.195 1.8.754 3.03 1.46 3.207.168.043.35.031.558-.035a.751.751 0 1 1 .462 1.432 2.688 2.688 0 0 1-.816.132Zm4.678 5.46-.063-.003-12.79-1.052a.753.753 0 1 1 .125-1.498l12.79 1.051a.753.753 0 0 1-.062 1.502Zm-.835 3.967-.063-.003-12.789-1.052a.753.753 0 1 1 .124-1.499l12.79 1.052a.753.753 0 0 1-.062 1.502Zm68.558.928a.905.905 0 0 1-.472-.133l-5.586-3.414a.901.901 0 0 1-.299-1.24.908.908 0 0 1 1.246-.298l5.586 3.414a.9.9 0 0 1-.475 1.671"/>
  </g>
</svg>
