<svg xmlns="http://www.w3.org/2000/svg" xmlns:xlink="http://www.w3.org/1999/xlink" viewBox="0 0 256 256">
  <defs>
    <path id="a" d="M0 0h131v144H0z"/>
    <path id="c" d="M0 0h70v49H0z"/>
  </defs>
  <g fill="none" fill-rule="evenodd">
    <path fill="#FFF" d="M137.857 247.463c0 .008-.004.012-.004.02-2.062 13.27-31.618 9.086-50.041.645-16.592-7.602-19.15-17.238-12.193-26.92 3.592-5.002 7.95-6.34 13.145-6.198 1.728.04 3.552.247 5.465.543.48.073.969.15 1.461.235 3.774.629 9.335 2.259 15.2 4.67 13.564 5.6 28.747 15.438 26.967 27.005Z"/>
    <path fill="#646464" d="M111 220.76c-5.76-1.444-11.499-1.707-15.936 1.24L89 215c2.152.052 4.45.382 6.889.823 3.75.666 9.28 2.386 15.11 4.936H111Z"/>
    <path fill="#646464" d="m91.299 216.193 3.931 4.498c2.155-1.242 4.67-1.904 7.585-1.99-2.625-.857-5.07-1.502-7.098-1.859-1.712-.307-3.149-.52-4.418-.65ZM95.048 223a.938.938 0 0 1-.708-.327l-6.084-6.962c-.262-.3-.33-.737-.17-1.11.158-.373.513-.621.899-.6 1.926.046 4.1.303 7.051.832 4.108.723 9.854 2.582 15.366 4.972.465.201.705.747.552 1.253-.153.505-.648.802-1.137.68-6.634-1.647-11.626-1.285-15.26 1.108a.919.919 0 0 1-.509.154Z"/>
    <path fill="#FFF" d="m94.323 221.999-14.54-4.875c2.308-2.275 8.373-7.587 12.353-14.463.007 0 0-.007 0-.007a29.248 29.248 0 0 0 1.981-4.09c.007 0 0-.008 0-.008 6.547-16.5-5.37-37.042-29.117-38.81L69.814 147c20.15 1.604 34.542 16.809 38.191 32.247 3.245 13.741-1.483 27.392-13.682 42.752Z"/>
    <path fill="#646464" d="M66.303 158.86c16.776 1.773 26.695 12.808 29.119 23.183 2.825 12.092-.706 21.401-12.594 33.202-1.08 1.073-2.298 2.12-3.949 3.397-1.105.854-2.218 2.026-3.133 3.299-3.009 4.19-4.04 8.196-3.064 11.905 1.327 5.047 6.315 9.585 14.825 13.49 14.228 6.528 35.233 10.515 44.359 5.572 2.366-1.281 3.753-3.122 4.123-5.47 1.855-15.073-25.038-26.646-38.357-29.89a.963.963 0 0 1-.672-.596.97.97 0 0 1 .109-.894c9.187-13.322 12.194-24.964 9.463-36.641-3.877-16.61-19.02-29.72-36.17-31.423l-4.059 10.867Zm54.19 98.14c-10.508 0-23.801-3.326-33.783-7.906-9.059-4.156-14.403-9.12-15.885-14.754-1.13-4.295.002-8.848 3.364-13.532 1.021-1.42 2.271-2.733 3.52-3.699 1.585-1.226 2.747-2.225 3.769-3.24 11.483-11.398 14.755-19.904 12.073-31.384-2.324-9.947-12.088-20.55-28.663-21.812a.961.961 0 0 1-.737-.444.971.971 0 0 1-.09-.86l4.759-12.743a.963.963 0 0 1 .976-.623c9.363.753 18.089 4.515 25.233 10.88 6.69 5.959 11.44 13.805 13.373 22.092 2.786 11.906-.067 23.706-8.975 37.036 6.932 1.84 16.677 5.53 24.732 10.812 9.877 6.477 14.627 13.694 13.735 20.87a.773.773 0 0 1-.004.03c-.464 2.984-2.184 5.302-5.113 6.887-3.07 1.664-7.373 2.39-12.283 2.39Z"/>
    <path fill="#646464" d="M93.987 222a1.02 1.02 0 0 1-.612-.201.9.9 0 0 1-.162-1.312 101.523 101.523 0 0 0 3.987-5.084c.31-.425.926-.53 1.374-.237.449.294.56.876.25 1.3a103.23 103.23 0 0 1-4.061 5.179 1.009 1.009 0 0 1-.776.355Z"/>
    <path fill="#FFF" d="M177 218.16v.08c0 .208-.004.415-.016.623-.664 12.986-29.444 8.32-46.595.588-16.71-7.538-18.662-16.557-11.35-24.614 1.887-2.077 3.904-3.311 6.041-4.238.328-.304.648-.615.964-.939 4.782-.827 11.847-.895 15.831-.104-.267.436-.542.875-.826 1.314 6.466 1.986 15.455 5.4 22.824 10.034 7.013 4.406 12.56 9.91 13.086 16.333.012.16.02.324.029.483.008.144.012.292.012.44Z"/>
    <path fill="#646464" d="M152 194.396c-5.6-.977-9.5-.506-14.59 1.604 0 0-2.906-6.374-.375-5.983 3.892.591 8.913 2.116 14.965 4.379Z"/>
    <path fill="#646464" d="M137.877 190.885c-.094.62.292 2.274.91 3.945 2.473-1.03 4.694-1.609 7.004-1.777-3.135-1.087-5.752-1.803-7.914-2.168Zm.389 6.115a.936.936 0 0 1-.87-.573c-.83-1.97-2.058-5.477-.963-6.837.221-.274.727-.71 1.635-.559 3.553.584 8.247 2.069 14.348 4.537a.926.926 0 0 1 .545 1.125.94.94 0 0 1-1.08.648c-5.05-.953-8.511-.54-13.226 1.575a.952.952 0 0 1-.39.084Z"/>
    <path fill="#FFF" d="M251 103.686a19.501 19.501 0 0 1-1.148 6.774v.008c-2.484 6.924-8.61 11.754-14.299 14.337a28.402 28.402 0 0 1-3.438 1.314c-2.512.776-4.738 1.042-6.256.788l-12.282-13.792c4.537-.319 11.606-.242 16.409-2.38 1.046-.465 1.984-1.039 2.765-1.746 1.518-1.366 2.443-3.238 2.4-5.808v-.025c0-.133-.008-.27-.017-.408a11.65 11.65 0 0 0-.06-.724c-1.328-11.361-22.664-13.742-42.687-8.795-4.134 1.019-8.212 2.353-12.053 3.99a62.472 62.472 0 0 0-6.944 3.443L173 87.316c4.96-2.486 10.881-4.632 17.21-6.233 23.5-5.958 52.618-4.426 59.368 14.858.963 2.757 1.405 5.34 1.422 7.745ZM11.8 72.791c8.406 27.076 10.632 70.318-7.03 88.826-1.348 1.412-.886 2.458 1.073 2.379 35.08-1.43 109.847-43.11 120.78-62.552 7.025-16.35 9.009-71.783 6.054-78.762C129.479 15.132 11.8 72.79 11.8 72.79Z"/>
    <path fill="#646464" d="M126.622 101.442c-2.56 4.553-8.625 10.328-16.858 16.52-24.774 18.627-69.21 41.03-97.074 45.334-2.418.374-4.706.61-6.848.7-1.956.08-2.421-.965-1.073-2.38 10.89-11.408 14.222-32.224 13.201-52.852-.631-12.83-2.948-25.59-6.171-35.97 0 0 36.628-17.947 69.57-32.506 26.103-11.538 49.894-20.945 51.307-17.606 2.956 6.98.972 62.413-6.054 78.76Z"/>
    <g transform="translate(3 21)">
      <mask id="b" fill="#fff">
        <use xlink:href="#a"/>
      </mask>
      <path fill="#646464" d="M1.945 141.992c.113.043.355.104.805.083 15.643-.642 41.266-9.77 68.541-24.415 25.607-13.75 45.442-28.51 50.565-37.621 2.984-7.043 5.46-22.937 6.626-42.542 1.004-16.873.737-32.054-.62-35.405-.396-.27-3.11-.993-20.545 5.768-10.194 3.952-23.924 9.863-40.811 17.569-26.192 11.95-52.013 24.598-56.644 26.874 4.323 14.39 6.57 31.954 6.02 47.174-.473 13.104-3.192 31-13.46 41.839-.318.336-.435.562-.477.676ZM2.59 144c-1.643 0-2.231-.738-2.438-1.192-.217-.477-.392-1.478.873-2.813 9.855-10.403 12.473-27.813 12.935-40.587.552-15.295-1.756-32.986-6.175-47.323a.961.961 0 0 1 .493-1.145c.275-.136 27.8-13.71 56.143-26.673C122.099-2.112 126.892-.325 128.467.264c.699.26 1.012.71 1.15 1.04 1.693 4.027 1.676 21.313.784 36.308-1.18 19.857-3.722 36.017-6.797 43.228a1.001 1.001 0 0 1-.045.091c-5.25 9.407-25.41 24.488-51.358 38.422-27.519 14.776-53.452 23.988-69.372 24.642a5.667 5.667 0 0 1-.238.005Z" mask="url(#b)"/>
    </g>
    <path fill="#FFF" d="m74 211.975-1.027.025c-.338.008-.813-.19-1.051-.436-19.401-20.264-33.998-27.69-51.6-30.805-.321-.056-.732-.318-.917-.588L17 176.65c-.218-.322-.294-.882-.166-1.249 4.152-11.947 6.77-25.232 7.257-39.408a142.114 142.114 0 0 0-.713-19.865c-1.417-13.498-4.812-27.561-10.61-41.854-.589-1.446-2.066-4.235 1.835-7.273C28.16 77.34 40.291 98.418 50.09 122.562c.378.943.761 1.89 1.135 2.845a347.94 347.94 0 0 1 5.304 14.397 345.05 345.05 0 0 1 1.513 4.489c7.93 24 13.514 48.748 15.959 67.682Z"/>
    <path fill="#646464" d="M14.6 68.201c-2.428 2.206-1.654 4.046-1.08 5.414l.111.265c13.728 33.818 15.18 69.99 4.088 101.854a.685.685 0 0 0 .052.39l2.407 3.525a.752.752 0 0 0 .292.185c19.394 3.428 34.025 12.148 52.182 31.1.05.047.193.11.288.133-3.202-23.915-10.944-54.186-20.302-79.317C44.54 110.002 31.4 81.455 14.6 68.201ZM72.987 213c-.606 0-1.31-.298-1.727-.734-20.58-21.48-35.324-27.742-51.13-30.536-.58-.103-1.215-.512-1.545-.995l-2.408-3.525c-.389-.57-.506-1.457-.28-2.11 10.939-31.422 9.5-67.111-4.052-100.494l-.102-.244c-.66-1.57-2.032-4.834 2.24-8.159a.965.965 0 0 1 1.177-.006c17.459 13.316 30.999 42.632 39.283 64.88 9.69 26.02 17.372 56.23 20.548 80.809a.962.962 0 0 1-.931 1.086l-1.027.026-.046.002Z"/>
    <path fill="#CACACA" d="M54 153.287c-10.284 6.62-19.783 13.299-27.678 19.343A279.739 279.739 0 0 0 22 176c8.953-26.843 9.375-56.368 1.335-85.229-.756-2.714-.636-3.993.148-3.74.523.17 1.335 1.018 2.38 2.586C36.9 106.157 46.607 129.542 54 153.287Z"/>
    <path fill="#646464" d="M65 199c-15.736-14.048-28.918-19.739-43-22.432a303.28 303.28 0 0 1 4.273-3.337c7.848-6.007 17.293-12.645 27.517-19.231 4.173 13.4 7.608 26.92 10.124 39.369.383 1.906.747 3.78 1.086 5.631Z"/>
    <path fill="#646464" d="M65.043 200a.955.955 0 0 1-.637-.243c-14.086-12.575-26.835-19.228-42.629-22.25a.957.957 0 0 1 .36-1.879c15.37 2.94 27.904 9.227 41.454 20.87-.18-.932-.37-1.897-.574-2.908-2.584-12.781-6.083-26.388-10.12-39.348a.957.957 0 0 1 1.827-.57c4.056 13.023 7.572 26.695 10.169 39.54.409 2.035.766 3.885 1.091 5.658a.957.957 0 0 1-.94 1.13h-.001Z"/>
    <path fill="#646464" d="M23.798 88.494c.055.44.176 1.08.43 1.991 7.834 28.088 7.69 56.661-.387 82.854 8.383-6.507 18.567-13.674 29.058-20.443C47.157 134.6 37.72 109.11 25.032 90.124c-.528-.79-.936-1.301-1.235-1.63ZM21.963 177a.96.96 0 0 1-.913-1.266c8.896-26.638 9.354-55.938 1.322-84.733-.816-2.933-.715-4.391.339-4.874 1.054-.483 2.227.393 3.923 2.93 12.978 19.418 22.565 45.503 28.322 63.965a.962.962 0 0 1-.398 1.095c-11.713 7.531-23.076 15.583-31.995 22.674a.964.964 0 0 1-.6.209ZM192 93.408c-6.613 1.695-13.09 4.254-18.614 7.592L173 87.366c4.864-2.537 10.665-4.73 16.865-6.366-1.654 3.994-.683 8.854 2.135 12.408"/>
    <path fill="#646464" d="m173.914 88.605.324 10.87c4.762-2.562 10.31-4.699 16.207-6.241-2.047-3.045-2.77-6.694-1.987-9.94-5.293 1.428-10.279 3.247-14.544 5.311ZM173.336 102a.942.942 0 0 1-.948-.915L172 88.056a.942.942 0 0 1 .525-.872c4.945-2.452 10.875-4.58 17.148-6.155a.947.947 0 0 1 1.102 1.29c-1.473 3.382-.685 7.653 2.007 10.88a.94.94 0 0 1-.504 1.519c-6.823 1.661-13.21 4.136-18.468 7.156a.948.948 0 0 1-.474.126Z"/>
    <path fill="#FFF" d="M149.995 164.189c.148 8.614-2.776 17.327-8.647 26.586-1.704 2.692-3.664 5.427-5.864 8.225l-10.195-8.452c6.354-7.941 10.117-15.45 10.997-22.506.376-2.954.248-5.83-.412-8.628-2.52-10.676-12.956-21.373-29.874-22.634l4.82-12.78c20.148 1.601 34.531 16.853 38.18 32.332a36.69 36.69 0 0 1 .994 7.857Z"/>
    <path fill="#646464" d="M149.876 167.844c-3.46-2.258-11.871.711-14.67 5.156 1.807-4.737 1.332-10.825.672-13.62-2.52-10.666-12.958-21.352-29.878-22.613L110.821 124c20.15 1.6 34.536 16.837 38.186 32.301.617 2.612 1.272 6.975.869 11.543Z"/>
    <path fill="#646464" d="M107.335 135.9c16.983 1.763 27.036 12.845 29.5 23.27.478 2.026.974 6.246.28 10.454 2.093-1.605 4.696-2.705 6.897-3.184 1.915-.419 3.638-.42 5.01-.02.198-4.474-.57-8.338-.937-9.887-3.278-13.89-16.12-29.565-36.634-31.533l-4.116 10.9Zm27.88 38.1a.972.972 0 0 1-.91-1.315c1.686-4.42 1.304-10.238.635-13.07-2.363-9.998-12.258-20.646-29.04-21.895a.974.974 0 0 1-.747-.446.966.966 0 0 1-.09-.863l4.827-12.784a.98.98 0 0 1 .987-.625c9.673.768 18.625 4.646 25.888 11.214 6.601 5.97 11.294 13.737 13.214 21.872.425 1.795 1.362 6.544.893 11.864a.97.97 0 0 1-.545.788.977.977 0 0 1-.958-.061c-1.038-.677-2.84-.803-4.94-.345-3.487.76-6.937 2.903-8.39 5.211a.974.974 0 0 1-.825.455Z"/>
    <path fill="#FFF" d="M141.349 190.04c-.079.119-.15.239-.235.358-1.647 2.55-3.528 5.142-5.63 7.776-3.413 2.463-7.073 2.296-9.544.326-2.453-1.957-3.443-5.705-.509-8.565l-.142-.119c3.089-3.819 5.566-7.531 7.39-11.14.008-.007.015-.02.022-.028 3.5-6.922 4.636-13.466 3.173-19.617-2.52-10.565-12.956-21.145-29.874-22.385L110.82 124a42.774 42.774 0 0 1 13.44 3.293c9.045 3.86 16.144 10.615 20.553 18.286 1.93 3.349 3.344 6.866 4.188 10.404 2.649 11.091.007 22.119-7.653 34.057Z"/>
    <path fill="#646464" d="M107.32 135.849c16.873 1.747 26.86 12.783 29.308 23.168 2.6 11.022-3.586 25.153-10.809 31.925a.968.968 0 0 1-.273.18c-2.365 1.038-4.124 2.286-5.704 4.047-3.072 3.424-4.286 6.804-3.608 10.045 1.268 6.071 8.655 10.598 14.629 13.325 8.462 3.863 21.932 7.546 31.993 7.546 4.095 0 7.623-.61 10.022-2.065 2.016-1.223 3.053-2.939 3.169-5.246v-.007c.886-15.32-29.185-25.456-35.223-27.332a.966.966 0 0 1-.528-1.44c5.003-7.853 7.821-15.468 8.375-22.635.286-3.662 0-7.353-.855-10.97-3.255-13.827-16.017-29.434-36.412-31.4l-4.085 10.858Zm55.454 92.15c-10.404 0-23.91-3.685-32.715-7.704-6.38-2.913-14.285-7.825-15.719-14.686-.81-3.876.557-7.822 4.062-11.728 1.714-1.91 3.691-3.33 6.212-4.458 6.78-6.445 12.56-19.671 10.132-29.963-2.348-9.96-12.18-20.562-28.85-21.799a.968.968 0 0 1-.834-1.302l4.79-12.733a.969.969 0 0 1 .981-.623c9.615.767 18.512 4.629 25.732 11.168 6.563 5.945 11.227 13.679 13.133 21.777.9 3.812 1.203 7.702.9 11.563-.553 7.158-3.245 14.709-8.006 22.46 5.416 1.749 14.54 5.14 22.32 10.187 9.047 5.87 13.443 12.167 13.066 18.718-.15 2.952-1.528 5.238-4.096 6.796-2.707 1.642-6.619 2.328-11.108 2.328v-.001Z"/>
    <path fill="#646464" d="M138.014 197a1.09 1.09 0 0 1-.603-.179c-.45-.3-.545-.87-.212-1.274a87.947 87.947 0 0 0 3.93-5.124c.3-.425.927-.55 1.4-.281.473.27.613.833.313 1.257a89.574 89.574 0 0 1-4.011 5.232 1.06 1.06 0 0 1-.817.369Zm-2.512-25c1.178-4.362 1.32-8.568.369-12.597-2.52-10.677-12.958-21.37-29.871-22.622L110.814 124c20.15 1.607 34.543 16.852 38.192 32.323a36.595 36.595 0 0 1 .988 9.114c-5.518-1.21-11.568 1.169-14.492 6.563Z"/>
    <path fill="#646464" d="M107.334 135.914c16.98 1.757 27.03 12.845 29.494 23.28.678 2.871.825 5.87.441 8.953a14.363 14.363 0 0 1 11.782-3.844 36.026 36.026 0 0 0-.966-7.747c-3.277-13.893-16.12-29.578-36.64-31.554l-4.111 10.911ZM135.511 173a.97.97 0 0 1-.94-1.223c1.144-4.23 1.265-8.314.363-12.137-2.363-10.008-12.256-20.662-29.033-21.906a.969.969 0 0 1-.839-1.309l4.82-12.796a.976.976 0 0 1 .989-.626c9.674.771 18.626 4.653 25.891 11.224 6.604 5.974 11.298 13.746 13.218 21.884a37.838 37.838 0 0 1 1.014 9.365.97.97 0 0 1-1.182.93c-5.339-1.17-10.867 1.331-13.445 6.085a.974.974 0 0 1-.856.509Z"/>
    <path fill="#FFF" d="M191.996 126.961a92.045 92.045 0 0 1-.1 5.3v.012a78.948 78.948 0 0 1-.367 4.688c-26.169 11.487-60.06 31.696-85.149 49.202-13.674 9.538-24.734 18.275-30.499 24.358-.221.238-.665.435-.991.443l-1.463.036c-.798-6.148-1.926-12.91-3.36-20.064-6.112-30.485-17.764-68.031-32.856-95.164a168.785 168.785 0 0 0-1.604-2.818C28.972 81.55 21.72 72.207 14 66.336 53.576 38.898 93.507 20.95 129.857 16.491c1.486-.185 2.965-.346 4.44-.483.725-.06 1.8.225 2.385.656 7.268 5.267 13.972 11.716 20.012 18.966a115.991 115.991 0 0 1 2.49 3.087c20.325 25.914 32.525 60.77 32.812 88.244Z"/>
    <path fill="#FFF" d="M73 205.413c6.951-2.4 13.634-5.21 20-8.413-7.205 5.597-12.964 10.592-16.612 14.513-.226.243-.67.444-.996.45l-1.467.037a254.264 254.264 0 0 0-.925-6.587"/>
    <path fill="#CACACA" d="M157 35.641C103.566 45.828 65.092 65.211 35.654 93c-.424-.728-.852-1.444-1.284-2.157-5.451-9.04-11.31-16.66-17.491-22.115-.953-.84-1.91-1.63-2.879-2.361C55.284 37.79 96.953 19.5 134.555 16.008c.727-.06 1.804.225 2.39.656a94.23 94.23 0 0 1 3.553 2.703c5.164 4.108 10.021 8.811 14.527 13.965.667.76 1.324 1.529 1.975 2.31Z"/>
    <path fill="#646464" d="M15.592 66.424c6.842 5.497 13.649 13.925 20.26 25.084 15.039-14.035 31.754-25.377 51.06-34.652 20.11-9.663 42.478-16.822 68.325-21.868-5.897-6.891-12.227-12.802-18.833-17.583-.394-.29-1.238-.519-1.74-.475-35.661 3.314-76.815 20.423-119.072 49.494ZM35.631 94a.966.966 0 0 1-.835-.479c-7.01-12.034-14.215-20.91-21.415-26.38a.961.961 0 0 1 .034-1.556c42.907-29.712 84.774-47.2 121.075-50.573.976-.085 2.286.276 3.053.838 7.127 5.158 13.937 11.604 20.234 19.156a.96.96 0 0 1-.561 1.56C106.298 46.28 66.745 64.98 36.294 93.736a.968.968 0 0 1-.664.264ZM185 110.757c-5.87 2.76-12.038 5.88-18.328 9.243a162.54 162.54 0 0 0-4.01-16.227 144 144 0 0 0-.662-2.155A536.828 536.828 0 0 1 180.727 93c1.83 5.988 3.261 11.945 4.273 17.757"/>
    <path fill="#646464" d="M163.136 102.109c.143.46.283.922.42 1.382 1.525 5.062 2.8 10.13 3.794 15.083a404.384 404.384 0 0 1 16.604-8.362 147.08 147.08 0 0 0-3.817-15.932 538.415 538.415 0 0 0-17 7.829Zm3.517 18.89a.963.963 0 0 1-.95-.782 162.265 162.265 0 0 0-3.999-16.176c-.214-.718-.435-1.434-.66-2.15a.96.96 0 0 1 .5-1.153c6.4-3.09 12.73-6.003 18.816-8.657a.97.97 0 0 1 1.312.601c1.84 6.017 3.29 12.046 4.314 17.922a.962.962 0 0 1-.54 1.035c-5.75 2.704-11.919 5.815-18.336 9.246a.97.97 0 0 1-.457.115Z"/>
    <path fill="#FFF" d="M167 120.379a578.985 578.985 0 0 0-18.59 10.204c-.82.47-1.642.944-2.464 1.417A178.022 178.022 0 0 0 141 112.51 676.193 676.193 0 0 1 162.239 102c.23.718.456 1.437.674 2.155A159.802 159.802 0 0 1 167 120.379"/>
    <path fill="#646464" d="M142.083 112.977a185.393 185.393 0 0 1 4.317 17.54 558.462 558.462 0 0 1 18.589-10.642 165.407 165.407 0 0 0-3.792-15.477c-.105-.361-.213-.722-.321-1.082a643.79 643.79 0 0 0-18.793 9.662Zm3.64 20.023a.937.937 0 0 1-.39-.086.96.96 0 0 1-.54-.698 183.108 183.108 0 0 0-4.751-19.436.967.967 0 0 1 .463-1.132 643.576 643.576 0 0 1 20.537-10.552.934.934 0 0 1 .79-.017.962.962 0 0 1 .528.596c.223.724.443 1.45.654 2.174a166.707 166.707 0 0 1 3.97 16.358.966.966 0 0 1-.484 1.027 553.17 553.17 0 0 0-17.917 10.214c-.736.436-1.471.876-2.207 1.316l-.17.103a.939.939 0 0 1-.482.133Z"/>
    <path fill="#646464" d="M15.586 66.364c7.039 5.662 14.04 14.434 20.828 26.1 9.017 15.512 17.555 36.028 24.691 59.33 6.073 19.825 10.85 40.998 13.153 58.262l.598-.014a.735.735 0 0 0 .316-.142c7.948-8.39 26.112-22.032 48.587-36.496 23.622-15.2 47.923-28.68 66.672-36.984.097-.042.25-.252.262-.355 2.965-30.153-11.635-72.148-34.717-99.853-6.181-7.42-12.858-13.749-19.844-18.81-.394-.29-1.236-.516-1.737-.474-35.583 3.31-76.645 20.398-118.809 49.436ZM73.416 212a.963.963 0 0 1-.955-.838C68.08 177.36 53.719 126.065 34.747 93.429 27.754 81.41 20.565 72.545 13.38 67.081a.96.96 0 0 1 .034-1.555C56.227 35.85 98.001 18.382 134.222 15.012c.974-.085 2.281.275 3.047.837 7.111 5.152 13.906 11.59 20.19 19.133 11.78 14.143 21.4 31.578 27.82 50.422 6.171 18.119 8.775 36.178 7.333 50.85-.078.79-.666 1.6-1.398 1.924-40.323 17.858-98.767 56.289-114.641 73.044-.4.424-1.089.73-1.673.743l-1.46.035h-.024Z"/>
    <path fill="#FFF" d="M187 128.96c-5.64 2.71-11.608 5.762-17.721 9.04a117.25 117.25 0 0 0-.173-2.587c-.385-4.945-1.091-10.064-2.106-15.274 6.257-3.325 12.395-6.409 18.235-9.139 1.091 6.21 1.689 12.246 1.765 17.96"/>
    <path fill="#646464" d="M168.04 120.632c.953 5.021 1.624 9.978 1.995 14.747.03.367.057.74.082 1.123a453.695 453.695 0 0 1 15.948-8.116c-.1-5.099-.617-10.483-1.537-16.033a405.724 405.724 0 0 0-16.489 8.28ZM169.25 139a.969.969 0 0 1-.47-.12.95.95 0 0 1-.492-.779c-.052-.922-.108-1.765-.171-2.576-.383-4.915-1.09-10.036-2.1-15.222a.949.949 0 0 1 .49-1.018c6.42-3.41 12.592-6.504 18.348-9.194a.973.973 0 0 1 .854.016.952.952 0 0 1 .505.682c1.109 6.307 1.71 12.421 1.786 18.174a.951.951 0 0 1-.542.87c-5.52 2.652-11.493 5.697-17.75 9.051a.972.972 0 0 1-.458.115V139Z"/>
    <path fill="#FFF" d="M238 120.698c-.223 1.48-.778 2.988-1.644 4.427a14.59 14.59 0 0 1-1.588 2.159c-2.952 3.35-7.8 5.976-14.253 6.403 2.977 1.11 4.342 3.382 4.079 5.602-.64 5.537-11.166 8.948-20.478 1.122-7.978 0-13.32-6.956-10.607-15.099-2.046-.28-9.947.33-18.428-5.935-6.067-4.48-2.855-13.546 6.845-9.249 7.962 3.533 18.1.846 22.587-1.662 4.326-2.277 8.769-3.818 13.025-4.301 5.995-.683 11.616.711 15.998 5.053.6.593 1.18 1.24 1.73 1.947L238 120.7v-.001Z"/>
    <path fill="#646464" d="M233.63 110a.958.958 0 0 1-.643-1.675c1.663-1.484 2.321-3.476 2.013-6.091-.287-2.435-1.64-4.504-4.023-6.15-7.011-4.843-22.097-5.555-37.538-1.769a83.495 83.495 0 0 0-5.185 1.445.959.959 0 1 1-.58-1.83 85.489 85.489 0 0 1 5.305-1.48c15.945-3.908 31.658-3.082 39.097 2.057 2.856 1.973 4.484 4.497 4.838 7.502.382 3.235-.507 5.841-2.64 7.746a.96.96 0 0 1-.643.245Z"/>
    <g transform="translate(183 77)">
      <mask id="d" fill="#fff">
        <use xlink:href="#c"/>
      </mask>
      <path fill="#646464" d="M52.964 49a.968.968 0 0 1-.394-1.85l.133-.061c9.526-4.32 18.91-14.268 14.055-28.105C62.668 7.326 50.25 3.524 40.555 2.387 28.917 1.025 14.23 2.77 1.268 7.06a.967.967 0 0 1-.605-1.836C13.879.85 28.876-.93 40.779.467c14.688 1.721 24.3 7.903 27.8 17.876 2.428 6.922 1.735 13.678-2.003 19.538-2.876 4.506-7.636 8.502-13.06 10.962l-.159.072a.961.961 0 0 1-.393.085Z" mask="url(#d)"/>
    </g>
    <path fill="#FFF" d="M224 133c3.18-.587 6.494-1.97 9-4"/>
    <path fill="#646464" d="M215.634 146c-3.539 0-7.744-1.23-11.87-4.602-4.041-.099-7.593-1.888-9.784-4.941-2.044-2.848-2.656-6.53-1.742-10.254l-.06-.004c-3.06-.156-10.228-.52-17.696-6.037-3.711-2.74-4.172-6.74-2.71-9.276 1.404-2.432 4.906-4.141 10.527-1.653 7.651 3.394 17.398.806 21.745-1.624 13.384-7.05 25.045-5.97 32.014 2.952a.975.975 0 0 1-.165 1.365.967.967 0 0 1-1.36-.166c-8.998-11.518-23.675-5.543-29.567-2.44-4.652 2.6-15.156 5.372-23.45 1.693-4.45-1.97-7.084-.854-8.066.848-1.005 1.743-.582 4.694 2.18 6.735 7 5.17 13.515 5.502 16.645 5.661.566.03 1.014.052 1.357.099a.97.97 0 0 1 .692.45.976.976 0 0 1 .096.822c-1.19 3.574-.789 7.016 1.132 9.692 1.886 2.63 5.009 4.138 8.566 4.138.227 0 .447.08.622.226 5.74 4.825 11.576 5.027 15.125 3.608 2.174-.869 3.59-2.4 3.786-4.097.23-1.947-1.094-3.702-3.457-4.582a.973.973 0 0 1 .273-1.882c9.8-.65 15.772-6.616 16.606-12.174a.968.968 0 1 1 1.916.29c-.861 5.742-6.396 11.857-15.501 13.475 1.533 1.343 2.316 3.168 2.087 5.1-.28 2.416-2.146 4.54-4.993 5.678-1.388.555-3.076.9-4.949.9Z"/>
    <path fill="#646464" d="m203.44 141-.04-.001c-4.627-.186-8.362-2.085-10.52-5.345-2.23-3.162-2.314-8.014-1.1-10.886 1.89-5.48 4.754-7.885 9.71-10.641a1.004 1.004 0 0 1 1.349.357.947.947 0 0 1-.367 1.311c-4.629 2.575-7.13 4.67-8.826 9.613a1.025 1.025 0 0 1-.026.066c-1.008 2.352-.884 6.577.908 9.117 1.34 2.026 3.423 3.42 6.017 4.075-2.028-2.429-2.883-5.434-2.32-8.455.854-4.59 4.685-8.173 10.508-9.831a.994.994 0 0 1 1.227.652.958.958 0 0 1-.67 1.193c-5.08 1.446-8.403 4.482-9.12 8.328-.606 3.253.834 6.507 3.851 8.705a.952.952 0 0 1 .316 1.166.988.988 0 0 1-.897.576Zm16.588-7c-.09 0-.18-.012-.27-.037-.811-.225-1.783-.34-2.723-.453-2.55-.304-5.439-.649-6.015-3.388-.107-.507.233-1 .76-1.103.526-.103 1.039.225 1.145.732.285 1.35 1.838 1.602 4.35 1.901 1.014.121 2.063.246 3.022.512.516.143.814.662.665 1.159a.968.968 0 0 1-.934.677"/>
    <path fill="#FFF" d="M169 138.262A651.459 651.459 0 0 0 148.368 150c-.392-5.879-1.192-12.01-2.368-18.25.808-.479 1.616-.957 2.424-1.432A564.09 564.09 0 0 1 166.705 120c1.022 5.327 1.733 10.561 2.121 15.617.069.888.125 1.769.174 2.645Z"/>
    <path fill="#646464" d="M147.046 132.235c1.02 5.533 1.742 10.959 2.15 16.163a650.97 650.97 0 0 1 18.834-10.69c-.043-.706-.088-1.37-.138-2.015a138.343 138.343 0 0 0-1.868-14.235 570.694 570.694 0 0 0-18.979 10.777ZM148.343 151a.966.966 0 0 1-.967-.907c-.387-5.808-1.181-11.921-2.36-18.168a.973.973 0 0 1 .46-1.018l.175-.103c.753-.446 1.506-.891 2.26-1.334a568.8 568.8 0 0 1 18.362-10.354.964.964 0 0 1 .873-.022c.279.133.477.39.535.694 1.03 5.365 1.751 10.665 2.142 15.755.065.842.123 1.716.175 2.671a.972.972 0 0 1-.505.908 653.535 653.535 0 0 0-20.659 11.743.968.968 0 0 1-.492.135Zm-16.313-32.82a25.91 25.91 0 0 1-5.207 7.834c-7.878 8.167-20.695 11.095-31.573 7.423l-.316-.107c-18.523-6.487-15.27-29.564-2.059-25.04 16.338 5.586 22.74 2.559 30.217-3.907 7.477-6.473 14.426.943 8.938 13.796Z"/>
    <path fill="#646464" d="M89.633 108.667c-3.272 0-5.277 2.245-6.125 4.736-1.83 5.373.636 15.134 11.738 19.02l.304.102c10.691 3.607 22.998.72 30.626-7.185a24.965 24.965 0 0 0 5.02-7.548v-.001c3.093-7.242 2.034-12.296-.388-14.093-1.83-1.357-4.467-.833-7.052 1.404-3.893 3.365-7.465 5.791-12.252 6.697-4.974.942-10.994.114-18.945-2.604-1.068-.365-2.043-.529-2.925-.529ZM104.99 136c-3.387 0-6.789-.532-10.05-1.631l-.313-.106c-11.185-3.915-15.422-14.202-12.941-21.491 1.731-5.087 6.242-7.213 11.491-5.416 16.639 5.687 22.65 2.042 29.325-3.728 3.313-2.866 6.845-3.424 9.448-1.495 3.036 2.252 4.527 8.205 1.015 16.426a26.907 26.907 0 0 1-5.408 8.135C121.755 132.707 113.42 136 104.99 136Z"/>
    <path fill="#646464" d="M85.427 67.911a11.9 11.9 0 0 0-4.988 1.073c-3.515 1.611-6.006 4.875-7.017 9.19-1.03 4.402-.4 9.351 1.776 13.936 2.173 4.584 5.624 8.238 9.715 10.29 4.011 2.013 8.156 2.234 11.67.624a11.757 11.757 0 0 0 2.545-1.595c5.372-4.447 6.512-13.503 2.705-21.53-1.494-3.15-3.634-5.914-6.19-7.994a1.007 1.007 0 0 1-.052-.046c-3.212-2.598-6.776-3.948-10.164-3.948ZM91.62 106c-2.49 0-5.07-.636-7.59-1.9-4.474-2.245-8.235-6.216-10.59-11.183-2.358-4.97-3.035-10.357-1.908-15.17 1.147-4.901 4.019-8.627 8.087-10.492 5.35-2.453 11.802-1.266 17.26 3.175a.938.938 0 0 1 .054.048c2.752 2.255 5.053 5.233 6.658 8.615 4.17 8.794 2.817 18.803-3.218 23.798a13.72 13.72 0 0 1-2.97 1.861A13.793 13.793 0 0 1 91.621 106Z"/>
    <path fill="#646464" d="M102.662 80.196c4.075 8.626 2.658 18.058-2.96 22.726-4.698.599-9.996-2.282-13.607-7.407 0 0-1.206-1.852-1.973-3.414-.767-1.562-1.38-3.686-1.38-3.686-1.978-7.2.072-14.166 5.305-16.574 2.522-1.161 5.39-1.081 8.17.002l.003.005c2.58 2.11 4.833 4.945 6.441 8.349Z"/>
    <path fill="#646464" d="M91.973 71.92a8.35 8.35 0 0 0-3.518.756c-4.732 2.176-6.703 8.549-4.795 15.496.003.008.6 2.057 1.322 3.527.734 1.494 1.91 3.305 1.923 3.323 3.303 4.684 8.156 7.423 12.423 7.024 5.199-4.536 6.258-13.5 2.496-21.457-1.475-3.121-3.58-5.865-6.091-7.946-1.285-.482-2.549-.723-3.76-.723ZM98.515 104c-4.691 0-9.754-2.989-13.226-7.913-.07-.107-1.27-1.953-2.056-3.552-.797-1.622-1.42-3.76-1.445-3.85-2.164-7.876.241-15.17 5.846-17.747 2.704-1.244 5.804-1.25 8.964-.02a.99.99 0 0 1 .318.2c2.757 2.267 5.063 5.26 6.67 8.66 4.18 8.839 2.823 18.899-3.224 23.92a.973.973 0 0 1-.501.217 10.56 10.56 0 0 1-1.345.085Zm29.688-55.092c-1.54 0-3.048.289-4.47.877-3.479 1.44-6.018 4.512-7.15 8.648-1.157 4.222-.714 9.03 1.247 13.536 4.013 9.22 13.19 14.272 20.457 11.264.89-.37 1.741-.859 2.533-1.457 5.387-4.119 6.81-12.836 3.377-20.724-1.347-3.096-3.338-5.84-5.756-7.938a.89.89 0 0 1-.049-.045c-3.17-2.73-6.76-4.161-10.19-4.161ZM133.879 86c-7.004 0-14.304-5.15-17.845-13.287-2.13-4.896-2.606-10.142-1.338-14.772 1.292-4.715 4.23-8.234 8.274-9.908 5.317-2.202 11.585-.836 16.766 3.653a.98.98 0 0 1 .05.047c2.612 2.277 4.758 5.242 6.209 8.575 3.77 8.665 2.1 18.326-3.975 22.971a13.48 13.48 0 0 1-2.97 1.706A13.447 13.447 0 0 1 133.88 86Z"/>
    <path fill="#646464" d="M145.073 60.501c3.642 8.702 1.951 18.016-3.637 22.458-4.56.434-9.58-2.607-12.893-7.818 0 0-1.074-2.018-1.75-3.543-.678-1.526-1.248-3.62-1.248-3.62-1.664-7.215.554-14.06 5.693-16.271 2.477-1.067 5.245-.889 7.894.28l.002.006c2.422 2.183 4.501 5.074 5.939 8.508"/>
    <path fill="#646464" d="M129.362 73.93c3.043 4.614 7.613 7.393 11.733 7.155 5.166-4.187 6.49-12.758 3.132-20.525-1.317-3.046-3.254-5.752-5.606-7.834-2.47-1.019-4.89-1.09-7.01-.208-4.636 1.932-6.754 7.985-5.15 14.72 1.606 6.733.556 1.952 1.193 3.342.61 1.331 1.567 3.09 1.709 3.35ZM140.618 83c-4.652 0-9.626-3.08-12.904-8.071a.958.958 0 0 1-.039-.064c-.044-.081-1.102-2.008-1.788-3.505-.702-1.53-1.278-3.567-1.303-3.653-1.832-7.689.75-14.64 6.27-16.94 2.663-1.11 5.668-1.014 8.688.277.117.05.22.121.307.208 2.592 2.275 4.721 5.236 6.161 8.565 3.742 8.655 2.084 18.303-3.944 22.942a.976.976 0 0 1-.508.198c-.31.029-.625.043-.94.043ZM44.694 71.692c-1.256.711-3.013.15-4.255-1.26a2.385 2.385 0 0 1-.244-.284c-.146-.19-.293-.4-.425-.623a5.48 5.48 0 0 1-.614-1.476l-.021-.102c-.377-1.544.042-3.014 1.165-3.643 1.06-.596 2.476-.285 3.633.664a.669.669 0 0 0 .078.067c.46.38.878.867 1.22 1.436.084.15.16.298.237.447.056.115.112.237.154.352.732 1.822.39 3.69-.928 4.422Z"/>
    <path fill="#646464" d="M41.497 64.886c-.27 0-.52.059-.735.18-.72.406-1.009 1.477-.72 2.666l.027.13c.1.397.273.817.51 1.216a4.995 4.995 0 0 0 .522.727.842.842 0 0 1 .05.053c.959 1.093 2.252 1.545 3.075 1.077l.008-.004c.86-.48 1.082-1.91.516-3.328a3.062 3.062 0 0 0-.129-.298 11.239 11.239 0 0 0-.213-.404 4.72 4.72 0 0 0-.993-1.176 1.517 1.517 0 0 1-.118-.102c-.594-.481-1.24-.737-1.8-.737Zm1.995 8.113c-1.3 0-2.696-.667-3.781-1.893a3.56 3.56 0 0 1-.314-.368 7.21 7.21 0 0 1-.487-.72 6.521 6.521 0 0 1-.72-1.744l-.03-.138c-.486-2.005.154-3.86 1.637-4.697 1.403-.792 3.23-.499 4.768.769a.919.919 0 0 1 .06.054l-.021-.015.04.031a6.567 6.567 0 0 1 1.44 1.7c.104.185.186.346.269.507.08.165.149.32.201.464.93 2.323.373 4.643-1.362 5.613-.52.295-1.1.438-1.7.438Zm23.117-12.195c-.959.465-2.123.078-3.055-.895a4.33 4.33 0 0 1-.433-.5 6.36 6.36 0 0 1-.659-1.167c-.1-.243-.186-.48-.246-.722-.013-.029-.02-.065-.027-.093-.485-1.839-.02-3.635 1.205-4.228.865-.423 1.903-.15 2.775.615.074.072.154.143.227.222a5.525 5.525 0 0 1 1.138 1.724c.026.072.053.136.08.208.04.1.073.207.106.307.626 1.94.18 3.9-1.111 4.529Z"/>
    <path fill="#646464" d="M63.032 57.187c.01.027.018.055.025.084.04.161.103.34.203.581.148.334.339.666.559.968.109.141.218.267.332.377.72.738 1.52 1.01 2.109.729.839-.403 1.12-1.866.64-3.33l-.022-.065c-.02-.059-.04-.12-.063-.177l-.079-.203a4.54 4.54 0 0 0-.948-1.41 2.602 2.602 0 0 0-.136-.133l-.06-.057c-.638-.544-1.327-.722-1.847-.472-.783.374-1.092 1.698-.72 3.082l.006.026ZM65.767 62c-.985 0-2.018-.476-2.891-1.372a5.255 5.255 0 0 1-.517-.59 7.366 7.366 0 0 1-.793-1.373 6.3 6.3 0 0 1-.293-.831c-.022-.067-.035-.122-.043-.155-.637-2.371.08-4.596 1.748-5.391 1.18-.567 2.604-.286 3.806.752a.804.804 0 0 1 .037.035l.064.059a6.463 6.463 0 0 1 1.567 2.256l.082.208a5.2 5.2 0 0 1 .099.278l.022.064c.822 2.506.136 4.93-1.627 5.776h-.002a2.893 2.893 0 0 1-1.26.284h.001Zm45.573-19.11c-.987.318-2.12-.072-2.974-.932a2.799 2.799 0 0 1-.204-.205 4.532 4.532 0 0 1-.98-1.765c-.014-.053-.029-.1-.036-.152-.453-1.686.175-3.293 1.505-3.722.709-.232 1.476-.1 2.163.304.043.02.087.046.13.072.593.37 1.126.94 1.499 1.64.05.086.094.179.138.271.037.08.066.153.095.232.753 1.871.147 3.782-1.337 4.258Z"/>
    <path fill="#646464" d="M109.375 36.85a1.2 1.2 0 0 0-.383.062c-.82.27-1.201 1.462-.872 2.714.009.035.016.07.02.106l.014.043a3.1 3.1 0 0 0 .1.295c.178.455.406.838.679 1.142a2.05 2.05 0 0 0 .177.182c.601.617 1.327.886 1.893.7h.002c.39-.13.62-.445.744-.688.34-.666.334-1.59-.014-2.474a2.687 2.687 0 0 0-.079-.198c-.028-.06-.058-.13-.095-.194a.55.55 0 0 1-.02-.036c-.287-.552-.701-1.02-1.165-1.316l-.03-.018a.69.69 0 0 1-.077-.041c-.23-.139-.549-.278-.894-.278Zm1.257 7.15c-1.05 0-2.129-.475-2.99-1.352a3.77 3.77 0 0 1-.252-.26 5.531 5.531 0 0 1-1.013-1.682 4.887 4.887 0 0 1-.158-.47 2.52 2.52 0 0 1-.051-.214c-.565-2.216.334-4.252 2.149-4.85.966-.323 2.032-.188 3.004.384.06.031.121.067.18.104a5.315 5.315 0 0 1 1.83 2.024 4.647 4.647 0 0 1 .29.64c.526 1.332.505 2.75-.065 3.87a3.256 3.256 0 0 1-1.884 1.641 3.32 3.32 0 0 1-1.04.165Zm19.731-7.06c-.978.266-2.03-.37-2.695-1.51a4.969 4.969 0 0 1-.52-1.279c-.078-.3-.125-.6-.138-.894-.007-.063-.007-.126-.007-.19-.053-1.467.572-2.718 1.617-3.005.679-.188 1.39.063 1.99.608.04.035.086.077.126.12.433.44.792 1.048 1.025 1.76.027.092.047.176.073.273 0 .007.007.021.007.028.486 1.895-.18 3.726-1.477 4.09v-.001Z"/>
    <path fill="#646464" d="M129.066 30.932a.862.862 0 0 0-.23.03c-.598.162-1.002 1.03-.964 2.065 0 .066 0 .095.002.124 0 .014.004.041.004.056.01.227.048.459.11.692a4.024 4.024 0 0 0 .42 1.031c.485.816 1.18 1.256 1.74 1.109.333-.093.548-.373.67-.59.338-.608.406-1.487.18-2.353l-.005-.022-.002-.008-.028-.105a4.89 4.89 0 0 0-.037-.135c-.18-.54-.462-1.022-.809-1.37-.032-.033-.055-.052-.075-.07-.212-.188-.576-.455-.977-.455Zm.856 7.068c-1.165 0-2.328-.749-3.098-2.046a5.897 5.897 0 0 1-.64-1.55 5.223 5.223 0 0 1-.18-1.34c-.073-1.96.874-3.57 2.357-3.97.96-.264 2.015.035 2.89.819.045.039.117.104.18.169.544.545.988 1.292 1.272 2.146.03.095.046.159.063.225l.027.098.009.036.002.008c.356 1.37.223 2.762-.368 3.82-.422.757-1.065 1.287-1.81 1.492l-.006.001c-.23.062-.464.092-.697.092Zm-59.68 3.135c-.993-3.885-2.925-7.65-5.603-10.56-2.855-3.113-6.558-5.256-10.856-5.547-10.816-.695-15.595 11.652-11.099 23.013.158-.08.7-.42 2.398-1.355-3.549-9.015-.219-19.596 8.794-18.9 3.111.287 5.858 1.782 8.098 3.974 2.828 2.761 4.845 6.626 5.765 10.56 1.514 6.44.089 13.063-5.558 15.323.203.768.758 1.755 1.422 2.357 6.895-3.077 8.596-11.21 6.64-18.864h-.001Z"/>
    <path fill="#646464" d="M63.421 58.168c.118.229.26.461.42.676 5.834-3.04 6.875-10.053 5.858-15.741-1.443-8.077-7.399-16.557-15.991-17.142-3.763-.244-6.897 1.19-9.05 4.14-3.004 4.116-3.558 10.505-1.496 16.536.194-.11.422-.24.69-.39-1.948-5.612-1.404-11.799 1.43-15.623 2.034-2.747 5.108-4.112 8.655-3.836 8.31.764 13.994 9.448 15.132 17.232.956 6.54-1.197 11.858-5.648 14.147Zm.189 2.831a.973.973 0 0 1-.654-.253c-.755-.687-1.442-1.824-1.709-2.83a.968.968 0 0 1 .576-1.146c4.229-1.693 6.22-6.355 5.325-12.47-1.03-7.052-6.068-14.91-13.375-15.582-2.883-.221-5.285.836-6.932 3.058-2.586 3.491-2.942 9.342-.887 14.56a.968.968 0 0 1-.434 1.202c-1.117.615-1.73.972-2.061 1.164-.2.117-.315.182-.378.213a.973.973 0 0 1-1.336-.51C39 41.473 39.527 33.842 43.088 28.963c2.528-3.464 6.344-5.216 10.744-4.933h.004c9.587.65 16.198 9.916 17.773 18.734 1.506 8.43-1.407 15.385-7.603 18.152a.976.976 0 0 1-.396.084Z"/>
    <path fill="#646464" d="M48.288 52.973a24.568 24.568 0 0 0-2.517-6.06 2.65 2.65 0 0 0-.077-.14 25.096 25.096 0 0 0-3.51-4.66c-1.951-2.044-4.196-3.668-6.59-4.737-4.169-1.855-8.3-1.835-11.638.065-3.33 1.892-5.42 5.4-5.868 9.876-.452 4.563.846 9.587 3.672 14.043.797-.52 1.586-1.028 2.375-1.54-2.469-3.923-3.611-8.295-3.22-12.227.357-3.556 1.939-6.304 4.46-7.736 1.244-.704 2.651-1.052 4.156-1.052 1.553 0 3.208.368 4.891 1.124 1.733.768 3.38 1.884 4.872 3.283.097.093.195.18.288.28a21.534 21.534 0 0 1 3.644 4.68c.024.04.053.077.065.116 1.15 1.98 1.968 4.056 2.428 6.12.41 1.832.536 3.652.365 5.388-.195 1.92-.748 3.604-1.614 4.972a6.664 6.664 0 0 1-.41.592c-1.18 1.588-2.843 2.664-4.888 3.076l.024.104a5.732 5.732 0 0 0 1.058 2.164c.077.108.154.204.248.296 2.122-.596 3.903-1.72 5.274-3.264.17-.196.341-.392.5-.6 1.447-1.88 2.358-4.284 2.635-7.068A19.42 19.42 0 0 0 49 58.256c0-1.732-.24-3.512-.712-5.284Zm87.697-32.193c-.253 6.657-3.434 12.68-9 14.22-.41-.643-.708-1.59-.708-2.386 4.406-1.157 6.904-6.01 7.19-11.507.158-3.183-.424-6.58-1.807-9.601-.867-1.889-2.047-3.628-3.556-5.076-7.901-7.55-17.19.393-15.407 12.748-.802.178-1.612.36-2.421.558-2.266-14.851 9.886-24.323 19.553-15.077 1.973 1.884 3.454 4.153 4.467 6.6 1.265 3.041 1.806 6.354 1.688 9.52Z"/>
    <path fill="#646464" d="M127.347 33.319c.04.177.092.357.156.53 3.311-1.246 5.82-4.432 6.946-8.873 1.486-5.86.432-14.21-5.274-19.651-3.595-3.438-7.78-4.317-11.481-2.414-3.996 2.055-7.49 7.644-6.621 15.633.17-.04.345-.08.526-.12-.704-6.755 1.767-12.724 6.294-15.029 3.518-1.791 7.492-.95 10.903 2.309 5.577 5.345 6.539 13.808 5.072 19.41-1.075 4.109-3.428 7.05-6.521 8.205Zm-.346 2.68a.976.976 0 0 1-.823-.45c-.525-.82-.864-1.963-.864-2.91a.97.97 0 0 1 .726-.937c2.79-.733 4.956-3.312 5.941-7.075 1.329-5.075.475-12.724-4.538-17.527-2.773-2.65-5.93-3.371-8.66-1.98-3.316 1.688-6.192 6.647-5.143 13.92a.969.969 0 0 1-.755 1.083c-.923.203-1.688.379-2.407.554a.975.975 0 0 1-1.196-.795c-1.256-8.222 1.764-15.734 7.515-18.69 4.425-2.276 9.557-1.253 13.73 2.736 6.269 5.98 7.437 15.119 5.813 21.521-1.387 5.47-4.696 9.303-9.077 10.515A.964.964 0 0 1 127 36Z"/>
    <path fill="#646464" d="M114.613 25.197c-.664-3.534-2.187-6.98-4.406-9.692-2.24-2.747-5.2-4.748-8.715-5.338-7.09-1.201-12.257 4.241-13.299 11.375a19.1 19.1 0 0 0-.028 5.214c.837-.293 1.678-.586 2.515-.876a16.19 16.19 0 0 1 .336-5.238c1.203-5.089 4.915-8.893 10.04-7.97 2.45.414 4.584 1.684 6.32 3.476 2.44 2.514 4.098 6.057 4.738 9.68.993 5.591-.418 11.384-5.063 13.922.061.49.554 1.62 1.198 2.25 5.855-3.069 7.632-10.107 6.364-16.803Z"/>
    <path fill="#FFF" d="M120.209 177.766c-3.126 5.882-11.632 18.538-29.495 24.923-23.704 8.5-37.729-.057-42.727-17.758-2.232-7.845-2.493-16.806-1.236-23.291 1.125-6.017 4.052-10.855 5.986-12.64 1.605 5.16 3.54 11.504 5.413 18.619 0 0 .004.004.004.008 1.263 4.712 1.06 4.05 1.168 5.057.431 4.342 1.755 9.2 4.285 12.774 2.905 4.104 7.13 5.679 12.904 4.818 12.391-1.839 26.098-7.817 31.962-18.874 1.737-3.276 5.774-4.51 9.008-2.76 3.246 1.757 4.465 5.84 2.728 9.124Z"/>
    <path fill="#646464" d="M58 167c-2.055-5.312-8.546-7.274-11-5.78 1.086-5.817 3.91-10.495 5.777-12.22 1.741 5.612 3.336 10.816 5.223 18"/>
    <path fill="#646464" d="M49.045 159.807c.948 0 1.998.183 3.071.552a11.72 11.72 0 0 1 3.731 2.109c-1.17-4.188-2.268-7.797-3.47-11.665-1.403 1.825-3.179 5.043-4.18 9.057.271-.036.555-.053.848-.053ZM58.063 168a.936.936 0 0 1-.871-.6c-.93-2.388-3.052-4.353-5.68-5.254-1.649-.567-3.256-.606-4.094-.097a.93.93 0 0 1-1.017-.035.948.948 0 0 1-.385-.95c1.07-5.697 3.895-10.76 6.133-12.818a.93.93 0 0 1 1.524.415c1.853 5.94 3.42 11.048 5.295 18.152a.946.946 0 0 1-.904 1.187Z"/>
    <path fill="#646464" d="M52.307 150.87c-.917 1.192-1.87 2.858-2.847 4.977-4.202 9.113-3.314 28.524 4.09 38.96 5.617 7.916 14.413 11.43 24.768 9.9 18.28-2.729 33.255-12.734 41.082-27.447a5.782 5.782 0 0 0 .433-4.391 5.713 5.713 0 0 0-2.768-3.413c-2.77-1.497-6.233-.438-7.72 2.359-1.96 3.695-10.114 16.014-32.69 19.366-6.174.915-10.7-.788-13.838-5.211-2.465-3.491-4.117-8.61-4.54-14.057-1.777-6.974-3.637-13.532-5.97-21.044ZM73.639 207c-8.948 0-16.517-3.83-21.65-11.063-7.896-11.13-8.779-31.13-4.27-40.909 1.49-3.228 2.913-5.444 4.354-6.774a.954.954 0 0 1 1.562.422c2.592 8.26 4.604 15.302 6.523 22.835a.962.962 0 0 1 .027.169c.386 5.137 1.915 9.934 4.193 13.162 2.679 3.774 6.604 5.22 11.997 4.42 21.69-3.22 29.425-14.87 31.279-18.364 1.986-3.74 6.614-5.152 10.316-3.153a7.638 7.638 0 0 1 3.7 4.563 7.728 7.728 0 0 1-.578 5.868v.001c-8.118 15.26-23.606 25.628-42.495 28.448-1.693.25-3.349.375-4.96.375h.002Z"/>
    <path fill="#CACACA" d="M128 125.722c-7.984 8.433-20.975 11.456-32 7.664 2.04-6.918 13.42-11.706 18.67-8.188.76-3.753 10.078-4.938 13.33.524Z"/>
    <path fill="#646464" d="M97.255 132.952c10.336 2.931 21.97.312 29.498-6.657-1.82-2.157-5.064-2.728-7.645-2.297-1.874.311-3.272 1.158-3.478 2.106a.946.946 0 0 1-.58.672 1.016 1.016 0 0 1-.909-.08c-2.02-1.258-5.327-1.278-8.848-.051-3.756 1.31-6.798 3.722-8.038 6.308Zm8.597 3.048c-3.433 0-6.881-.511-10.185-1.569-.501-.16-.778-.673-.625-1.157 1.109-3.497 4.781-6.71 9.584-8.384 3.585-1.25 7.065-1.336 9.575-.278.807-1.2 2.448-2.102 4.572-2.455 3.455-.573 7.912.365 10.083 3.758a.903.903 0 0 1-.133 1.138c-5.88 5.781-14.327 8.947-22.871 8.947Z"/>
    <path fill="#FFF" d="M69 101.549c12.662-4.461 23.595 1.227 27.935 10.5 3.859 8.242 2.28 19.593-4.487 24.951"/>
    <path fill="#FFF" d="M67.036 133.58c-13.027-8.772-9.563-29.29 5.682-32.884 11.488-2.71 21.173 2.79 25.204 11.343 7.001 14.845-3.785 39.789-30.885 21.541Z"/>
    <path fill="#646464" d="M92.47 138a.95.95 0 0 1-.756-.375.983.983 0 0 1 .168-1.366c6.186-4.888 8.08-15.556 4.222-23.782-3.77-8.037-13.775-14.595-26.833-10.005a.954.954 0 0 1-1.218-.6.976.976 0 0 1 .592-1.238c14.17-4.982 25.064 2.213 29.189 11.006 4.223 9.004 2.08 20.737-4.776 26.155a.946.946 0 0 1-.587.205Zm25.498-7c-.368 0-.723-.193-.91-.533-.56-1.02-2.72-3.142-3.509-3.553a1.008 1.008 0 0 1-.429-1.374 1.042 1.042 0 0 1 1.397-.422c1.2.626 3.644 3.083 4.359 4.383.27.493.084 1.11-.418 1.377a1.044 1.044 0 0 1-.49.122Z"/>
    <path fill="#FFF" d="M140.422 60.125c1.409-.545 3.257.747 4.129 2.888.871 2.14.436 4.317-.973 4.862-1.409.545-3.257-.747-4.129-2.888-.871-2.14-.436-4.317.973-4.862m-43 20c1.409-.545 3.257.747 4.129 2.888.871 2.14.436 4.317-.973 4.862-1.409.545-3.257-.747-4.129-2.888-.871-2.14-.436-4.317.973-4.862"/>
    <path fill="#646464" d="M153.157 125c-.728 0-1.437-.174-2.028-.525-1.163-.69-1.803-1.976-1.803-3.624 0-.538.43-.975.962-.975a.97.97 0 0 1 .962.975c0 .953.286 1.606.851 1.942.72.427 1.756.275 2.407-.095 2.066-1.175 2.813-2.524 2.498-4.507-.158-1.003-.85-1.75-1.806-1.947-1.303-.269-2.677.533-3.678 2.146a.956.956 0 0 1-1.08.417.974.974 0 0 1-.696-.936c0-.025-.01-2.598-.703-4.868a.987.987 0 0 1 .042-.688c.816-1.84 2.743-2.31 4.29-2.69.884-.215 1.885-.46 1.965-.849a.961.961 0 0 1 1.138-.755c.52.11.854.627.745 1.154-.33 1.596-1.959 1.994-3.396 2.346-1.128.276-2.29.56-2.828 1.314.249.913.405 1.833.503 2.633 1.224-1.014 2.654-1.43 4.081-1.135 1.734.358 3.038 1.75 3.323 3.548.445 2.809-.686 4.94-3.456 6.517a4.68 4.68 0 0 1-2.293.602Zm6.06 18a.998.998 0 0 1-.984-.804c-.7-3.676-.363-8.451.914-13.442-.82.523-1.592.908-2.28 1.25-1.28.638-2.29 1.142-3.046 2.192-.319.445-.944.55-1.397.237a.972.972 0 0 1-.24-1.37c1.041-1.45 2.37-2.112 3.776-2.813 1.37-.682 2.786-1.388 4.315-2.948.324-.33.836-.398 1.237-.162.4.235.583.71.44 1.146-1.895 5.768-2.532 11.436-1.749 15.55a.985.985 0 0 1-.8 1.147 1.027 1.027 0 0 1-.186.017Z"/>
    <path fill="#646464" d="M155.99 137c-.122 0-.246-.021-.366-.066-.508-.19-.756-.728-.553-1.202.617-1.445 2.203-2.054 3.478-2.544.698-.268 1.42-.545 1.704-.86a1.04 1.04 0 0 1 1.396-.11c.418.33.47.913.117 1.303-.597.66-1.546 1.024-2.464 1.377-1.025.394-2.086.802-2.393 1.52-.154.362-.526.582-.92.582h.001ZM40.422 69.139a5.078 5.078 0 0 0 .443.788 9.797 9.797 0 0 0 4.645-3.323c1.374-1.784 2.197-4.004 2.456-6.613.058-.616.087-1.18.087-1.72 0-3.617-1.075-7.385-3.108-10.897a1.061 1.061 0 0 1-.038-.072l-.04-.067c-2.405-4.104-5.84-7.308-9.672-9.02-3.882-1.732-7.707-1.725-10.768.02-3.063 1.742-4.979 4.996-5.395 9.164-.41 4.113.661 8.563 3.023 12.628l.751-.487c-2.247-3.903-3.268-8.15-2.88-12.055.387-3.879 2.144-6.893 4.949-8.488 1.384-.787 2.948-1.186 4.647-1.186 1.725 0 3.51.409 5.305 1.214 1.823.809 3.556 1.977 5.147 3.469a22.74 22.74 0 0 1 4.138 5.233c.012.017.04.062.07.124 2.246 3.88 3.273 8.158 2.89 12.051-.206 2.066-.797 3.882-1.757 5.4-.17.271-.32.487-.47.677a8.81 8.81 0 0 1-4.423 3.16Zm.09 2.861a.982.982 0 0 1-.688-.28 3.512 3.512 0 0 1-.345-.405 7.353 7.353 0 0 1-.493-.733 6.677 6.677 0 0 1-.728-1.779l-.03-.14a.959.959 0 0 1 .759-1.13c1.764-.356 3.252-1.291 4.303-2.707.124-.158.236-.32.37-.534.802-1.269 1.298-2.807 1.474-4.575.345-3.517-.603-7.41-2.67-10.962a.92.92 0 0 1-.041-.077 20.815 20.815 0 0 0-3.79-4.794c-1.434-1.345-2.984-2.391-4.61-3.113-2.989-1.342-5.932-1.388-8.175-.114-2.245 1.277-3.66 3.768-3.985 7.015-.372 3.758.722 7.9 3.082 11.663a.949.949 0 0 1-.293 1.304c-.79.51-1.578 1.022-2.374 1.54a.982.982 0 0 1-1.363-.293c-2.943-4.644-4.3-9.856-3.82-14.674.479-4.8 2.737-8.578 6.357-10.637 3.62-2.062 8.076-2.1 12.547-.106 4.2 1.877 7.949 5.36 10.556 9.811.042.07.074.125.1.177C48.843 50.248 50 54.332 50 58.27c0 .6-.032 1.223-.097 1.904-.294 2.97-1.247 5.518-2.832 7.575-.165.222-.347.43-.523.633-1.547 1.743-3.482 2.941-5.77 3.582a1.002 1.002 0 0 1-.266.036Zm67.969-31.787c.076.177.171.375.281.564 4.96-3.206 5.89-9.73 5.059-14.925-1.04-6.496-5.151-13.584-11.995-14.778h-.001c-3.003-.527-5.739.31-7.914 2.422-2.797 2.717-4.275 7.21-3.98 11.937l.605-.219c-.239-4.566 1.251-8.89 3.971-11.421 2.024-1.882 4.524-2.609 7.229-2.104 6.474 1.13 10.425 7.862 11.464 14.033 1.067 6.336-.735 11.801-4.719 14.49Zm.037 2.786a.94.94 0 0 1-.67-.282c-.809-.82-1.349-2.165-1.427-2.82a.966.966 0 0 1 .479-.958c4.444-2.516 5.203-8.31 4.432-12.893-.926-5.502-4.356-11.49-9.928-12.461-2.11-.395-4.047.169-5.615 1.628-2.404 2.236-3.703 6.386-3.31 10.574a.963.963 0 0 1-.63 1c-.808.287-1.616.582-2.424.876a.936.936 0 0 1-.815-.085.964.964 0 0 1-.446-.699c-.723-5.751.977-11.412 4.437-14.774 2.59-2.514 5.98-3.553 9.547-2.927 7.765 1.354 12.398 9.196 13.545 16.366 1.241 7.764-1.336 14.408-6.727 17.342a.933.933 0 0 1-.447.114v-.001Z"/>
    <path fill="#FFF" d="M132.55 153.71c1.447 1.364 2.041 2.29 2.847 4.397l.008.009c5.545 4.418 2.738 16.926-1.757 22.69-5.936 7.618-15.714 13.562-24.754 10.262l-7.677-5.921c-3.433-4.96-4.397-12.838.187-21.74 2.29-4.435.39-8.305-1.79-10.336-2.485-2.319-6.106-5.316-3.962-8.536.232-.35.504-.67.81-.967 2.485-2.404 7.18-2.98 10.503-.723 4.3 2.92 7.579 7.64 8.84 13.114 18.64-33.504 36.751-23.483 25.954-12.598-2.187 2.21-7.478 7.776-9.21 10.348Z"/>
    <path fill="#646464" d="M117.891 192a.852.852 0 0 1-.617-.272 1.038 1.038 0 0 1-.239-.974c.093-.347.353-.61.677-.682.06-.013.12-.026.18-.042.467-.129.942.17 1.074.675.132.505-.127 1.032-.585 1.192a2.632 2.632 0 0 1-.32.085.826.826 0 0 1-.17.018Zm-3.959-31a.937.937 0 0 1-.836-1.348 90.711 90.711 0 0 1 5.188-9.224.931.931 0 0 1 1.29-.278c.432.28.556.86.276 1.294a88.859 88.859 0 0 0-5.08 9.032.932.932 0 0 1-.838.524Zm11 5a.903.903 0 0 1-.41-.098.974.974 0 0 1-.427-1.285c2.19-4.61 4.624-8.728 7.232-12.24a.915.915 0 0 1 1.307-.18.98.98 0 0 1 .174 1.347c-2.533 3.411-4.902 7.42-7.038 11.917a.93.93 0 0 1-.838.539Z"/>
    <path fill="#FFF" d="m132.003 152.995-.005.01-.001-.001.006-.009Z"/>
    <path fill="#646464" d="M131.99 154a.992.992 0 0 1-.71-.3.983.983 0 0 1-.07-1.293.992.992 0 0 1 1.31-.267.977.977 0 0 1 .357 1.316l-.02.037a.99.99 0 0 1-.866.507Z"/>
    <path fill="#646464" d="M114.202 192c-1.94 0-3.84-.317-5.654-.97a.952.952 0 0 1-.58-1.227.98.98 0 0 1 1.25-.569c7.52 2.708 16.812-1.137 23.671-9.796 4.246-5.356 6.848-17.146 1.92-21.01a.958.958 0 0 1-.09-.08.834.834 0 0 1-.22-.335c-.76-1.957-1.272-2.737-2.61-3.977a.944.944 0 0 1-.141-1.225c1.8-2.652 7.485-8.495 9.335-10.333 2.378-2.359 3.441-4.91 2.775-6.658-.42-1.105-1.505-1.777-3.054-1.89-5.165-.383-14.588 5.179-24.153 22.091a.979.979 0 0 1-.987.483.967.967 0 0 1-.813-.733c-1.18-5.043-4.259-9.54-8.446-12.338-3.039-2.032-7.255-1.326-9.287.608a4.884 4.884 0 0 0-.676.793c-1.44 2.128.566 4.223 3.337 6.742l.481.439c2.589 2.372 4.472 6.59 1.992 11.315-3.906 7.464-4 15.1-.252 20.428a.946.946 0 0 1-.247 1.33.984.984 0 0 1-1.354-.243c-4.164-5.918-4.118-14.287.122-22.39 1.983-3.777.479-7.147-1.59-9.043l-.475-.433c-2.432-2.21-6.107-5.55-3.637-9.202.261-.387.578-.76.942-1.108 2.95-2.807 8.215-3.173 11.74-.817 3.956 2.644 7.008 6.666 8.6 11.256 9.61-16.136 19.067-21.512 24.849-21.085 2.315.17 4.04 1.31 4.732 3.127.948 2.493-.253 5.735-3.215 8.673-2.095 2.081-6.669 6.833-8.635 9.41 1.097 1.117 1.69 2.095 2.393 3.865 5.775 4.865 2.94 17.536-1.8 23.515C128.645 187.91 121.17 192 114.202 192Z"/>
    <path fill="#646464" d="M131.915 171a.881.881 0 0 1-.485-.147.985.985 0 0 1-.29-1.32c1.713-2.863 3.693-8.5 2.806-11.23a1.116 1.116 0 0 1-.06-.344c0-.53.41-.959.915-.959.41 0 .758.282.874.671 1.264 3.854-1.462 10.339-2.983 12.88a.905.905 0 0 1-.777.449Z"/>
  </g>
</svg>
