<svg xmlns="http://www.w3.org/2000/svg" xmlns:xlink="http://www.w3.org/1999/xlink" viewBox="0 0 256 256">
  <defs>
    <path id="a" d="M0 0h49.414v61.891H0z"/>
    <path id="c" d="M0 0h48.693v54.535H0z"/>
  </defs>
  <g fill="none" fill-rule="evenodd">
    <path fill="#FFF" d="M67.803 114.803c-10.15 8.46-19.41 13.66-27.521 15.452C20.61 134.65 8.16 118.234 15.554 90.678c3.98-14.831 13.036-30.188 25.499-43.236a5.453 5.453 0 0 1 7.685-.187 5.409 5.409 0 0 1 .188 7.662C38.75 65.568 29.886 79.21 26.056 93.48c-2.882 10.732-2.23 19.997 1.694 24.17 2.998 3.187 8.305 3.236 15.055.441.003-.003.007-.003.01-.007a12.3 12.3 0 0 0 .606-.256l.013-.003c5.13-2.227 11.05-6.05 17.398-11.337a5.448 5.448 0 0 1 7.656.683 5.402 5.402 0 0 1-.685 7.633Z"/>
    <path fill="#646464" d="M44.907 46.55c-1.214 0-2.374.485-3.283 1.435-14.215 14.883-23.676 32.24-26.64 48.873-2.214 12.675.053 22.817 6.383 28.555 5.046 4.574 12.198 5.9 20.14 3.732 7.654-2.031 16.33-7.06 25.79-14.946a4.591 4.591 0 0 0 1.65-3.14 4.588 4.588 0 0 0-1.065-3.383 4.661 4.661 0 0 0-6.544-.585c-6.355 5.293-12.272 9.147-17.589 11.455a13.742 13.742 0 0 1-.641.271c-7.223 2.99-12.733 2.773-15.934-.628-4.112-4.375-4.832-13.922-1.88-24.914 3.552-13.237 11.742-27.052 23.06-38.901 1.431-1.5 1.684-3.676.642-5.545-.435-.742-.91-1.11-1.223-1.354a6.622 6.622 0 0 1-.123-.096c-.889-.556-1.831-.83-2.743-.83Zm-10.616 85.189c-5.406 0-10.223-1.75-13.987-5.161-6.744-6.114-9.186-16.765-6.875-29.992 3.018-16.938 12.625-34.582 27.052-49.687 2.115-2.21 5.352-2.54 8.056-.824a.747.747 0 0 1 .08.058c.035.03.078.063.126.1.359.279 1.028.798 1.625 1.816 1.392 2.5 1.047 5.402-.87 7.41-11.14 11.662-19.194 25.237-22.68 38.224-2.812 10.47-2.234 19.448 1.508 23.43 3.414 3.628 9.56 2.155 14.131.27a.788.788 0 0 1 .069-.031c.192-.076.382-.156.57-.241a.745.745 0 0 1 .063-.026c5.096-2.219 11.031-6.091 17.166-11.201 2.634-2.194 6.568-1.843 8.768.782a6.148 6.148 0 0 1 1.425 4.534 6.155 6.155 0 0 1-2.21 4.208c-9.638 8.034-18.518 13.167-26.391 15.256-2.633.719-5.19 1.075-7.627 1.075h.001Z"/>
    <path fill="#646464" d="M67.803 114.803c-10.15 8.46-19.41 13.66-27.521 15.452-.765.17-1.529.309-2.287.417 7.169-1.52 10.556-14.575 5.44-12.847 5.128-2.227 11.048-6.05 17.397-11.337a5.448 5.448 0 0 1 7.656.683 5.402 5.402 0 0 1-.685 7.632Z"/>
    <path fill="#646464" d="M45.896 117.547c.89.941 1.032 2.774.385 5.06-.597 2.107-1.846 4.441-3.588 6.203 7.358-2.218 15.62-7.122 24.604-14.61v-.001a4.592 4.592 0 0 0 1.65-3.14 4.588 4.588 0 0 0-1.064-3.383 4.661 4.661 0 0 0-6.545-.585c-5.512 4.592-10.695 8.1-15.442 10.456Zm-7.901 13.912a.788.788 0 0 1-.163-1.557c3.467-.735 6.022-4.519 6.93-7.723.542-1.918.36-3.198-.038-3.575-.198-.188-.547-.2-1.036-.034a.786.786 0 0 1-.568-1.467c5.105-2.216 11.055-6.096 17.206-11.22 2.634-2.193 6.568-1.842 8.768.783a6.148 6.148 0 0 1 1.425 4.534 6.154 6.154 0 0 1-2.21 4.208c-10.247 8.54-19.62 13.795-27.856 15.616-.761.17-1.55.314-2.345.428a.815.815 0 0 1-.113.008Z"/>
    <path fill="#FFF" d="M51.748 62.8c-4.101 1.355-9.36 1.99-13.339.172-11.78 2.748-18.323-4.584-17.625-16.786.775-13.55 1.648-14.744-.95-28.392-.433-2.268-.973-4.497-.37-6.771.972-3.658 4.69-4.562 7.122-3.378.235-1.502 1.073-3.013 2.897-3.556 8.658-2.58 12.887 12.09 14.014 21.048 6.973-3.685 15.566-.69 19.814 4.297 2.334 2.738 4.23 8.426 1.471 10.683-1.408 1.146-3.622.919-7.608-2.68-9.348-8.444-9.322 9.993-4.547 10.912 3.37.645 3.385-5.794 7.905-7.007 10.373-2.791 8.97 15.584-8.784 21.457Z"/>
    <path fill="#FFF" d="M59.833 58.564c-5.794 4.503-15.355 7.198-21.424 4.408a21.973 21.973 0 0 1-3.266.518 16.744 16.744 0 0 1-3.067-.03c-5.92-.627-9.853-4.668-11.001-11.329 2.53 8.246 10.57 10.733 18.422 6.947 2.516 3.6 10.637 6.125 20.312-.54a.16.16 0 0 0 .024.026Z"/>
    <path fill="#646464" d="M35.25 36.895h-.03a.788.788 0 0 1-.76-.816c.348-9.268-2.34-24.072-8.29-27.765a.786.786 0 0 1-.252-1.084.791.791 0 0 1 1.087-.252c7.477 4.64 9.315 21.649 9.033 29.159a.789.789 0 0 1-.788.758Zm8.89-3.244a.788.788 0 0 1-.788-.751c-.184-3.97-.342-5.337-.816-9.058a.79.79 0 0 1 1.567-.198c.48 3.769.64 5.153.826 9.183a.788.788 0 0 1-.789.824Z"/>
    <path fill="#646464" d="M39.223 57.462a.788.788 0 0 1-.787-.861c.365-3.836 2.432-7.055 5.672-8.831a.79.79 0 0 1 1.068.323.786.786 0 0 1-.307 1.056c-2.775 1.521-4.547 4.291-4.861 7.6a.789.789 0 0 1-.786.713h.001Zm15.257-5.526a.788.788 0 0 1-.789-.755c-.033-.812.012-2.926 1.147-5.012a.79.79 0 0 1 1.07-.317.786.786 0 0 1 .318 1.067c-.947 1.742-.985 3.516-.957 4.198.018.434-.32.8-.756.818l-.033.001Zm-22.033-13.92a.788.788 0 0 1-.374-1.481c.77-.412 1.759-.809 2.94-1.178a29.792 29.792 0 0 1 5.638-1.17v.002a.787.787 0 1 1 .157 1.565 28.16 28.16 0 0 0-5.325 1.105c-1.069.335-1.99.703-2.664 1.063a.787.787 0 0 1-.372.093Z"/>
    <g transform="translate(18.418 3)">
      <mask id="b" fill="#fff">
        <use xlink:href="#a"/>
      </mask>
      <path fill="#646464" d="M34.503 33.016c-.302 0-.59.063-.857.206-1.422.764-2.148 3.864-1.653 7.057.368 2.37 1.317 4.096 2.362 4.293 1.034.2 1.585-.541 2.686-2.41.994-1.689 2.225-3.778 4.675-4.523-1.26-.697-2.47-1.698-3.488-2.617-1.081-.976-2.51-2.006-3.725-2.006Zm-8.75 28.875c-2.19 0-4.276-.37-6.09-1.203a.786.786 0 0 1-.387-1.045.79.79 0 0 1 1.047-.385c5.923 2.721 15.129-.056 20.608-4.314 6.006-4.675 7.985-11.038 6.374-14.253-.835-1.665-2.605-2.229-4.984-1.588-1.956.524-2.954 2.218-3.918 3.855-1.04 1.766-2.115 3.592-4.346 3.16-1.776-.335-3.132-2.428-3.624-5.598-.508-3.272.046-7.386 2.464-8.684 1.73-.928 3.88-.25 6.39 2.02 4.663 4.209 6.105 3.037 6.578 2.652.609-.497.965-1.259 1.056-2.262.224-2.475-1.188-5.611-2.631-7.305-4.063-4.767-12.222-7.607-18.84-4.107a.79.79 0 0 1-1.154-.594c-.942-7.252-3.666-16.771-8.24-19.733-1.484-.96-3.043-1.178-4.765-.665-1.726.515-2.207 2.052-2.341 2.922a.79.79 0 0 1-1.129.587 4.276 4.276 0 0 0-3.612-.04C3.02 5.85 2.17 6.884 1.813 8.225c-.511 1.917-.117 3.934.48 6.985.867 4.427 2.053 10.487 1.342 20.68-.002.801-.093 1.83-.198 3.02-.363 4.096-.911 10.285 1.576 14.916.01.016.02.032.028.049 1.79 3.474 5.037 5.55 9.145 5.847a.788.788 0 1 1-.114 1.57c-4.667-.337-8.366-2.704-10.42-6.667a.534.534 0 0 1-.015-.027C.91 49.549 1.484 43.064 1.864 38.772c.103-1.166.192-2.173.192-2.908 0-.018 0-.037.002-.055.7-10.002-.464-15.952-1.314-20.296-.616-3.149-1.061-5.423-.457-7.69.48-1.805 1.641-3.206 3.267-3.945a5.813 5.813 0 0 1 4.053-.293C8.12 1.968 9.261.805 10.84.335c2.163-.645 4.207-.357 6.076.852 4.797 3.106 7.651 12.052 8.798 19.774 7.122-3.103 15.515-.043 19.78 4.961 1.693 1.987 3.266 5.532 3 8.466-.129 1.42-.692 2.574-1.629 3.34a3.948 3.948 0 0 1-.175.134c.859.455 1.548 1.169 2.028 2.126 1.93 3.851-.09 10.963-6.815 16.198-4.211 3.272-10.527 5.705-16.149 5.705Z" mask="url(#b)"/>
    </g>
    <path fill="#FFF" d="M118.987 172.772c-4.171 2.984-45.535 6.612-67.755 53.827-2.764 5.869.887 14.299-4.99 20.44 0 0 0-.003-.004-.003 0-.003 0-.006-.003-.01-2.974-5.666-6.066-11.951-8.556-17.974 10.741-31.57 38.136-57.256 76.584-66.533 6.034-1.467 9.94 6.524 4.724 10.253Z"/>
    <path fill="#646464" d="M38.522 229.025c2.058 4.947 4.642 10.399 7.883 16.624 2.579-3.287 2.68-7.222 2.778-11.038.077-2.998.15-5.83 1.334-8.347 18.788-39.92 51.51-49.24 63.83-52.749 2.002-.57 3.732-1.063 4.18-1.383 2.45-1.752 2.407-4.355 1.625-6.051-.863-1.873-2.96-3.465-5.702-2.798-36.433 8.79-64.794 33.356-75.928 65.742Zm7.72 18.801a.793.793 0 0 1-.726-.472c-3.565-6.793-6.367-12.682-8.567-18.002a.787.787 0 0 1-.017-.553c5.384-15.827 15.027-30.262 27.886-41.744 13.468-12.027 30.502-20.776 49.26-25.302 3.614-.878 6.375 1.21 7.51 3.67 1.113 2.418.884 5.826-2.14 7.988-.67.48-2.175.908-4.667 1.618-12.13 3.454-44.351 12.631-62.834 51.904-1.044 2.218-1.113 4.89-1.185 7.719-.109 4.24-.232 9.046-3.949 12.93a.791.791 0 0 1-.571.244Z"/>
    <path fill="#646464" d="M116.99 173.685c-7.576 1.839-14.715 4.387-21.343 7.57 4.49-2.49-8.704-8.507-15.602-4.605 10.36-6.404 21.924-11.146 34.218-14.132 3.093-.752 6.213 1.14 6.964 4.224.755 3.084-1.143 6.19-4.236 6.942Z"/>
    <path fill="#646464" d="M85.568 174.59c3.554 0 7.159 1.123 9.262 2.363 1.426.841 2.27 1.752 2.471 2.66 6.156-2.795 12.705-5.043 19.503-6.693a4.946 4.946 0 0 0 3.074-2.241 4.91 4.91 0 0 0 .582-3.75 4.923 4.923 0 0 0-2.246-3.064 4.954 4.954 0 0 0-3.764-.582c-10.49 2.547-20.331 6.345-29.332 11.314.15-.004.3-.006.45-.006Zm10.08 7.452a.788.788 0 0 1-.385-1.475c.188-.104.503-.311.506-.528.003-.259-.36-.915-1.743-1.73-3.144-1.854-9.616-3.223-13.592-.974a.79.79 0 0 1-1.076-.298.786.786 0 0 1 .27-1.056c10.367-6.407 21.956-11.194 34.448-14.227a6.526 6.526 0 0 1 4.959.766 6.485 6.485 0 0 1 2.96 4.036 6.47 6.47 0 0 1-.769 4.94 6.513 6.513 0 0 1-4.048 2.953c-7.431 1.804-14.56 4.332-21.189 7.515a.789.789 0 0 1-.342.078Z"/>
    <path fill="#FFF" d="M48.672 236.69c-.052 1.055-1.653 2.369-3.758 2.326-1.265-.026-2.461-.581-3.38-1.452-16.43-15.606-34.987-32.818-38.808-36.358l-.003-.003a16.686 16.686 0 0 1 2.257-2.746c.115-.112.227-.223.342-.328.109-.102.218-.197.323-.293.013-.01.026-.023.04-.032.082-.073.168-.145.25-.214.164-.135.331-.266.501-.394.076-.059.152-.118.23-.174.047-.033.096-.07.145-.102.102-.072.205-.141.307-.21 13.296-8.818 35.035 11.366 41.278 29.58.64 4.204.405 7.988.277 10.401Z"/>
    <path fill="#646464" d="M48.396 227.077a.79.79 0 0 1-.747-.532c-5.202-15.18-19.917-29.69-31.488-31.052-5.486-.645-9.886 1.578-13.077 6.607a.791.791 0 0 1-1.093.23.785.785 0 0 1-.241-1.072c3.494-5.506 8.542-8.04 14.596-7.328 6.069.714 12.935 4.65 19.334 11.084 6.07 6.103 10.977 13.765 13.464 21.022a.787.787 0 0 1-.748 1.041Z"/>
    <path fill="#CACACA" d="M21.646 243.877c-20.582-15.095-27.027-42.027-14.38-46.16 7.095-2.318 12.176 3.886 16.982 10.875 1.848 2.683 3.653 5.48 5.518 7.957 8.08 10.735 13.696 14.733 16.613 20.313 6.35 12.143-8.108 19.16-24.734 7.015Z"/>
    <g transform="translate(0 196.43)">
      <mask id="d" fill="#fff">
        <use xlink:href="#c"/>
      </mask>
      <path fill="#646464" d="M22.112 46.813c9.589 7.003 18.037 7.326 22.157 4.539 2.488-1.683 3.387-4.418 2.532-7.704a13.44 13.44 0 0 0-1.122-2.852c-1.494-2.856-3.69-5.255-6.73-8.576-2.664-2.91-5.98-6.532-9.815-11.627-1.31-1.741-2.61-3.667-3.868-5.529-.552-.821-1.109-1.64-1.669-2.456C18.913 5.798 14.158-.135 7.511 2.037c-5.61 1.833-6.101 8.06-5.895 11.607.53 9.124 7.17 23.395 20.496 33.169Zm15.992 7.722c-4.685 0-10.61-1.84-16.925-6.453h-.001C7.364 37.951.608 23.531.04 13.734-.356 6.929 2.188 2.119 7.02.54 14.7-1.969 20.064 4.686 24.9 11.717a320.2 320.2 0 0 1 1.676 2.467c1.247 1.846 2.535 3.754 3.822 5.463 3.79 5.035 7.077 8.626 9.718 11.511 3.003 3.28 5.374 5.872 6.964 8.91.564 1.082.985 2.154 1.25 3.187 1.02 3.918-.137 7.344-3.174 9.399-1.746 1.181-4.163 1.88-7.052 1.88v.001Z" mask="url(#d)"/>
    </g>
    <path fill="#FFF" d="M254.514 175.408c-2.806 13.514-14.346 21.1-26.298 17.209a23.71 23.71 0 0 1-4.56-2.072c-4.065-2.378-7.913-6.083-11.112-10.874-6.048-9.058-9.77-21.988-8.239-37.108a5.266 5.266 0 0 1 5.775-4.7c2.896.29 5.007 2.867 4.714 5.754-.83 8.19.221 15.544 2.333 21.616 2.3 6.624 5.86 11.728 9.616 14.726 3.011 2.407 6.006 3.363 8.658 3.084 8.259-.874 13.233-13.695 5.284-31.833-1.756-4.007-4.049-8.014-6.823-11.938-.003-.003-.006-.01-.01-.013a80.75 80.75 0 0 0-3.304-4.358c-3.199-3.955-6.878-7.797-10.983-11.446a5.245 5.245 0 0 1-.425-7.419 5.278 5.278 0 0 1 7.442-.423c10.726 9.54 18.946 20.394 23.762 31.39 4.405 10.052 5.887 20.138 4.17 28.404Z"/>
    <path fill="#646464" d="M220.644 187.547c6.342 5.068 13.401 6.58 19.874 4.256 6.62-2.375 11.564-8.565 13.223-16.556 1.684-8.105.22-18.023-4.12-27.927-4.773-10.893-12.921-21.654-23.563-31.12a4.46 4.46 0 0 0-3.239-1.127 4.458 4.458 0 0 0-3.089 1.486 4.43 4.43 0 0 0-1.13 3.229 4.432 4.432 0 0 0 1.49 3.079c9.686 8.615 17.058 18.307 21.318 28.03 6.823 15.568 4.262 26.823-1.302 31.07-3.88 2.961-9.06 2.44-13.857-1.393-7.364-5.883-14.004-19.617-12.24-37.035a4.428 4.428 0 0 0-.988-3.275 4.455 4.455 0 0 0-3.02-1.62 4.456 4.456 0 0 0-3.285.985 4.435 4.435 0 0 0-1.625 3.012c-1.848 18.252 4.257 35.879 15.553 44.906Zm13.886 6.867c-5.046 0-10.228-1.926-14.874-5.639-11.704-9.351-18.037-27.522-16.136-46.292a5.997 5.997 0 0 1 2.198-4.073 6.03 6.03 0 0 1 4.442-1.33c1.61.161 3.06.939 4.085 2.189a5.99 5.99 0 0 1 1.335 4.428c-1.705 16.83 4.626 30.032 11.657 35.65 4.255 3.4 8.596 3.9 11.91 1.37 4.91-3.748 7.26-14.482.814-29.19-4.17-9.516-11.404-19.02-20.922-27.485a5.993 5.993 0 0 1-2.015-4.165 5.99 5.99 0 0 1 1.528-4.366 6.027 6.027 0 0 1 4.177-2.01 6.03 6.03 0 0 1 4.38 1.525c10.81 9.615 19.096 20.564 23.96 31.663 4.47 10.2 5.968 20.455 4.22 28.877-1.772 8.532-7.094 15.156-14.236 17.718a19.25 19.25 0 0 1-6.522 1.13Z"/>
    <path fill="#646464" d="M217.127 165.233c-1.723-4.197-7.495 6.41-4.582 14.438-6.049-9.058-9.772-21.988-8.24-37.108a5.266 5.266 0 0 1 5.775-4.7c2.896.29 5.008 2.867 4.715 5.754-.83 8.19.22 15.544 2.332 21.616Z"/>
    <path fill="#646464" d="M209.537 138.623a4.446 4.446 0 0 0-2.817 1.004 4.44 4.44 0 0 0-1.63 3.016c-1.217 12.016.855 23.5 5.857 32.83-.243-5.635 2.338-11.033 4.455-11.846.112-.043.229-.076.347-.098-1.84-6.2-2.442-13.065-1.74-19.99a4.426 4.426 0 0 0-.988-3.276 4.45 4.45 0 0 0-3.02-1.616 4.57 4.57 0 0 0-.464-.024Zm3.008 41.835a.79.79 0 0 1-.658-.351c-6.82-10.212-9.79-23.574-8.368-37.623a6 6 0 0 1 2.203-4.077 6.022 6.022 0 0 1 4.439-1.326c1.6.156 3.07.943 4.083 2.187a5.985 5.985 0 0 1 1.335 4.429c-.753 7.439.04 14.797 2.294 21.279a.79.79 0 0 1-1.477.556c-.213-.519-.347-.466-.427-.436-1.643.631-4.96 8.03-2.683 14.307a.786.786 0 0 1-.742 1.055Z"/>
    <path fill="#FFF" d="M152.582 250.16c11.413.225 31.476.634 31.062-20.165-.205-10.26-2.511-17.56-5.795-22.46-3.155-4.716-7.98-8.11-13.607-8.18-4.495-.059-8.108 1.225-10.463 4.63-.814 1.179-1.479 2.611-1.976 4.33-.41 1.423-.71 3.042-.887 4.873a42.769 42.769 0 0 0-.16 2.535 97.876 97.876 0 0 0 .003 3.654c.122 7.865.783 10.06-5.11 13.645-2.153 1.315-3.652 2.972-4.494 4.74-2.62 5.41.978 12.193 11.427 12.397Z"/>
    <path fill="#646464" d="M156.744 217.663c-1.687 1.747-4.826 3.835-6.21 9.862v-.017c.6-2.502.119-5.881.22-11.786a42.02 42.02 0 0 1 .077-1.498c1.89 1.009 4.009 2.33 5.913 3.439Z"/>
    <path fill="#646464" d="m151.552 215.52-.008.227c-.038 2.203.005 4.037.044 5.655l.024 1.047c1.214-2.156 2.635-3.494 3.712-4.508l.131-.123c-.331-.196-.666-.396-1.003-.598-.964-.574-1.951-1.163-2.9-1.7Zm-1.017 12.792a.788.788 0 0 1-.79-.787.94.94 0 0 1 .021-.2c.35-1.457.305-3.315.244-5.885-.04-1.634-.084-3.485-.045-5.732.016-.507.042-1.006.078-1.537a.789.789 0 0 1 1.16-.64c1.3.693 2.703 1.53 4.06 2.34.625.374 1.251.745 1.88 1.112a.786.786 0 0 1 .17 1.225c-.275.285-.58.573-.904.878-1.684 1.585-3.99 3.755-5.105 8.614a.789.789 0 0 1-.769.612Z"/>
    <path fill="#FFF" d="M166.967 175.12c-.198.085-.399.17-.594.256-9.088 3.9-19.752 9.252-28.387 16.362-26.281 21.716-1.818 33.963 15.309 13.005 1.98 1.557 8.747 7.5 8.747 7.5-27.534 33.165-66.748 4.562-35.985-25.225 8.167-8.115 20.409-15.675 36.383-22.47a5.768 5.768 0 0 1 7.564 3.031 5.736 5.736 0 0 1-3.037 7.54v.001Z"/>
    <path fill="#646464" d="M166.967 175.12c-.198.085-.399.17-.594.256-9.782 4.197-20.236 9.65-28.387 16.362h-.003c2.306-2.999-8.157-7.692-12.216-4.388l-.04-.003c10.007-9.96 23.783-17.299 36.713-22.799a5.768 5.768 0 0 1 7.564 3.031 5.736 5.736 0 0 1-3.037 7.54v.001Z"/>
    <path fill="#646464" d="M150.818 222.992a.788.788 0 0 1-.415-1.457c3.939-2.426 7.65-5.721 11.03-9.793a.791.791 0 0 1 1.115-.074c.315.275.36.748.102 1.078-3.49 4.204-7.332 7.611-11.417 10.128a.788.788 0 0 1-.415.118Zm-21.24-37.547c3.107 0 6.588 1.36 8.335 3.048.494.477.835.978 1.02 1.475 6.935-5.414 16.05-10.562 27.128-15.315.128-.057.266-.116.404-.175l.188-.08.004-.002a4.928 4.928 0 0 0 2.663-2.712 4.91 4.91 0 0 0-.042-3.795 4.936 4.936 0 0 0-2.72-2.658 4.949 4.949 0 0 0-3.808.04c-14.55 6.19-25.68 12.82-33.89 20.199.236-.017.475-.025.717-.025Zm8.408 7.08c-.3 0-.577-.17-.71-.44a.785.785 0 0 1 .08-.826c.326-.423.143-.973-.542-1.636-2.168-2.096-7.995-3.74-10.547-1.663a.791.791 0 0 1-.566.174l-.04-.003a.788.788 0 0 1-.49-1.341c8.55-8.512 20.64-16.024 36.96-22.966a6.524 6.524 0 0 1 5.016-.053 6.502 6.502 0 0 1 3.584 3.5 6.469 6.469 0 0 1 .055 5 6.495 6.495 0 0 1-3.508 3.572l-.189.081-.397.172c-11.737 5.037-21.224 10.502-28.203 16.248a.79.79 0 0 1-.503.18Z"/>
    <path fill="#646464" d="M150.818 221.418c.43 0 .78.342.79.77.05 2.27.058 3.995-.305 5.504-.57 2.4-1.991 4.027-5.242 6.003-1.933 1.178-3.382 2.702-4.191 4.407-1.077 2.224-.983 4.648.255 6.658 1.771 2.876 5.49 4.514 10.472 4.613 7.721.153 19.367.384 25.698-5.926 3.14-3.131 4.674-7.652 4.56-13.436-.12-6.076-1-11.421-2.613-15.887-.826-2.292-1.852-4.36-3.05-6.148-3.162-4.723-7.895-7.578-12.989-7.832-3.32-.168-5.806.647-8.06 2.643a.698.698 0 0 1-.03.025c-.751.67-1.467 1.457-2.187 2.407-8.014 9.806-17.311 12.382-22.978 10.595-3.148-.992-5.074-3.262-5.285-6.226a4.666 4.666 0 0 1-.018-.318c-.224-7.717 9.227-20.395 36.42-32.848a184.707 184.707 0 0 1 4.593-2.025 4.93 4.93 0 0 0 2.86-3.308c.482-1.84-.125-3.762-1.585-5.016-1.466-1.26-3.403-1.558-5.182-.8-16.312 6.937-28.711 14.686-36.855 23.03-12.793 13.178-11.793 24.757-6.59 31.2 5.682 7.035 18.188 9.993 31.097 2.033a.79.79 0 0 1 .415-.118ZM156.712 251c-1.458 0-2.847-.028-4.132-.053-5.553-.11-9.738-2.015-11.8-5.363-1.525-2.476-1.647-5.45-.335-8.161.938-1.977 2.596-3.733 4.793-5.072 2.842-1.727 4.07-3.089 4.529-5.024.249-1.034.298-2.249.285-3.752-13.27 7.548-26.036 4.27-31.976-3.086-3.235-4.006-4.55-9.23-3.706-14.713.943-6.117 4.537-12.538 10.392-18.57 8.292-8.496 20.864-16.362 37.369-23.381a6.506 6.506 0 0 1 6.832 1.055c1.92 1.649 2.718 4.18 2.082 6.607a6.495 6.495 0 0 1-3.768 4.357c-1.5.637-3.032 1.313-4.553 2.008-26.522 12.146-35.7 24.489-35.502 31.368.003.076.005.153.013.23.165 2.312 1.69 4.075 4.189 4.863.963.304 2.046.464 3.219.464 5.106 0 11.919-3.04 18.04-10.531a18.151 18.151 0 0 1 2.393-2.622l.033-.028c2.55-2.25 5.466-3.212 9.174-3.025 5.597.28 10.78 3.389 14.222 8.53 1.27 1.894 2.353 4.077 3.223 6.49 1.672 4.627 2.582 10.141 2.705 16.389.124 6.228-1.566 11.134-5.022 14.58-5.71 5.691-15.11 6.44-22.7 6.44h.001Z"/>
    <path fill="#FFF" d="M244.493 89.863c2.14-4.739-.274-9.451-5.373-10.5l-.111-.02L89.174 49.188c-2.279-.53-5.107.404-6.703 2.674-2.093 2.987-27.302 51.275-46.857 98.573-1.413 3.422.793 8.682 4.367 9.693L186.98 201.45c4.665 1.32 10.381-1.794 12.14-6.297 15.1-38.658 29.251-69.568 45.373-105.29Z"/>
    <path fill="#646464" d="M87.862 49.83c-1.819 0-3.653.931-4.746 2.484-1.991 2.845-26.941 50.457-46.772 98.421-.833 2.018-.87 4.081-.102 5.66.696 1.43 2.026 2.431 3.955 2.977l145.2 40.81 3.059.869c4.405 1.21 8.404-2.282 9.928-6.184.322-.826.645-1.65.97-2.475 13.62-34.674 26.238-62.604 40.848-94.944l3.572-7.908c1.574-3.483.442-7.058-2.754-8.695a8.201 8.201 0 0 0-2.06-.711l-.02-.005-.04-.006a1.177 1.177 0 0 1-.046-.008l-81.981-16.499L89.019 49.96a5.155 5.155 0 0 0-1.156-.13Zm102.382 153.039a8.286 8.286 0 0 1-2.214-.303l-3.064-.868-145.2-40.811c-2.347-.665-4.057-1.98-4.945-3.805-.964-1.982-.942-4.514.063-6.946 19.871-48.064 44.932-95.859 46.938-98.725 1.688-2.398 4.784-3.626 7.53-2.99 2.747.637 25.63 5.158 67.833 13.652l81.964 16.496c.036.006.088.015.13.024v-.001a9.79 9.79 0 0 1 2.46.851c3.984 2.04 5.412 6.457 3.474 10.743l-3.572 7.908c-14.6 32.32-27.21 60.234-40.818 94.871l-.968 2.472c-1.523 3.9-5.237 7.432-9.612 7.432Z"/>
    <path fill="#CACACA" d="M241.703 84.864a8965.5 8965.5 0 0 0-5.268 11.606c-.474 1.054-.952 2.108-1.43 3.163-13.994 30.94-28.084 62.753-39.963 93.217-1.315 3.372-5.238 5.326-8.73 4.341l-68.013-19.186-6.8-1.918-73.19-20.644c-2.316-.719-3.489-3.014-2.596-5.248 9.106-22.779 20.362-47.245 32.034-70.478a1085.802 1085.802 0 0 1 14.14-27.179c1.272-2.361 4.47-3.859 7.106-3.327l149.89 30.162c2.678.538 3.947 3.008 2.82 5.49Z"/>
    <path fill="#FFF" d="M241.702 84.865a36103.67 36103.67 0 0 0-4.773 10.516c-5.14-1.087-31.036-6.559-60.55-12.792-50.05-10.572-84.567-17.87-99.313-20.982 5.032-9.594 5.287-10.536 7.548-11.659.866-.476 2.095-.844 3.275-.844.593 0-7.116-1.547 80.6 16.102l70.393 14.168c2.814.565 3.943 3.251 2.82 5.491ZM84.496 168.472l-10.627-2.999-27.759-7.83-7.076-15.592a850.69 850.69 0 0 1 11.856-27.19 914.486 914.486 0 0 1 4.682-10.102l28.924 63.713Zm33.804 9.534-6.8-1.918-43.752-96.37a1181.46 1181.46 0 0 1 3.126-6.174L118.3 178.006Z"/>
    <path fill="#646464" d="M236.93 96.168a.801.801 0 0 1-.165-.017L76.903 62.377a.787.787 0 0 1-.609-.933.789.789 0 0 1 .935-.607h.001L237.092 94.61a.787.787 0 0 1-.163 1.557Z"/>
    <path fill="#646464" d="m80.398 56.986-.02.043a1077.172 1077.172 0 0 0-24.09 48.065 922.458 922.458 0 0 0-4.68 10.093 852.289 852.289 0 0 0-11.845 27.164 664.014 664.014 0 0 0-3.316 8.136c-.339.846-.323 1.735.045 2.503.386.807 1.114 1.411 2.052 1.702l147.982 41.742c3.116.88 6.606-.856 7.78-3.869 4.393-11.267 9.263-23.175 14.89-36.404 10.243-24.087 21.32-48.59 31.787-71.621.444-.978.456-1.97.034-2.792-.423-.822-1.236-1.391-2.29-1.603L127.034 57.669l-38.197-7.686c-2.286-.461-5.151.88-6.254 2.928a939.49 939.49 0 0 0-2.184 4.076h-.001Zm107.771 141.247a7.62 7.62 0 0 1-2.072-.284L38.094 156.2c-1.382-.43-2.45-1.327-3.028-2.533-.558-1.17-.59-2.506-.086-3.764a662.227 662.227 0 0 1 3.324-8.154 853.527 853.527 0 0 1 11.868-27.214c1.541-3.38 3.103-6.75 4.685-10.111A1078.103 1078.103 0 0 1 78.96 56.33a1110.91 1110.91 0 0 1 2.23-4.165c1.429-2.652 5-4.323 7.959-3.726l38.197 7.686L239.038 78.6c1.536.31 2.737 1.172 3.383 2.429.647 1.257.647 2.734 0 4.159-10.463 23.023-21.535 47.514-31.773 71.587-5.62 13.213-10.484 25.107-14.871 36.36-1.204 3.087-4.364 5.097-7.608 5.097Z"/>
    <path fill="#646464" d="M162.64 140.355c2.149 2.318 4.286 4.12 6.366 5.452 10.397 6.72 19.387 2.068 22.322-5.395a14.536 14.536 0 0 0 .973-6.396c-2.7-1.343-5.333-3.212-7.596-5.43-3.187 6.797-13.074 12.093-22.065 11.769Z"/>
    <path fill="#646464" d="M164.49 141.131c1.63 1.608 3.288 2.954 4.943 4.013 5.807 3.755 10.43 3.452 13.285 2.537 3.566-1.142 6.436-3.896 7.875-7.556a13.828 13.828 0 0 0 .945-5.613 31.1 31.1 0 0 1-6.615-4.635c-3.487 6.139-12.135 10.873-20.434 11.254Zm14.385 8.716c-2.838 0-6.33-.815-10.298-3.38-2.196-1.405-4.39-3.283-6.517-5.578a.785.785 0 0 1 .609-1.321c8.685.313 18.249-4.763 21.321-11.316a.79.79 0 0 1 1.269-.228c2.18 2.137 4.737 3.966 7.395 5.288.25.124.415.37.435.648a15.411 15.411 0 0 1-1.026 6.74c-1.613 4.101-4.843 7.192-8.862 8.48-1.186.38-2.64.667-4.326.667Z"/>
    <path fill="#646464" d="M162.64 141.142h-.029c-2.702-.099-5.183-.675-7.373-1.714a.786.786 0 0 1-.389-1.043.79.79 0 0 1 1.067-.378c1.995.945 4.267 1.47 6.753 1.561a.788.788 0 0 1-.029 1.574Z"/>
    <path fill="#FFF" d="M169.006 145.807c10.397 6.72 19.387 2.068 22.322-5.395-4.112-2.294-10.023-2.396-12.725 2.924-.513-3.988-8.065-1.907-9.597 2.47"/>
    <path fill="#646464" d="M169.997 145.499c5.54 3.379 9.958 3.067 12.72 2.182 3.352-1.073 6.089-3.571 7.601-6.906-2.261-1.084-4.762-1.365-6.81-.742-1.838.558-3.251 1.79-4.2 3.659a.79.79 0 0 1-1.488-.256c-.04-.313-.163-1.264-1.642-1.418-2.02-.21-5.036 1.269-6.18 3.481Zm8.878 4.348c-2.838 0-6.33-.815-10.298-3.38a.786.786 0 0 1-.316-.92c1.147-3.278 5.213-5.394 8.08-5.095 1.04.108 1.857.518 2.387 1.172 1.1-1.507 2.572-2.566 4.32-3.097 2.642-.804 5.882-.356 8.666 1.198a.786.786 0 0 1 .35.974c-1.614 4.102-4.844 7.193-8.863 8.48-1.185.38-2.64.668-4.326.668Z"/>
    <path fill="#FFF" d="M191.328 140.412c-4.465-2.49-11.05-2.398-13.345 4.413"/>
    <path fill="#646464" d="M177.983 145.612a.788.788 0 0 1-.749-1.038c.972-2.883 2.782-4.905 5.234-5.848 2.763-1.063 6.22-.69 9.246 1 .38.211.516.69.303 1.07a.79.79 0 0 1-1.074.303c-2.622-1.462-5.577-1.8-7.907-.904-2.028.78-3.476 2.422-4.305 4.88a.79.79 0 0 1-.748.537Z"/>
    <path fill="#CACACA" d="M102.216 60.249c-1.398 1.646-3.524 2.433-5.042 1.594-1.562-.863-1.933-3.03-.535-4.676 1.399-1.647 3.524-2.433 5.042-1.594 1.563.863 1.934 3.03.535 4.676Z"/>
    <path fill="#646464" d="M100.316 56.023c-1.004 0-2.186.606-3.074 1.652-.542.638-.777 1.413-.647 2.126.109.59.45 1.071.961 1.353 1.108.612 2.853.005 4.058-1.414.541-.638.777-1.413.646-2.126a1.908 1.908 0 0 0-.962-1.354 2.015 2.015 0 0 0-.982-.237Zm-1.783 6.94c-.62 0-1.214-.14-1.742-.431a3.501 3.501 0 0 1-1.749-2.447c-.216-1.179.146-2.428.994-3.427 1.71-2.013 4.245-2.76 6.028-1.774.92.508 1.557 1.4 1.75 2.447.216 1.178-.147 2.427-.995 3.426-1.203 1.417-2.815 2.206-4.286 2.206Z"/>
    <path fill="#FFF" d="M112.416 62.408c-1.399 1.646-3.524 2.433-5.043 1.594-1.562-.863-1.933-3.03-.535-4.676 1.399-1.647 3.524-2.433 5.043-1.594 1.562.863 1.933 3.03.535 4.676Z"/>
    <path fill="#646464" d="M92.079 58.028c-1.399 1.646-3.524 2.433-5.043 1.594-1.562-.863-1.933-3.03-.535-4.676 1.399-1.647 3.524-2.433 5.043-1.594 1.562.863 1.933 3.03.535 4.676Zm18.437.154c-1.004 0-2.187.606-3.075 1.652-.542.638-.777 1.413-.646 2.126.108.59.45 1.071.96 1.354 1.109.612 2.853.004 4.058-1.415.541-.637.777-1.413.646-2.126a1.907 1.907 0 0 0-.961-1.353 2.015 2.015 0 0 0-.983-.238Zm-1.784 6.94c-.62 0-1.213-.14-1.741-.431a3.501 3.501 0 0 1-1.75-2.447c-.216-1.179.146-2.428.995-3.427 1.71-2.013 4.245-2.759 6.027-1.774.92.508 1.557 1.4 1.75 2.447.216 1.179-.146 2.428-.995 3.427-1.203 1.416-2.815 2.206-4.286 2.206Z"/>
    <path fill="#646464" d="M90.178 53.803c-1.003 0-2.186.605-3.074 1.651-.542.638-.777 1.413-.646 2.127.108.59.45 1.07.96 1.353 1.11.612 2.853.004 4.058-1.415.541-.637.777-1.412.646-2.126a1.908 1.908 0 0 0-.961-1.353 2.014 2.014 0 0 0-.983-.238Zm-1.783 6.94c-.62 0-1.214-.14-1.742-.432a3.501 3.501 0 0 1-1.749-2.447c-.216-1.179.146-2.428.994-3.427 1.71-2.013 4.245-2.76 6.028-1.774a3.5 3.5 0 0 1 1.749 2.447c.216 1.179-.146 2.427-.994 3.426-1.203 1.417-2.816 2.206-4.286 2.206Z"/>
    <path fill="#FFF" d="M177.304 110.182c-4.345 10.936-14.604 17.14-22.912 13.86-8.312-3.282-11.524-14.81-7.178-25.742 1.512-3.803 3.739-7.034 6.348-9.494 4.895-4.611 11.145-6.506 16.564-4.365 4.685 1.849 7.748 6.319 8.753 11.823.778 4.26.323 9.146-1.574 13.918Zm-45.307-10.575c-4.237 10.66-14.126 16.753-22.089 13.607-7.966-3.143-10.986-14.336-6.75-24.993 1.364-3.432 3.314-6.39 5.597-8.722 4.807-4.904 11.092-7.015 16.492-4.884 4.684 1.849 7.662 6.486 8.453 12.164.554 3.967.04 8.444-1.703 12.828Z"/>
    <path fill="#646464" d="M108.346 83.367c1.777-2.613 4.468-3.885 6.01-2.842 1.544 1.042 1.354 4.006-.422 6.618-1.777 2.613-4.468 3.885-6.011 2.843-1.543-1.043-1.354-4.006.423-6.62"/>
    <path fill="#646464" d="M118.012 67.164a.788.788 0 0 1-.226-1.541c3.834-1.142 7.67-1.404 11.404-.778a.787.787 0 1 1-.262 1.553c-3.493-.586-7.09-.34-10.69.733a.795.795 0 0 1-.226.033ZM113.09 80.95c-.39 0-.84.112-1.312.336-1.01.478-1.997 1.373-2.778 2.523-1.635 2.403-1.646 4.84-.634 5.525 1.013.684 3.28-.228 4.914-2.632 1.635-2.404 1.646-4.842.634-5.526-.224-.152-.504-.226-.824-.226Zm-3.907 10.186c-.622 0-1.202-.16-1.703-.5-1.933-1.306-1.84-4.693.213-7.71.937-1.379 2.147-2.466 3.408-3.062 1.398-.661 2.712-.658 3.7.01 1.932 1.306 1.839 4.693-.213 7.71-1.521 2.237-3.63 3.552-5.405 3.552Z"/>
    <path fill="#646464" d="M165.45 84.351c-3.882 0-7.899 1.778-11.346 5.027-2.61 2.46-4.739 5.646-6.157 9.212-2.039 5.13-2.44 10.542-1.13 15.24 1.288 4.619 4.08 7.986 7.865 9.48.532.21 1.079.38 1.636.51.908.211 1.838.317 2.77.316 6.909 0 14.074-5.668 17.482-14.244 1.765-4.439 2.309-9.229 1.532-13.487-.997-5.458-4.01-9.552-8.267-11.232a11.816 11.816 0 0 0-4.386-.822Zm-6.384 41.357a13.657 13.657 0 0 1-3.108-.355 13.355 13.355 0 0 1-1.857-.58c-4.255-1.68-7.382-5.416-8.806-10.522-1.401-5.026-.98-10.794 1.184-16.24 1.503-3.779 3.764-7.16 6.54-9.777 3.833-3.612 8.362-5.549 12.739-5.453 1.596.03 3.173.344 4.658.928 4.776 1.885 8.143 6.41 9.24 12.414.829 4.544.254 9.64-1.618 14.35-3.648 9.181-11.419 15.235-18.972 15.235Zm23.468-44.674a.787.787 0 0 1-.514-.189 21.847 21.847 0 0 0-8.787-4.583.787.787 0 1 1 .395-1.524 23.413 23.413 0 0 1 9.42 4.911.785.785 0 0 1-.514 1.385Zm-61.691-6.458c-3.917 0-8.105 1.987-11.523 5.473-2.273 2.322-4.15 5.248-5.428 8.462-1.987 4.998-2.403 10.261-1.172 14.82 1.208 4.474 3.864 7.725 7.48 9.15.477.188.967.343 1.466.463 7.376 1.777 15.801-4.082 19.597-13.627 1.641-4.129 2.214-8.427 1.655-12.43-.786-5.647-3.688-9.854-7.962-11.54a11.01 11.01 0 0 0-4.113-.77Zm-6.509 40.256a12.776 12.776 0 0 1-4.716-.887c-4.09-1.613-7.081-5.238-8.423-10.206-1.318-4.883-.882-10.497 1.23-15.808 1.353-3.406 3.347-6.512 5.766-8.982 3.774-3.85 8.463-6.017 12.862-5.945 1.559.021 3.068.317 4.486.88 4.817 1.9 8.077 6.562 8.943 12.787.596 4.271-.01 8.844-1.75 13.226-3.582 9.007-11.11 14.935-18.397 14.935Z"/>
    <path fill="#CACACA" d="M132.915 91.096c-1.437-.541-3.797-2.442-12.574-4.988-5.477-1.59-9.869-2.48-14.255-2.583-1.84-.043-1.753-1.718-1.05-2.866.701-1.142 2.22-2.066 4.903-1.929 7.03.358 16.515 2.881 22.753 6.423 3.941 2.237 3.524 7.186.223 5.944Z"/>
    <path fill="#CACACA" d="M135.52 88.084a7.154 7.154 0 0 0-1.178-.864c-7.094-4.17-17.873-7.142-25.865-7.564a8.924 8.924 0 0 0-.844-.008c5.374-5.68 12.4-8.127 18.437-5.658 5.237 2.142 8.566 7.515 9.45 14.094"/>
    <path fill="#646464" d="M133.901 92.085c-.376 0-.798-.077-1.265-.252-.395-.15-.83-.378-1.382-.667-1.597-.838-4.57-2.398-11.134-4.302-5.84-1.694-10.043-2.458-14.053-2.552-1.266-.03-1.811-.686-2.023-1.074-.526-.962-.18-2.175.319-2.989 1.436-2.342 4.195-2.448 6.964-2.213a.788.788 0 1 1-.134 1.569c-2.616-.222-4.549-.058-5.483 1.465-.317.518-.438 1.126-.28 1.415.109.199.427.248.674.253 4.154.098 8.478.88 14.457 2.615 6.717 1.948 9.782 3.556 11.429 4.42.522.275.9.473 1.204.588.712.268 1.184.171 1.4-.289.456-.966-.196-3.044-2.292-4.234a.786.786 0 0 1-.3-1.073.79.79 0 0 1 1.076-.298l.005.003c2.783 1.58 3.767 4.519 2.941 6.272-.34.72-1.048 1.343-2.123 1.343Zm20.014.998c2.063-2.75 5.117-3.951 6.82-2.681 1.703 1.27 1.41 4.528-.653 7.279-2.064 2.75-5.117 3.951-6.82 2.681-1.703-1.27-1.41-4.529.653-7.28"/>
    <path fill="#646464" d="m194.486 114.18-2.335 5.277-4.959-1.14-2.319 5.249-4.948-1.16-2.306 5.216-4.945-1.173-2.29 5.186-19.743-4.762-4.934-1.189-.66-1.97 5.587-8.281-5.356-1.129 2.456-5.084-5.15-1.172-9.913-2.283-2.24 5.068-4.952-1.16-2.227 5.039-4.941-1.173-2.214 5.005-24.675-5.95-.659-1.971s7.988-13.675 9.947-17.694c32.62 7.39 78.912 16.06 93.118 19.28 0 0 .526 1.553.658 1.97Zm-35.38-23.5c-.52 0-1.022.154-1.357.286-1.154.454-2.291 1.372-3.203 2.587-.911 1.215-1.474 2.562-1.585 3.794-.056.633-.031 1.784.773 2.384.805.6 1.92.298 2.512.065 1.154-.454 2.292-1.372 3.203-2.587s1.474-2.562 1.585-3.794c.057-.633.032-1.784-.773-2.384-.35-.26-.757-.35-1.155-.35Zm-4.216 10.978c-.79 0-1.507-.224-2.101-.667-1.051-.783-1.549-2.128-1.4-3.785.136-1.518.808-3.15 1.893-4.596 1.084-1.445 2.465-2.55 3.887-3.109 1.553-.61 2.987-.514 4.038.27 1.05.783 1.548 2.127 1.4 3.784-.137 1.519-.809 3.15-1.893 4.596-1.085 1.446-2.466 2.55-3.888 3.11-.675.265-1.327.397-1.936.397Z"/>
    <path fill="#646464" d="M150.75 126.43c.169.024.388.077.676.146l18.685 4.507 2.13-4.824a.474.474 0 0 1 .543-.269l4.561 1.081 2.147-4.855a.474.474 0 0 1 .542-.269l4.565 1.07 2.16-4.89a.474.474 0 0 1 .54-.27l4.577 1.053 2.104-4.756a224 224 0 0 0-.516-1.543c-5.724-1.288-16.56-3.453-29.079-5.954-19.546-3.905-43.843-8.76-63.416-13.185-2.048 4.077-8.755 15.603-9.688 17.204l.508 1.52 24.035 5.797 2.054-4.644a.474.474 0 0 1 .543-.269l4.557 1.082 2.059-4.656a.474.474 0 0 1 .551-.291l.006.001h.003l4.56 1.068 2.081-4.708a.474.474 0 0 1 .54-.27l3.606.83 2.269.523.018.004 9.17 2.098a.472.472 0 0 1 .321.665l-2.194 4.542 4.764 1.004a.473.473 0 0 1 .295.725l-5.456 8.089.503 1.502 4.68 1.127-.004.015Zm19.635 5.677a.483.483 0 0 1-.111-.013l-24.678-5.95a.473.473 0 0 1-.338-.31l-.66-1.971a.47.47 0 0 1 .057-.413l5.194-7.7-4.668-.983a.471.471 0 0 1-.33-.667l2.199-4.55-8.343-1.91h-.003l-5.758-1.326-2.082 4.71a.474.474 0 0 1-.542.27l-4.568-1.07-2.068 4.679a.474.474 0 0 1-.544.269l-4.557-1.082-2.055 4.645a.474.474 0 0 1-.544.269l-24.675-5.951a.473.473 0 0 1-.338-.31l-.659-1.97a.47.47 0 0 1 .04-.387c.08-.137 8.002-13.706 9.93-17.663a.474.474 0 0 1 .53-.254c19.624 4.445 44.095 9.334 63.758 13.262 12.716 2.54 23.698 4.734 29.36 6.018a.475.475 0 0 1 .345.31s.528 1.56.661 1.978a.472.472 0 0 1-.018.334l-2.336 5.277a.474.474 0 0 1-.54.27l-4.575-1.052-2.162 4.89a.474.474 0 0 1-.542.27l-4.565-1.07-2.147 4.857a.474.474 0 0 1-.543.268L172.95 127l-2.131 4.825a.474.474 0 0 1-.434.282Z"/>
    <path fill="#646464" d="m193.828 112.209-2.336 5.277-4.958-1.139-2.32 5.248-4.948-1.16-2.306 5.216-4.945-1.172-2.29 5.185-19.742-4.762-4.935-1.188 2.256-5.104-4.941-1.173 2.257-5.103-4.948-1.156 2.253-5.1-9.913-2.283-2.24 5.067-4.952-1.159-2.227 5.038-4.941-1.172-2.214 5.005c-19.625-4.732-11.149-2.688-24.675-5.951l2.178-4.926-4.942-1.173 2.175-4.923-4.948-1.156 2.174-4.923-4.955-1.14 2.175-4.919a864231.28 864231.28 0 0 1 109.208 24.746Z"/>
    <path fill="#FFF" d="m100.527 101.834-2.191 4.956-4.942-1.175 2.184-4.937 4.949 1.156Zm7.155-3.829-2.207 4.985-4.948-1.156 2.197-4.968 4.958 1.14Zm-9.913-2.282-2.19 4.955-4.952-1.159 2.184-4.936 4.958 1.14Zm54.522 12.552-2.27 5.133-4.948-1.156 2.263-5.117 4.955 1.14Zm9.913 2.282-2.283 5.166-4.952-1.156 2.276-5.15 4.959 1.14Zm2.668 6.325-2.283 5.166-4.945-1.172 2.277-5.153 4.95 1.16Zm-54.446-12.732-2.204 4.988-4.945-1.175 2.198-4.972 4.95 1.159Zm44.543 10.417-2.27 5.133-4.941-1.172 2.263-5.12 4.948 1.16Z"/>
    <path fill="#646464" d="M150.091 124.456c.117.015.246.046.38.078l18.98 4.578 2.13-4.824a.474.474 0 0 1 .544-.269l4.56 1.082 2.148-4.856a.474.474 0 0 1 .542-.269l4.565 1.07 2.16-4.89a.474.474 0 0 1 .54-.27l4.576 1.053 1.945-4.397c-12.28-2.784-74.01-16.775-108.266-24.532l-1.786 4.04 4.397 1.012a.472.472 0 0 1 .327.65l-1.944 4.403 4.392 1.026a.473.473 0 0 1 .326.65l-1.945 4.405 4.388 1.041a.472.472 0 0 1 .324.65l-1.949 4.41 23.74 5.725 2.053-4.644a.473.473 0 0 1 .543-.269l4.558 1.081 2.068-4.677a.473.473 0 0 1 .541-.27l.012.003 4.557 1.067 2.081-4.709a.474.474 0 0 1 .54-.27l3.606.83 6.307 1.453a.472.472 0 0 1 .326.65l-2.023 4.58 4.393 1.027a.473.473 0 0 1 .325.65l-2.027 4.585 4.388 1.041a.472.472 0 0 1 .324.65l-2.028 4.587 4.384 1.056-.003.013h.001Zm19.635 5.68a.483.483 0 0 1-.111-.013l-5.39-1.3-14.353-3.462-4.935-1.188a.472.472 0 0 1-.322-.65l2.027-4.585-4.389-1.041a.472.472 0 0 1-.323-.65l2.026-4.583-4.393-1.026a.473.473 0 0 1-.325-.65l2.023-4.579-3.213-.74h-.003l-5.757-1.326-2.083 4.71a.474.474 0 0 1-.541.27l-4.569-1.07-2.068 4.679a.474.474 0 0 1-.543.268l-4.557-1.081-2.055 4.645a.474.474 0 0 1-.545.269l-24.675-5.951a.472.472 0 0 1-.322-.65l1.949-4.407-4.389-1.041a.472.472 0 0 1-.324-.65l1.944-4.403-4.392-1.026a.473.473 0 0 1-.326-.65l1.943-4.4-4.396-1.012a.472.472 0 0 1-.327-.65l2.174-4.92a.474.474 0 0 1 .538-.27c34.733 7.865 98.347 22.283 109.208 24.746a.472.472 0 0 1 .329.65l-2.336 5.278a.474.474 0 0 1-.54.27l-4.576-1.052-2.161 4.89a.474.474 0 0 1-.542.27l-4.565-1.07-2.147 4.856a.474.474 0 0 1-.543.27l-4.56-1.082-2.131 4.825a.475.475 0 0 1-.434.283Z"/>
    <path fill="#CACACA" d="M178.51 101.147c-1.479-.587-3.887-2.597-12.926-5.39-5.641-1.744-10.17-2.745-14.709-2.931-1.903-.078-1.783-1.81-1.034-2.985.746-1.17 2.335-2.099 5.11-1.91 7.27.498 17.042 3.281 23.435 7.06 4.04 2.386 3.517 7.501.123 6.156Z"/>
    <path fill="#CACACA" d="M181.16 98.618a7.04 7.04 0 0 0-.577-.43c-7.286-4.883-18.422-8.477-26.708-9.121a9.854 9.854 0 0 0-1.356-.017c5.538-5.916 12.608-8.347 18.74-5.6 5.299 2.372 8.765 8.107 9.902 15.168Z"/>
    <path fill="#646464" d="M154.567 88.7a.788.788 0 0 1-.508-1.39c5.117-4.28 11.232-5.626 16.357-3.6a.786.786 0 1 1-.581 1.463c-4.578-1.809-10.096-.56-14.761 3.343a.789.789 0 0 1-.507.184Z"/>
    <path fill="#646464" d="M141.884 147.76a629.835 629.835 0 0 0-2.087 4.708c-6.337-1.642-13.883-3.6-22.549-5.852l-6.144-1.595c-.485-.126-.973-.252-1.464-.381.21-.48.423-.96.638-1.439.466-1.055.935-2.109 1.407-3.161l2.916.747c10.735 2.745 19.883 5.084 27.283 6.973Zm12.504 13.773a499.352 499.352 0 0 0-1.992 4.766 24468.94 24468.94 0 0 1-29.834-7.975v-.003c-1.988-.532-4.045-1.084-6.172-1.655-3.398-.91-6.967-1.865-10.705-2.868a591.693 591.693 0 0 1 1.955-4.57l6.105 1.613c2.115.555 4.169 1.099 6.157 1.621 15.678 4.135 27.38 7.216 34.486 9.072Zm-3.934 9.516c-.64 1.577-1.27 3.158-1.892 4.742l-20.663-5.718c-1.982-.55-4.051-1.12-6.202-1.714-5.973-1.655-12.578-3.48-19.777-5.474a487.777 487.777 0 0 1 1.858-4.535c5.443 1.484 10.537 2.871 15.266 4.159 2.135.583 4.199 1.141 6.183 1.681 10.703 2.913 19.194 5.222 25.227 6.859Zm-40.895-91.542a.788.788 0 0 1-.538-1.363c5.107-4.733 11.28-6.326 16.516-4.26a.787.787 0 1 1-.581 1.463c-4.655-1.836-10.21-.36-14.86 3.95a.787.787 0 0 1-.537.21Zm69.99 22.65a3.61 3.61 0 0 1-1.331-.279c-.405-.16-.851-.404-1.415-.713-1.64-.897-4.69-2.566-11.453-4.657-6.017-1.86-10.355-2.725-14.507-2.895-1.296-.053-1.842-.733-2.052-1.134-.522-.994-.144-2.233.384-3.06 1.503-2.359 4.404-2.413 6.762-2.197a.788.788 0 1 1-.136 1.568h-.008c-2.878-.264-4.459.176-5.285 1.473-.343.538-.48 1.178-.318 1.487.093.177.335.274.718.29 4.296.176 8.754 1.063 14.91 2.965 6.914 2.137 10.056 3.857 11.744 4.78.537.294.925.506 1.24.63.726.289 1.22.207 1.467-.243.466-.848.081-2.836-1.835-4.21a6.054 6.054 0 0 0-.45-.294.785.785 0 0 1-.277-1.077v-.001a.79.79 0 0 1 1.08-.276h.002c.196.116.387.24.567.37 2.538 1.82 3.17 4.66 2.297 6.245a2.34 2.34 0 0 1-2.104 1.228Z"/>
    <path fill="#FFF" d="M80.245 145.998a29.378 29.378 0 0 1-2.974 2.987 26.969 26.969 0 0 1-5.999 3.972c-5.348 2.576-11.15 2.996-15.843.407-4.236-2.341-6.757-6.523-7.081-11.121-.28-3.858.99-8.011 4.09-11.61a28.621 28.621 0 0 1 6.235-5.432c6.04-3.868 13.07-4.977 18.576-1.934 7.791 4.303 9.785 14.845 2.996 22.73v.001Z"/>
    <path fill="#646464" d="M74.727 133.8c-2.061 2.78-5.646 4.204-8.575 2.933-3.014-1.308-4.247-4.82-2.185-7.601 2.061-2.78 5.646-4.203 8.575-2.932 3.015 1.308 4.247 4.821 2.185 7.601Z"/>
    <path fill="#646464" d="M70.232 126.519c-2.027 0-4.18 1.124-5.63 3.08-.794 1.07-1.053 2.32-.731 3.518.342 1.272 1.288 2.327 2.596 2.894 2.471 1.072 5.679-.054 7.625-2.678.793-1.07 1.053-2.319.73-3.517-.341-1.272-1.288-2.327-2.595-2.894a4.993 4.993 0 0 0-1.995-.404Zm-1.786 11.465c-.9 0-1.785-.171-2.61-.53-1.75-.759-3.023-2.191-3.49-3.93-.45-1.67-.1-3.397.985-4.86 2.38-3.208 6.385-4.548 9.526-3.186 1.75.76 3.023 2.193 3.49 3.93.45 1.672.1 3.398-.986 4.86-1.754 2.366-4.392 3.716-6.916 3.716Z"/>
    <path fill="#646464" d="M77.271 148.985a26.969 26.969 0 0 1-5.999 3.972c-5.348 2.576-11.15 2.996-15.844.407-4.235-2.341-6.756-6.523-7.08-11.12.035-.039.069-.082.106-.12 3.912-4.325 9.427-6.933 14.747-6.946 2.5-.006 4.958.561 7.184 1.79 4.67 2.583 7.247 7.29 6.885 12.017h.001Z"/>
    <path fill="#646464" d="M70.19 122.31c-5.813 0-12.271 3.168-17.152 8.837-2.796 3.244-4.182 7.165-3.903 11.04.314 4.43 2.81 8.35 6.678 10.488 5.945 3.283 14.164 1.602 20.938-4.283 1.033-.899 2-1.87 2.894-2.907 3.138-3.645 4.496-8.19 3.725-12.469a12.931 12.931 0 0 0-6.503-9.06c-2.014-1.113-4.292-1.646-6.677-1.646Zm-7.689 33.594c-2.659 0-5.199-.607-7.454-1.852-4.336-2.397-7.135-6.79-7.487-11.753-.31-4.291 1.21-8.616 4.28-12.178 7.368-8.557 18.216-11.728 25.793-7.54a14.499 14.499 0 0 1 7.291 10.157c.856 4.747-.632 9.767-4.08 13.773a30.275 30.275 0 0 1-3.055 3.068c-4.768 4.142-10.242 6.325-15.287 6.325Z"/>
    <path fill="#646464" d="m102.569 129.001-.705-1.805-.903.422c-1.29-.732-3.088-1.531-5.447-2.079-3.46-.804-6.303-.734-7.919-.576a2.506 2.506 0 0 0-2.025 1.42 732.317 732.317 0 0 0-5.007 10.773l-1.183.365.817 2.021h.001c.105.327.277.628.505.885l4.248 4.777c.617.693 1.57.988 2.473.765l8.346-2.063a2.5 2.5 0 0 0 1.681-1.402c2.026-4.512 3.25-7.15 5.178-11.286a2.482 2.482 0 0 0-.06-2.216V129Zm-53.407 13.516a12.971 12.971 0 0 0 6.65 10.158c5.873 3.243 13.964 1.642 20.69-4.07.202-4.368-2.322-8.638-6.501-10.947-6.312-3.486-15.048-1.44-20.839 4.859Zm13.34 13.387c-2.66 0-5.2-.607-7.455-1.852-4.336-2.396-7.135-6.79-7.487-11.753a.785.785 0 0 1 .189-.569c.04-.046.084-.097.127-.143 6.268-6.932 15.898-9.168 22.89-5.306 4.82 2.663 7.681 7.673 7.29 12.764a.785.785 0 0 1-.268.533c-4.768 4.143-10.242 6.326-15.287 6.326Z"/>
    <path fill="#646464" d="M80.91 139.202a.743.743 0 0 1 .04.097c.07.223.188.43.343.606l4.249 4.776a1.71 1.71 0 0 0 1.691.524l8.347-2.063c.51-.129.934-.482 1.15-.96a753.968 753.968 0 0 1 5.183-11.296 1.69 1.69 0 0 0-.043-1.517.81.81 0 0 1-.038-.082l-.398-1.021-.138.064a.792.792 0 0 1-.725-.028c-1.547-.877-3.308-1.549-5.236-1.996-3.278-.761-5.976-.724-7.662-.56a1.727 1.727 0 0 0-1.388.972 724.859 724.859 0 0 0-5.002 10.763.788.788 0 0 1-.486.427l-.364.112.477 1.182Zm5.908 7.628c-.94 0-1.835-.403-2.457-1.105l-4.249-4.776a3.25 3.25 0 0 1-.646-1.11l-.001-.003-.817-2.022a.786.786 0 0 1 .5-1.046l.844-.26a728.083 728.083 0 0 1 4.865-10.462 3.312 3.312 0 0 1 2.662-1.867c1.805-.176 4.688-.217 8.175.593 1.928.448 3.708 1.107 5.297 1.962l.538-.252a.79.79 0 0 1 1.071.427l.69 1.766c.464.908.485 1.953.055 2.874a748.924 748.924 0 0 0-5.173 11.275 3.27 3.27 0 0 1-2.211 1.845l-8.347 2.063a3.31 3.31 0 0 1-.796.097Z"/>
    <path fill="#CACACA" d="m101.795 129.14-.77 1.654c-4.3 9.247-4.455 10.464-5.664 10.91a3.249 3.249 0 0 1-.425.124l-6.309 1.562-2.037.503a2.513 2.513 0 0 1-2.471-.769l-4.25-4.773a2.486 2.486 0 0 1-.405-2.683c.94-2.07 1.888-4.137 2.846-6.198a713.36 713.36 0 0 1 2.43-5.164 2.506 2.506 0 0 1 2.025-1.421c.017 0 .033-.004.054-.004 1.621-.154 4.438-.216 7.864.581 2.85.66 4.896 1.695 6.2 2.526a2.493 2.493 0 0 1 .913 3.153Z"/>
    <path fill="#646464" d="m85.88 137.31-.343.226c.39.582.975 1.441 1.01 1.494l.01.006a3.018 3.018 0 0 0 3.353.91l8.218-2.861a669.035 669.035 0 0 1 2.896-6.29s-9.807 4.259-15.143 6.515Z"/>
    <path fill="#646464" d="m87.158 138.525.01.01c.598.727 1.572.99 2.48.67l7.9-2.753c.654-1.44 1.265-2.766 1.888-4.11a2087.467 2087.467 0 0 1-12.753 5.483l.469.69.007.01Zm1.706 2.39a3.76 3.76 0 0 1-2.876-1.331.789.789 0 0 1-.095-.114l-.049-.072c-.156-.23-.632-.928-.964-1.425a.786.786 0 0 1 .22-1.092l.344-.227a.788.788 0 0 1 .128-.07c5.272-2.227 15.039-6.468 15.137-6.51a.79.79 0 0 1 1.04.406.785.785 0 0 1-.009.646 677.835 677.835 0 0 0-2.892 6.283.79.79 0 0 1-.46.419l-8.217 2.862c-.42.149-.862.225-1.307.226Z"/>
    <path fill="#646464" d="M88.898 123.572c-.791 0-1.483.04-2.057.097a1.725 1.725 0 0 0-1.387.972 681.599 681.599 0 0 0-5.271 11.352 1.709 1.709 0 0 0 .277 1.838l4.249 4.772a1.714 1.714 0 0 0 1.692.526l8.345-2.064c.81-.198.858-.21 2.813-4.567a448.321 448.321 0 0 1 2.749-6.034l.225-.483c.176-.379.357-.769.547-1.173a1.717 1.717 0 0 0-.626-2.158c-1.17-.745-3.156-1.773-5.951-2.42a24.772 24.772 0 0 0-5.605-.658Zm-2.91 21.18a3.287 3.287 0 0 1-2.46-1.105l-4.251-4.773a3.283 3.283 0 0 1-.533-3.531 680.013 680.013 0 0 1 5.281-11.374 3.31 3.31 0 0 1 2.66-1.867c1.807-.176 4.69-.217 8.176.595 3.012.698 5.168 1.815 6.446 2.629a3.297 3.297 0 0 1 1.204 4.148v.001c-.19.403-.37.791-.546 1.168l-.225.484a454.67 454.67 0 0 0-2.74 6.014c-2.055 4.58-2.27 5.059-3.875 5.452l-8.346 2.065a3.338 3.338 0 0 1-.79.095h-.001Z"/>
    <path fill="#FFF" d="M86.375 138.378c-1.87-1.243-1.204-3.347-1.525-5.542a2.494 2.494 0 0 1 2.348-2.634h.001c1.368-.093 2.562.967 2.643 2.341l.035.598 14.726-5.128a2.503 2.503 0 0 1 3.184 1.531 2.49 2.49 0 0 1-1.535 3.175l-17.175 5.98c-.915.32-1.902.21-2.702-.321Z"/>
    <path fill="#FFF" d="m106.25 132.717-12.922 4.504-4.25 1.479c-.917.32-1.905.212-2.705-.32a.125.125 0 0 1-.025-.021c-1.1-.744-1.304-1.794-1.359-2.99-.041-.799-.012-1.654-.137-2.53a2.494 2.494 0 0 1 2.344-2.638h.002a2.493 2.493 0 0 1 2.642 2.343l.038.598 1.38-.482 13.347-4.644a2.5 2.5 0 0 1 3.183 1.528 2.49 2.49 0 0 1-1.537 3.174Z"/>
    <path fill="#646464" d="M86.843 137.746c.58.37 1.296.447 1.974.21l17.173-5.982c.43-.148.781-.46.978-.868a1.697 1.697 0 0 0-.796-2.275 1.706 1.706 0 0 0-1.307-.073l-14.726 5.126a.79.79 0 0 1-1.05-.694l-.037-.598a1.698 1.698 0 0 0-.579-1.187 1.67 1.67 0 0 0-1.222-.42 1.705 1.705 0 0 0-1.612 1.777c.087.63.1 1.228.114 1.806.006.258.012.511.025.759.051 1.136.228 1.85 1.013 2.38a.688.688 0 0 1 .052.039Zm1.187 1.92a3.77 3.77 0 0 1-2.079-.621.869.869 0 0 1-.09-.066c-1.358-.942-1.6-2.275-1.66-3.576a28 28 0 0 1-.026-.799c-.013-.543-.026-1.105-.104-1.655a3.25 3.25 0 0 1 .816-2.436 3.274 3.274 0 0 1 2.264-1.099 3.24 3.24 0 0 1 2.368.81c.548.48.92 1.127 1.056 1.84l.421-.147 13.348-4.645a3.28 3.28 0 0 1 2.512.14 3.252 3.252 0 0 1 1.678 1.873 3.25 3.25 0 0 1-.144 2.506 3.263 3.263 0 0 1-1.879 1.67l-17.173 5.982a3.97 3.97 0 0 1-1.307.224Z"/>
    <path fill="#FFF" d="M237.549 126.842c-8.114-2.02-9.426 2.089-8.842 5.859-2.744-3.182-5.805-6.276-9.142-9.245a5.246 5.246 0 0 1-.425-7.419 5.278 5.278 0 0 1 7.442-.424c4.022 3.577 7.696 7.34 10.967 11.229Z"/>
    <path fill="#646464" d="M228.707 133.488a.79.79 0 0 1-.6-.274c-2.71-3.142-5.76-6.228-9.068-9.17a.785.785 0 0 1-.063-1.112.791.791 0 0 1 1.114-.063c3.36 2.988 6.46 6.124 9.215 9.319a.785.785 0 0 1-.598 1.3"/>
    <path fill="#FFF" d="M205.201 88.09c1.474.107 2.639 1.322 2.719 2.793.126 2.331-.233 6.189-2.912 10.603v-.004c-1.685-2.413-3.159.832-3.934 3.682-.959 3.53-2.994 6.647-6.213 7.083-2.081.298-3.532-.47-4.457-2.315v-.003c-.722-1.435-.942-3.489-.911-3.61-.126-1.504-.018-3.176.326-4.876v-.004c1.975-9.803 9.566-13.767 15.382-13.349Z"/>
    <path fill="#646464" d="M191.126 109.612c.78 1.531 1.898 2.103 3.622 1.856 3.557-.481 5.076-4.712 5.564-6.51.858-3.152 1.94-4.862 3.217-5.082.35-.06.816-.028 1.316.315 2.081-3.811 2.403-7.11 2.287-9.266-.06-1.09-.914-1.972-1.987-2.05-5.869-.421-12.737 3.8-14.544 12.68a1.672 1.672 0 0 1-.007.043c-.326 1.608-.434 3.218-.314 4.656a.74.74 0 0 1 0 .127c.012.334.238 2.02.83 3.195a.799.799 0 0 1 .016.035Zm2.891 3.486c-1.93 0-3.38-.943-4.319-2.813a.927.927 0 0 1-.018-.038c-.638-1.291-.963-3.122-.971-3.862h-.003c-.131-1.572-.017-3.32.331-5.057l.008-.044c1.974-9.8 9.653-14.45 16.213-13.978 1.865.134 3.348 1.653 3.45 3.534.138 2.543-.275 6.525-3.025 11.053a.792.792 0 0 1-1.348.004c-.264-.367-.465-.482-.538-.47-.36.062-1.211 1.188-1.962 3.944-1.205 4.437-3.709 7.228-6.868 7.656-.329.047-.646.07-.95.07Z"/>
    <path fill="#FFF" d="M239.393 113.27c-.473 7.073-3.502 11.797-11.68 12.372-8.637 8.048-17.117 1.453-25.708 3.625-10.274 2.866-12.511 6.771-16.41 5.704-3.546-.971-4.588-6.45-2.459-10.679 3.23-6.391 7.491-7.177 13.779-8.825 3.958-1.038 6.551-3.651 6.847-7.066.003-.003.002-.01.004-.014a.862.862 0 0 0-.088-.002c-1.69-.346-2.83-2.185-3.244-4.489-.33-1.89-.139-4.624.178-6.517l-.03-.117c2.45-12.775 13.44-15.327 18.826-13.143-2.465-4.762-4.551-6.778-5.042-10.21-.758-5.277 5.687-7.392 11.88-1.44 6.724 6.455 14.961 25.904 13.147 40.801Z"/>
    <path fill="#646464" d="M239.392 114.055a.788.788 0 0 1-.784-.882c1.814-14.931-6.568-34.048-12.909-40.14-3.508-3.37-7.006-3.889-8.917-2.91-1.286.66-1.882 1.998-1.635 3.673.284 1.986 1.28 3.646 2.66 5.942 2.046 3.41 4.85 8.08 7.486 17.12a.79.79 0 0 1-1.513.45l-.003-.01c-2.58-8.845-5.323-13.415-7.326-16.752-1.473-2.454-2.537-4.228-2.867-6.524-.345-2.345.58-4.327 2.476-5.299 2.942-1.508 7.157-.261 10.735 3.176 3.37 3.237 7.122 9.778 9.794 17.07 3.172 8.657 4.446 17.32 3.586 24.394a.789.789 0 0 1-.783.692Z"/>
    <path fill="#646464" d="M222.874 117.587a.789.789 0 0 1-.679-.384 10.855 10.855 0 0 1-1.122-2.635c-.793-2.876-.463-4.759.05-6.92a.79.79 0 1 1 1.536.361c-.476 2.006-.759 3.62-.065 6.138.229.813.55 1.57.957 2.25a.786.786 0 0 1-.678 1.19ZM201.06 102.37l-.003.035.003-.035Zm3.778 6.927c-1.945 0-3.408-.977-4.353-2.912l-.016-.035c-.676-1.397-.908-3.146-.952-3.537l-.004-.023a.773.773 0 0 1-.009-.075l-.005-.04a2.986 2.986 0 0 1-.02-.37 3.635 3.635 0 0 1-.003-.078l-.001-.018c-.118-1.56-.006-3.297.322-5.026a.762.762 0 0 1 .01-.07c.9-4.687 3.202-8.767 6.318-11.193 3.887-3.035 8.173-3.336 10.38-3.245.024 0 .047.002.07.005h.002l.079.004.026.001.106.008c.12.008.214.014.262.015a.79.79 0 0 1 .807.737.788.788 0 0 1-.738.836c-.08.005-.156 0-.447-.018l-.075-.006-.02-.001-.08-.004-.036-.002a.973.973 0 0 1-.063-.005c-2.003-.076-5.835.209-9.3 2.915-2.807 2.185-4.893 5.896-5.728 10.188a.768.768 0 0 1-.01.07c-.31 1.607-.418 3.215-.312 4.652a.988.988 0 0 1 .006.078c0 .036 0 .064.003.09a.88.88 0 0 1 .001.12 2.598 2.598 0 0 0 .02.214l.003.02c.097.864.368 2.172.823 3.098a.6.6 0 0 1 .015.034c.787 1.591 1.908 2.191 3.629 1.944 3.55-.488 5.058-4.863 5.542-6.721.847-3.256 1.927-5.018 3.21-5.238.54-.092 1.348.04 2.133 1.2l.029.044c.547.834.919 1.907 1.21 2.85a.79.79 0 0 1-1.51.463c-.261-.849-.59-1.807-1.039-2.476a.536.536 0 0 1-.02-.032c-.275-.396-.476-.507-.536-.497-.36.061-1.205 1.224-1.949 4.081-1.192 4.576-3.688 7.45-6.85 7.885a6.555 6.555 0 0 1-.93.07Z"/>
    <path fill="#646464" d="M221.676 99.19a.788.788 0 0 1-.35-1.493c1.265-.62 3.342-1.48 6.06-2.045a.787.787 0 1 1 .33 1.54l-.008.002c-2.556.53-4.501 1.334-5.683 1.915a.789.789 0 0 1-.349.081Zm-.16 14.406a.789.789 0 0 1-.602-.278c-1.183-1.387-3.607-2.965-5.406-3.518a.787.787 0 1 1 .466-1.504c2.075.638 4.774 2.396 6.143 4.003a.785.785 0 0 1-.601 1.296Z"/>
    <path fill="#646464" d="M186.904 135.942c-.487 0-.987-.067-1.518-.212-1.48-.405-2.689-1.513-3.406-3.12-1.118-2.505-.94-5.908.451-8.671 3.215-6.363 7.436-7.458 13.278-8.973l1.005-.261c3.4-.891 5.662-3.012 6.175-5.74-1.597-.646-2.784-2.434-3.232-4.93-.35-2.017-.143-4.789.15-6.626a.787.787 0 0 1 0-.295c1.417-7.386 5.436-10.953 8.558-12.644 2.977-1.612 6.494-2.19 9.452-1.63-.514-.905-1.004-1.705-1.455-2.442-1.36-2.22-2.433-3.974-2.777-6.378-.338-2.358.599-4.347 2.507-5.32 2.925-1.493 7.126-.236 10.702 3.2 3.506 3.367 7.327 10.087 9.972 17.54 3.033 8.547 4.245 17.035 3.414 23.903-.322 4.75-1.76 8.126-4.388 10.284a96.393 96.393 0 0 1 2.363 2.71.785.785 0 0 1-.073 1.11.791.791 0 0 1-1.138-.1 96.887 96.887 0 0 0-2.899-3.297.786.786 0 0 1 .135-1.18c2.666-1.829 4.114-4.986 4.426-9.653a.65.65 0 0 1 .004-.043c1.819-14.932-6.567-34.048-12.91-40.14-3.507-3.37-6.99-3.9-8.888-2.933-1.3.663-1.906 2.01-1.663 3.697.298 2.083 1.247 3.634 2.561 5.78.72 1.175 1.534 2.506 2.4 4.18.2.386.048.86-.34 1.06a.792.792 0 0 1-.658.03c-2.146-.87-6.05-1.13-9.992 1.005-2.8 1.517-6.402 4.724-7.729 11.394a.81.81 0 0 1 .001.261c-.31 1.847-.485 4.496-.179 6.254.374 2.083 1.352 3.546 2.56 3.837l.04.002a.788.788 0 0 1 .731.926c-.346 3.695-3.118 6.571-7.428 7.7l-1.009.263c-5.643 1.463-9.371 2.43-12.264 8.156-1.188 2.358-1.353 5.233-.42 7.324.37.826 1.082 1.886 2.382 2.242 1.763.482 3.145-.232 5.652-1.529 2.286-1.183 5.416-2.802 10.336-4.174 3.383-.855 6.714-.422 9.935-.003 5.305.69 10.317 1.341 15.447-3.44a.79.79 0 0 1 .483-.21 18.664 18.664 0 0 0 2.13-.267.787.787 0 1 1 .293 1.547 19.89 19.89 0 0 1-2.034.27c-5.604 5.08-11.154 4.359-16.524 3.66-3.215-.418-6.252-.813-9.323-.036-4.744 1.323-7.79 2.9-10.016 4.05-2.071 1.072-3.598 1.862-5.28 1.862Z"/>
  </g>
</svg>
