<svg xmlns="http://www.w3.org/2000/svg" viewBox="0 0 256 256">
  <g fill="none" fill-rule="evenodd">
    <path fill="#CACACA" d="M152.526 26.402c0 1.454-.071 2.882-.207 4.268h-27.836a43.914 43.914 0 0 1-.206-4.268C124.277 12.624 130.6.808 138.4.808c7.802 0 14.125 11.816 14.125 25.594"/>
    <path fill="#646464" d="M125.222 29.863h26.359a43.73 43.73 0 0 0 .138-3.461c0-13.436-6.1-24.786-13.318-24.786-7.219 0-13.317 11.35-13.317 24.786 0 1.157.046 2.318.138 3.46Zm27.097 1.615h-27.836a.807.807 0 0 1-.803-.729c-.14-1.428-.21-2.89-.21-4.347C123.47 11.844 130.168 0 138.4 0c8.233 0 14.931 11.844 14.931 26.402 0 1.456-.07 2.92-.21 4.347a.807.807 0 0 1-.803.729Z"/>
    <path fill="#FFF" d="M137.028 15.955c-2.11.05-3.843.05-5.887.05-.232-3.49.56-7.137 2.387-10.604 1.69-.458 3.22-.367 5.062-.05-1.44 3.49-1.96 7.146-1.561 10.604Zm25.848 15.651v4.562h-48.948v-4.562c0-6.63 5.052-12.179 11.646-12.763 1.194-.104 2.388-.194 3.586-.269a146.072 146.072 0 0 1 22.07.268c6.595.585 11.646 6.133 11.646 12.764"/>
    <path fill="#646464" d="M114.735 35.36h47.334v-3.754c0-6.266-4.69-11.407-10.91-11.959a145.864 145.864 0 0 0-17.012-.498c-1.64.048-3.301.126-4.936.232-1.155.071-2.322.159-3.568.267-6.218.551-10.908 5.692-10.908 11.958v3.754Zm48.141 1.616h-48.948a.807.807 0 0 1-.807-.808v-4.562c0-7.11 5.323-12.942 12.381-13.568 1.262-.11 2.441-.197 3.608-.27 1.65-.106 3.33-.185 4.99-.234 5.707-.168 11.494.002 17.2.504 7.06.626 12.383 6.46 12.383 13.568v4.562a.807.807 0 0 1-.807.808Zm82.742 105.977c-1.104.536-2.424 1.17-3.906 1.877-14.06 6.689-42.825 19.875-42.825 19.875-.506.236-.984.462-1.446.675-.045.023-.09.042-.135.062-1.236.569-2.344 1.037-3.5 1.36-1.932.579-2.836.359-5.257.359l1.181-4.498 3.796-.682c7.95-48.817 11.523-96.18 12.798-130.51l-3.328-.227-.055-5.554c1.314.349 2.473.559 3.486 1.095.404.213.868.575 1.304.915.349.271.713.588 1.1.963l8.674 7.596 5.71 5.002a16.121 16.121 0 0 1 3.366 4.107c14.637 25.51 24.075 58.151 25.566 85.151.488 8.863-3.376 10.896-6.53 12.434Z"/>
    <path fill="#646464" d="m189.592 166.365.486.012c1.385.035 2.149.054 3.498-.35 1.11-.31 2.157-.751 3.393-1.32.053-.023.082-.035.111-.05l.838-.39.63-.294c.29-.134 28.924-13.263 42.818-19.872a690.116 690.116 0 0 0 3.898-1.874c2.916-1.422 6.543-3.192 6.078-11.663-1.524-27.588-11.28-60.08-25.46-84.794a15.283 15.283 0 0 0-3.199-3.901l-14.382-12.598a12.756 12.756 0 0 0-1.064-.933c-.398-.31-.846-.658-1.186-.838-.662-.35-1.421-.552-2.292-.77l.037 3.76 2.582.175c.436.03.768.4.752.835-.934 25.14-3.839 75.538-12.808 130.611a.808.808 0 0 1-.654.665l-3.289.59-.787 2.999Zm1.461 1.645c-.32 0-.652-.009-1.016-.018-.434-.011-.918-.024-1.488-.024a.808.808 0 0 1-.78-1.013l1.18-4.497a.807.807 0 0 1 .639-.59l3.233-.581c8.791-54.2 11.707-103.795 12.667-129.064l-2.547-.173a.808.808 0 0 1-.752-.798l-.055-5.555a.809.809 0 0 1 1.014-.788c.28.074.554.142.82.209 1.006.25 1.955.487 2.836.952.465.246.951.624 1.42.99.384.298.76.628 1.154 1.007l14.367 12.585a16.884 16.884 0 0 1 3.535 4.313c14.299 24.92 24.136 57.685 25.673 85.509.524 9.543-3.993 11.746-6.983 13.205a631.896 631.896 0 0 1-3.91 1.88c-13.906 6.615-42.55 19.748-42.837 19.88l-.621.29-.823.385a2.939 2.939 0 0 1-.15.067c-1.293.595-2.407 1.064-3.605 1.399a9.47 9.47 0 0 1-2.971.43Z"/>
    <path fill="#646464" d="M190.756 168.01c-.368 0-.728-.01-1.092-.02-.36-.01-.728-.021-1.115-.021a.807.807 0 0 1 0-1.616c.403 0 .786.011 1.162.022 1.999.058 3.724.107 7.37-1.717 1.467-.679 3.533-1.63 6.02-2.775 10.332-4.758 27.626-12.721 38.265-17.782.534-.256 1.056-.498 1.563-.734 5.543-2.578 8.89-4.134 8.413-12.804-1.524-27.587-11.28-60.079-25.46-84.793-1.377-2.398-2.927-3.716-5.274-5.711a111.465 111.465 0 0 1-3.637-3.194 264.95 264.95 0 0 1-7.909-6.907c-1.9-1.72-3.72-2.806-5.462-3.26-.262-.069-.55-.143-.866-.227a.808.808 0 0 1 .414-1.562l.859.225c2.94.767 3.054.834 6.137 3.626a262.762 262.762 0 0 0 7.88 6.88l.028.025a109.68 109.68 0 0 0 3.6 3.163c2.477 2.104 4.113 3.494 5.629 6.137 14.298 24.92 24.135 57.685 25.672 85.51.537 9.763-3.608 11.69-9.344 14.357-.502.233-1.019.474-1.55.727-10.648 5.066-27.948 13.032-38.284 17.792-2.486 1.144-4.55 2.095-5.995 2.763-3.303 1.653-5.246 1.897-7.024 1.897Z"/>
    <path fill="#FFF" d="M195.263 23.915c-1.385-.139-2.73-.103-4.948-.1h-.139v.003L60.885 26.565a3.222 3.222 0 0 0-3.03 2.336c-4.1 14.295-8.122 31.695-11.375 49.473-3.299 18.043-5.804 36.48-6.782 52.445a3.225 3.225 0 0 0 2.89 3.402l127.27 13.211 4.172 6.661 11.137-6.708-6.791-9.121-1.76.818c2.34-36.476 7.916-73.695 17.178-109.602h3.322l1.307-4.963c-1.259-.33-2.218-.508-3.16-.601Z"/>
    <path fill="#646464" d="M190.248 24.623a.79.79 0 0 1-.055.003L60.902 27.372a2.4 2.4 0 0 0-2.272 1.75c-4.13 14.4-8.162 31.942-11.357 49.397-3.505 19.173-5.846 37.275-6.77 52.35a2.41 2.41 0 0 0 2.167 2.549l127.27 13.21a.807.807 0 0 1 .6.374l3.752 5.99 9.695-5.84-5.866-7.88-1.166.542a.805.805 0 0 1-1.145-.785c2.44-38.036 8.229-74.962 17.203-109.752a.807.807 0 0 1 .781-.606h2.7l.94-3.568a17.428 17.428 0 0 0-2.251-.384h-.001c-1.106-.112-2.177-.107-3.8-.1l-1.134.004ZM174.031 154.9a.806.806 0 0 1-.685-.378l-3.963-6.327-126.88-13.17a4.022 4.022 0 0 1-3.61-4.256c.927-15.137 3.276-33.306 6.793-52.541 3.203-17.505 7.25-35.103 11.392-49.55a4.006 4.006 0 0 1 3.79-2.921l129.218-2.745a.822.822 0 0 1 .09-.005l1.2-.004c1.612-.006 2.778-.011 3.967.108 1.008.1 2.02.292 3.284.623a.808.808 0 0 1 .576.988l-1.307 4.963a.807.807 0 0 1-.78.602h-2.696c-8.754 34.1-14.441 70.253-16.91 107.489l.526-.245a.806.806 0 0 1 .987.25l6.79 9.121a.807.807 0 0 1-.23 1.175l-11.137 6.708a.804.804 0 0 1-.415.115Z"/>
    <path fill="#FFF" d="M163.616 35.105a398.36 398.36 0 0 0-1.624 6.226H76.965a3.21 3.21 0 0 0-1.607.433L64.28 31.437a3.197 3.197 0 0 1 1.556-.403h94.665c2.317 0 3.715 1.828 3.115 4.07Z"/>
    <path fill="#646464" d="m65.897 31.841 9.61 8.958a4.015 4.015 0 0 1 1.458-.275h84.399c.47-1.855.965-3.746 1.472-5.63.224-.837.108-1.61-.326-2.176-.433-.565-1.146-.877-2.01-.877H65.898Zm9.46 10.731a.805.805 0 0 1-.55-.216L63.73 32.029a.808.808 0 0 1 .158-1.298 4.015 4.015 0 0 1 1.948-.505H160.5c1.376 0 2.544.536 3.29 1.508.747.974.961 2.246.604 3.58v.001a397.07 397.07 0 0 0-1.62 6.214.807.807 0 0 1-.783.61H76.965c-.42 0-.836.113-1.204.325a.805.805 0 0 1-.403.108Z"/>
    <path fill="#646464" d="M75.358 41.764a3.246 3.246 0 0 0-1.269 1.328c-8.095 15.652-13.13 41.886-13.83 63.59-.162 5.063-.09 9.881.235 14.26a3.242 3.242 0 0 0 1.278 2.342L47.27 127.85a3.224 3.224 0 0 1-1.087-2.721c1.004-11.08 4.835-49.179 16.542-91.733.238-.86.81-1.555 1.555-1.959l11.078 10.327Z"/>
    <path fill="#646464" d="M64.205 32.471a2.38 2.38 0 0 0-.703 1.141c-10.661 38.755-14.924 74.019-16.516 91.59a2.43 2.43 0 0 0 .518 1.727l12.822-4.036a4.042 4.042 0 0 1-.636-1.892c-.323-4.335-.403-9.161-.238-14.344.762-23.617 6.356-49.31 13.92-63.936a4.13 4.13 0 0 1 .741-1.013l-9.908-9.237ZM47.27 128.657a.807.807 0 0 1-.531-.2 4.05 4.05 0 0 1-1.36-3.401c1.597-17.625 5.873-52.997 16.567-91.875a4.028 4.028 0 0 1 1.95-2.454.807.807 0 0 1 .934.12l11.077 10.326a.807.807 0 0 1-.15 1.293c-.403.23-.732.575-.952.999-7.463 14.43-12.985 39.846-13.74 63.243-.163 5.126-.085 9.894.234 14.173.051.694.401 1.335.96 1.759a.809.809 0 0 1-.245 1.414l-14.502 4.566a.81.81 0 0 1-.242.037Z"/>
    <path fill="#FFF" d="M147.193 130.596a265.992 265.992 0 0 0-.245 4.585 3.2 3.2 0 0 1-3.55 3.067c-53.044-5.406-41.002-4.182-94.32-9.61a3.218 3.218 0 0 1-1.808-.788l14.502-4.566a3.23 3.23 0 0 0 1.689.64l5.025.4 46.889 3.736 31.818 2.536Z"/>
    <path fill="#646464" d="M49.801 127.9c36.37 3.702 41.969 4.273 59.447 6.055l34.231 3.489a2.414 2.414 0 0 0 1.842-.573 2.39 2.39 0 0 0 .82-1.725c.059-1.295.125-2.572.198-3.808l-82.943-6.61a4.05 4.05 0 0 1-1.75-.558L49.8 127.9Zm93.941 11.172c-.141 0-.283-.007-.425-.02l-34.232-3.49c-17.58-1.792-23.144-2.359-60.089-6.12a4.01 4.01 0 0 1-2.26-.986.808.808 0 0 1 .292-1.377l14.502-4.566a.806.806 0 0 1 .729.126c.364.276.802.442 1.267.48l83.731 6.672a.808.808 0 0 1 .741.855c-.091 1.47-.174 3.008-.244 4.571a3.992 3.992 0 0 1-1.376 2.875 3.99 3.99 0 0 1-2.636.98Z"/>
    <path fill="#CACACA" d="M160.697 41.333H76.965a3.24 3.24 0 0 0-2.876 1.761c-4.31 8.33-7.75 19.662-10.135 31.71-2.092 10.59-3.367 21.727-3.696 31.88-.074 2.333-.1 4.61-.071 6.82.03 2.589.13 5.077.307 7.439a3.233 3.233 0 0 0 2.966 2.982l5.025.401 46.889 3.735 31.818 2.537c.078-1.267.168-2.55.262-3.845 1.933-25.763 7.485-56.84 13.73-82.189.268-1.089.536-2.165.807-3.231h-1.294Z"/>
    <path fill="#FFF" d="M192.17 167.144c-1.065.152-2.223.168-3.589.02l-.032-.003-1.933-.23-61.733-7.325-60.81-7.212-4.696-.556-9.086-9.099-8.601-8.61 131.821 13.683a6.457 6.457 0 0 1 4.267 2.259l14.393 17.073Z"/>
    <path fill="#646464" d="M188.653 166.36h.016c.658.073 1.277.104 1.867.098l-13.375-15.866a5.62 5.62 0 0 0-3.733-1.976l-129.56-13.45L59.75 151.07l65.228 7.735 63.66 7.554.015.001Zm1.729 1.715c-.602 0-1.228-.036-1.888-.108l-.017-.002-.023-.002-129.171-15.322a.808.808 0 0 1-.476-.231L41.119 134.7a.809.809 0 0 1 .654-1.375l131.822 13.684a7.226 7.226 0 0 1 4.8 2.54l14.392 17.074a.806.806 0 0 1-.503 1.321c-.61.087-1.241.13-1.903.13Z"/>
    <path fill="#FFF" d="M160.697 41.333h-51.914c-1.727 1.01-3.74 2.176-5.438 3.225l-.012.005c-11.456 7.131-22.158 15.01-32.378 23.911a255.72 255.72 0 0 0-7.001 6.33c-2.091 10.588-3.367 21.726-3.696 31.879-.074 2.333-.1 4.61-.071 6.82a286.16 286.16 0 0 1 4.993-5.644c25.56-28.168 53.796-48.095 88.003-63.295h.003a344.773 344.773 0 0 1 7.51-3.231Z"/>
    <path fill="#646464" d="M76.965 42.14c-.91 0-1.737.507-2.16 1.325-4.053 7.836-7.532 18.727-10.06 31.496-2.075 10.506-3.347 21.484-3.68 31.748a151.795 151.795 0 0 0-.07 6.784c.029 2.604.131 5.09.304 7.388a2.413 2.413 0 0 0 2.225 2.238l82.915 6.607c.065-1.002.137-2.013.21-3.033 1.792-23.871 6.933-54.646 13.752-82.324.185-.749.369-1.491.554-2.23h-83.99Zm70.228 89.265a.86.86 0 0 1-.064-.003l-83.733-6.672a4.02 4.02 0 0 1-3.707-3.728 118.926 118.926 0 0 1-.309-7.49c-.028-2.165-.004-4.472.072-6.855.335-10.35 1.618-21.42 3.71-32.01C65.72 61.73 69.25 50.69 73.372 42.72a4.036 4.036 0 0 1 3.593-2.197h85.027a.806.806 0 0 1 .782 1.007 490 490 0 0 0-.806 3.225c-6.799 27.596-11.924 58.271-13.709 82.056-.093 1.29-.183 2.57-.26 3.834a.809.809 0 0 1-.806.759Z"/>
    <path fill="#CACACA" d="M194.49 26.809c-10.237 38.843-16.133 79.287-18.257 118.717-.076 1.404.609 3.432 1.515 4.507l13.715 16.27c.618.734 1.256.559 1.415-.388 8.71-52.04 12.403-102.786 13.584-138.269.02-.568-.416-1.147-.966-1.29l-7.074-1.841c-1.707-.444-3.482.587-3.931 2.294Z"/>
    <path fill="#FFF" d="M241.36 132.274c.194 10.453-6.21 19.287-14.889 21.284l-.094.982-5.083-.617-.142-.016v-.007c-7.96-.756-14.421-7.173-16.403-15.655a23.69 23.69 0 0 1-.575-3.874 23.75 23.75 0 0 1-.051-2.097c.07-3.88 1.007-7.506 2.582-10.63 3.253-6.463 9.254-10.78 16.035-10.783.471 0 .936.029 1.4.068v-.007l.065.013a16.05 16.05 0 0 1 2.944.553l.416.077 2.908.55-.067.7c6.313 3.377 10.793 10.777 10.954 19.459Z"/>
    <path fill="#646464" d="m221.344 153.116.041.004 4.268.518.015-.157a.807.807 0 0 1 .623-.71c8.448-1.944 14.446-10.559 14.263-20.482-.15-8.056-4.282-15.42-10.528-18.761a.808.808 0 0 1-.426-.757l-2.598-.49a.769.769 0 0 1-.075-.017 15.283 15.283 0 0 0-2.834-.53h-.02a15.38 15.38 0 0 0-1.333-.066c-9.61.003-17.6 9.253-17.81 20.62-.203 10.779 6.956 19.918 16.299 20.807.04.004.078.01.115.02Zm5.033 2.232a.817.817 0 0 1-.097-.006l-5.22-.633a.722.722 0 0 1-.088-.015c-10.127-1.026-17.875-10.857-17.656-22.435.11-5.94 2.175-11.51 5.817-15.687 3.664-4.202 8.496-6.518 13.607-6.52.406 0 .831.02 1.37.064a.783.783 0 0 1 .189.014l.024.005c1.026.098 2.039.288 3.011.565l3.29.62c.41.078.693.456.653.872l-.017.174c6.488 3.722 10.75 11.464 10.907 19.893.194 10.461-6.06 19.586-14.947 21.945l-.04.412a.807.807 0 0 1-.803.732Z"/>
    <path fill="#CACACA" d="M245.624 133.246c0 10.511-6.287 19.161-14.492 21.003a14.904 14.904 0 0 1-3.55.362c-9.874-.188-17.704-9.749-17.708-21.365.004-11.613 7.834-21.177 17.707-21.361 2.712-.052 5.297.636 7.618 1.906 6.126 3.351 10.428 10.767 10.425 19.455Z"/>
    <path fill="#646464" d="M228.406 144.917c-4.445-.083-8.203-5.428-8.204-11.673.002-9.051 7.795-15.635 13.412-8.911 1.89 2.26 2.972 5.509 2.971 8.911 0 3.407-1.082 6.656-2.972 8.917-.86 1.03-2.668 2.757-5.107 2.757h-.1Z"/>
    <path fill="#646464" d="M228.418 144.11h.096c2.103 0 3.71-1.546 4.48-2.467 1.77-2.118 2.785-5.18 2.784-8.398.001-3.217-1.013-6.276-2.783-8.394-1.82-2.18-4.011-2.948-6.168-2.165-3.37 1.225-5.817 5.665-5.818 10.559.001 5.813 3.394 10.787 7.41 10.865Zm.088 1.616h-.114c-4.876-.092-8.995-5.807-8.997-12.481.001-5.55 2.896-10.63 6.881-12.078 2.802-1.017 5.702-.052 7.957 2.647 2.009 2.404 3.16 5.842 3.16 9.43 0 3.592-1.152 7.031-3.16 9.435-.951 1.138-2.96 3.047-5.727 3.047Z"/>
    <path fill="#646464" d="M227.87 112.69c-.09 0-.182 0-.273.002-9.325.174-16.913 9.395-16.916 20.554.003 11.158 7.591 20.38 16.916 20.557 1.122.02 2.252-.094 3.358-.342 8.032-1.803 13.862-10.305 13.862-20.215.003-8.062-3.924-15.42-10.005-18.746-2.196-1.202-4.53-1.81-6.941-1.81Zm-.014 42.731c-.097 0-.193-.001-.29-.003-5.004-.095-9.678-2.47-13.162-6.69-3.44-4.165-5.335-9.664-5.337-15.482.002-5.817 1.897-11.315 5.337-15.48 3.485-4.22 8.159-6.595 13.162-6.689 2.792-.055 5.49.622 8.02 2.005 6.591 3.605 10.848 11.52 10.845 20.165 0 10.659-6.36 19.823-15.123 21.79a15.793 15.793 0 0 1-3.452.384Z"/>
    <path fill="#FFF" d="M107.867 146.768c-4.651 2.204-8.944 4.54-13.26 6.301-10.512 4.291-20.564 7.443-28.732 8.256-8.201.816-13.934-1.312-18.585-4.627a18.74 18.74 0 0 1-1.12-.866c-4.287-3.558-6.388-8.586-5.8-13.982.255-2.326.98-4.63 2.153-6.889l7.769 7.778 2.007 2.01.139.139c.258.656.781 1.36 1.778 2.07.236.169.5.322.778.492 10.937 6.643 37.774-6.13 47.767-10.844 2.918-1.383 6.494-.85 7.95 2.204a5.98 5.98 0 0 1-2.844 7.958"/>
    <path fill="#646464" d="M42.752 136.333c-.845 1.856-1.376 3.737-1.58 5.605-.56 5.143 1.398 9.856 5.513 13.272.333.279.683.55 1.075.831 5.269 3.756 11 5.18 18.035 4.48 7.388-.736 16.98-3.494 28.508-8.2 2.793-1.14 5.558-2.514 8.486-3.969 1.531-.76 3.115-1.548 4.732-2.314a5.177 5.177 0 0 0 2.46-6.883c-1.296-2.718-4.44-2.973-6.875-1.819l-.28.132c-5.004 2.36-14.316 6.755-23.61 9.67-11.504 3.609-19.795 3.946-24.64 1.002l-.139-.083a10.574 10.574 0 0 1-.69-.44c-.969-.691-1.622-1.436-1.992-2.27l-9.004-9.014Zm19.671 25.977c-5.88 0-10.906-1.608-15.601-4.955a19.454 19.454 0 0 1-1.17-.904c-4.477-3.716-6.696-9.07-6.084-14.688.263-2.405 1.016-4.818 2.239-7.174a.808.808 0 0 1 1.286-.199l9.916 9.926a.81.81 0 0 1 .18.275c.233.594.737 1.169 1.496 1.71.17.121.373.244.587.373l.141.085c10.466 6.357 36.809-6.073 46.726-10.752l.278-.132c3.08-1.46 7.289-1.05 9.022 2.586a6.744 6.744 0 0 1 .256 5.189 6.742 6.742 0 0 1-3.482 3.848c-1.604.76-3.18 1.543-4.705 2.301-2.955 1.468-5.747 2.855-8.595 4.018-11.672 4.764-21.415 7.56-28.957 8.311a35.68 35.68 0 0 1-3.532.182Zm18.051 75.646 4.026 3.874-25.057-36.056-.38 1.331 21.41 30.85Zm9.344 10.92a.805.805 0 0 1-.56-.226l-9.96-9.585a.81.81 0 0 1-.104-.122l-21.675-31.23a.809.809 0 0 1-.113-.684l.952-3.335a.807.807 0 0 1 1.438-.24l30.684 44.153a.808.808 0 0 1-.662 1.269Z"/>
    <path fill="#FFF" d="m72.098 205.642 2.217 10.794-34.823-6.91L8.07 181.327l2.01-13.049a.644.644 0 0 1 .746-.539c20.214 3.517 55.12 16.143 61.272 37.902Z"/>
    <path fill="#646464" d="m39.866 208.776 33.413 6.63-1.965-9.572c-2.656-9.35-11.284-18.087-24.953-25.269-10.33-5.427-23.59-9.907-35.508-12l-1.919 12.453 30.932 27.758Zm34.449 8.468a.807.807 0 0 1-.157-.016l-34.823-6.91a.805.805 0 0 1-.382-.191L7.532 181.929a.808.808 0 0 1-.26-.724l2.011-13.049c.06-.39.27-.73.59-.96a1.435 1.435 0 0 1 1.091-.252c12.116 2.108 25.629 6.665 36.146 12.19 14.085 7.4 22.994 16.49 25.764 26.288.006.019.01.038.014.057l2.217 10.794a.808.808 0 0 1-.79.97Z"/>
    <path fill="#646464" d="M28.492 177.103c-3.93-3.915-2.811-8.754-.692-12.216-2.334-1.167-3.752-2.176-5.414-3.68-1.773.893-2.66 1.346-4.002 2.326-1.784 3.199-1.62 8.18.795 12.608 2.353.464 6.737.733 9.313.962Z"/>
    <path fill="#646464" d="M19.71 175.417c1.807.314 4.598.537 6.871.718l.054.004c-2.822-4.111-1.234-8.541.044-10.92a21.932 21.932 0 0 1-4.42-3.044c-1.43.726-2.188 1.138-3.253 1.905-1.57 2.982-1.288 7.47.704 11.337Zm8.783 2.494a.764.764 0 0 1-.072-.004c-.579-.05-1.25-.105-1.968-.162-2.478-.197-5.562-.443-7.43-.812a.807.807 0 0 1-.551-.405c-2.482-4.546-2.792-9.801-.792-13.389a.805.805 0 0 1 .229-.259c1.42-1.036 2.377-1.519 4.114-2.394a.806.806 0 0 1 .904.122c1.714 1.551 3.083 2.482 5.233 3.556a.807.807 0 0 1 .327 1.145c-1.512 2.47-3.449 7.214.574 11.221a.808.808 0 0 1-.569 1.38Z"/>
    <path fill="#FFF" d="M62.12 195.51C49.83 183.63 29 176.101 13.931 172.92l-.919 4.65 24.34 7.635 24.766 10.304Z"/>
    <path fill="#646464" d="M36.478 180.668a.805.805 0 0 1-.304-.06 132.704 132.704 0 0 0-22.408-6.898.808.808 0 0 1 .333-1.58 134.295 134.295 0 0 1 22.685 6.982.808.808 0 0 1-.306 1.556Z"/>
    <path fill="#FFF" d="m46.632 188.344-.794 2.003-21.277-9.154.388-1.816c7.169 2.217 14.754 5.205 21.683 8.967"/>
    <path fill="#646464" d="M46.633 189.153a.799.799 0 0 1-.384-.098c-10.806-5.866-24.793-10.629-37.416-12.74a.808.808 0 0 1 .266-1.594c12.79 2.14 26.965 6.967 37.92 12.914a.808.808 0 0 1-.386 1.518Z"/>
    <path fill="#FFF" d="m168.621 170.718-2.412 14.283-90.765 37.049-2.36-11.43c-9.744-27.799 53.803-52.789 90.636-53.471a.646.646 0 0 1 .624.447l4.277 13.122Z"/>
    <path fill="#646464" d="M163.613 157.959c-29.165.581-73.338 16.135-86.694 35.373-3.986 5.741-5.02 11.467-3.073 17.02a.776.776 0 0 1 .029.104l2.163 10.479 89.45-36.512 2.304-13.643-4.178-12.821Zm-88.169 64.898a.808.808 0 0 1-.79-.644l-2.349-11.378c-2.104-6.053-.997-12.252 3.288-18.425 6.462-9.307 20.14-18.332 38.516-25.413 16.621-6.405 35.162-10.389 49.595-10.656a1.448 1.448 0 0 1 1.407 1.005l4.277 13.122a.81.81 0 0 1 .028.385l-2.412 14.283a.807.807 0 0 1-.491.614l-90.765 37.048a.804.804 0 0 1-.304.06Z"/>
    <path fill="#646464" d="M131.956 167.266a.807.807 0 0 1-.234-1.581c10.224-3.1 22.868-5.035 33.824-5.177a.807.807 0 0 1 .02 1.616c-10.812.14-23.29 2.049-33.376 5.107a.808.808 0 0 1-.235.035Z"/>
    <path fill="#FFF" d="m3.808 181.601.712-2.25.002.003c17.55.403 47.455 12.021 57.89 23.77l-.919 3.229c8.182 6.318 17.78 4.927 23.67-4.552l1.31-4.588c20.516-16.639 62.03-28.827 85.932-27.324l1.321 3.018-109.38 48.053-60.538-39.359Z"/>
    <path fill="#646464" d="m4.763 181.258 59.656 38.787 108.244-47.554-.8-1.825c-22.766-1.236-63.487 9.959-84.685 27.015l-1.239 4.341a.808.808 0 0 1-.09.205c-2.971 4.78-6.944 7.741-11.491 8.563-4.474.809-9.093-.504-13.358-3.798a.808.808 0 0 1-.283-.861l.796-2.797c-9.948-10.795-38.47-22.499-56.409-23.155l-.341 1.08Zm59.582 40.51a.808.808 0 0 1-.44-.13L3.37 182.278a.808.808 0 0 1-.33-.921l.712-2.25a.807.807 0 0 1 .851-.56c8.51.209 20.403 3.08 31.834 7.688 11.934 4.81 21.621 10.77 26.58 16.353a.809.809 0 0 1 .172.758l-.767 2.694c3.77 2.766 7.787 3.858 11.65 3.16 4.056-.733 7.632-3.406 10.348-7.731l1.278-4.478a.809.809 0 0 1 .268-.406c9.78-7.932 24.684-15.251 41.965-20.61 16.52-5.12 32.748-7.633 44.525-6.893.301.02.567.205.688.482l1.322 3.018a.808.808 0 0 1-.415 1.064L64.669 221.699a.807.807 0 0 1-.324.069Z"/>
    <path fill="#CACACA" d="m173.725 172.907-.416 10.567-1.799 45.56c-19.11-3.628-44.526 5.22-56.311 15.518l-1.55-2.664-24.664-42.382c20.516-16.64 60.84-28.105 84.74-26.6Z"/>
    <path fill="#646464" d="m115.199 244.553-1.31 4.588-2.055-3.529-24.159-41.517 1.31-4.588 24.663 42.382zm-25.379 3.515c-13.192-16.952-28.087-24.592-40.783-26.03l-45.23-40.436c.72-.014 1.556.022 2.488.109 12.538 1.156 42.862 11.115 52.807 22.314l-.416 1.467-.503 1.76 8.32 11.989 2.25-1.486 11.928 17.163 9.139 13.15Z"/>
    <path fill="#646464" d="M49.384 221.265c11.25 1.342 22.458 7.16 32.42 16.684L68.54 218.862l-1.593 1.052a.806.806 0 0 1-1.107-.213l-8.32-11.989a.809.809 0 0 1-.113-.683l.797-2.794c-10.087-10.892-39.597-20.578-51.983-21.72l-.202-.019 43.365 38.768Zm40.436 27.61a.806.806 0 0 1-.637-.31c-11.649-14.97-25.939-24.105-40.237-25.725a.808.808 0 0 1-.447-.2L3.27 182.204a.808.808 0 0 1 .522-1.41 23.35 23.35 0 0 1 2.579.112c12.732 1.174 43.295 11.277 53.335 22.582a.808.808 0 0 1 .173.757l-.814 2.86 7.652 11.027 1.592-1.052a.806.806 0 0 1 1.107.213l21.067 30.314a.809.809 0 0 1-.661 1.269Z"/>
    <path fill="#FFF" d="M30.597 182.389c-4.065 1.243-3.62 6.983-.973 10.212.285-.666.9-1.372 1.52-1.697 1.002.966 3.257 2.34 5.01 2.93-2.905-3.638-2.01-10.133 4.52-8.397-1.47-.583-4.385-1.913-6.5-2.808-1.132-.479-2.402-.6-3.576-.24Z"/>
    <path fill="#646464" d="M31.144 190.096c.204 0 .406.078.56.226.522.504 1.497 1.182 2.557 1.768-.737-2.005-.654-4.198.346-5.733a4.311 4.311 0 0 1 2.17-1.715c-1-.44-2.032-.894-2.917-1.269-1.006-.425-2.081-.5-3.027-.211-1.123.343-1.87 1.108-2.223 2.273-.503 1.668-.088 3.927.985 5.724.349-.408.761-.753 1.175-.97a.803.803 0 0 1 .374-.093Zm5.01 4.547a.81.81 0 0 1-.258-.043c-1.539-.518-3.545-1.646-4.806-2.67-.3.273-.576.642-.724.99a.808.808 0 0 1-1.366.194c-1.89-2.307-2.686-5.657-1.934-8.146.51-1.689 1.65-2.848 3.296-3.351 1.307-.4 2.772-.305 4.126.268.907.384 1.96.847 2.976 1.294 1.377.606 2.677 1.178 3.507 1.506a.808.808 0 0 1-.503 1.532c-2.143-.569-3.702-.215-4.509 1.022-1.017 1.562-.655 4.237.825 6.092a.809.809 0 0 1-.63 1.312Z"/>
    <path fill="#CACACA" d="M113.889 249.14c-8.528 7.754-20.147 8.66-27.189-.814a20.749 20.749 0 0 1-.497-.696l-28.02-40.379c7.987 9.356 22.324 8.745 29.492-3.156l24.16 41.517 2.054 3.529Z"/>
    <path fill="#646464" d="m90.032 199.701 25.378 43.61c12.133-10.072 36.648-18.364 55.33-15.235l2.147-54.408c-22.59-1.13-61.585 9.142-82.855 26.033Zm25.167 45.66a.812.812 0 0 1-.697-.402l-26.214-45.045a.808.808 0 0 1 .189-1.035c9.744-7.903 24.438-15.095 41.374-20.25 16.081-4.894 32.091-7.274 43.925-6.528.437.027.773.4.756.838l-2.216 56.128a.809.809 0 0 1-.956.762c-18.714-3.553-43.874 5.06-55.63 15.333a.807.807 0 0 1-.531.199Z"/>
    <path fill="#646464" d="m88.546 203.986 25.087 43.11.695-2.435-25.087-43.11-.695 2.434Zm25.343 45.963a.806.806 0 0 1-.697-.401l-26.214-45.046a.808.808 0 0 1-.078-.629l1.31-4.588a.808.808 0 0 1 1.473-.185l26.213 45.046c.11.19.14.418.079.629l-1.31 4.588a.808.808 0 0 1-.776.586Z"/>
    <path fill="#646464" d="m62.38 211.884 24.486 35.285c.16.236.322.459.483.675 2.836 3.816 6.597 6.054 10.877 6.47 4.858.474 10.158-1.468 14.633-5.339l-25.217-43.333c-3.513 5.152-8.695 8.342-14.397 8.812-3.843.317-7.598-.596-10.865-2.57ZM99.674 256c-.538 0-1.073-.026-1.604-.077-4.745-.462-8.9-2.922-12.017-7.115a22.015 22.015 0 0 1-.517-.724L57.52 207.712a.808.808 0 0 1 1.277-.986c3.7 4.334 8.916 6.564 14.315 6.118 5.585-.461 10.642-3.802 13.873-9.167a.808.808 0 0 1 1.388.011l26.214 45.046a.808.808 0 0 1-.155 1.004c-4.434 4.032-9.73 6.262-14.757 6.262Z"/>
    <path fill="#FFF" d="m124.136 218.222 13.955-25.791"/>
    <path fill="#646464" d="M124.135 219.03a.809.809 0 0 1-.709-1.193l13.956-25.79a.806.806 0 1 1 1.42.769l-13.956 25.791a.807.807 0 0 1-.71.423Z"/>
    <path fill="#FFF" d="m123.784 217.814-16.865-18.647"/>
    <path fill="#646464" d="M123.785 218.622a.804.804 0 0 1-.599-.266l-16.865-18.647a.808.808 0 0 1 1.196-1.084l16.865 18.647a.808.808 0 0 1-.597 1.35Z"/>
    <path fill="#FFF" d="m106.919 199.167 31.172-6.736"/>
    <path fill="#646464" d="M106.918 199.975a.807.807 0 0 1-.17-1.598l31.173-6.736a.808.808 0 0 1 .34 1.58l-31.172 6.735a.796.796 0 0 1-.17.019"/>
    <path fill="#FFF" d="m139.154 192.431 13.974-8.673"/>
    <path fill="#646464" d="M139.154 193.239a.808.808 0 0 1-.426-1.494l13.975-8.673a.806.806 0 1 1 .85 1.373l-13.974 8.673a.803.803 0 0 1-.425.12Z"/>
    <path fill="#FFF" d="m158.405 198.424-1.907-13.629"/>
    <path fill="#646464" d="M158.404 199.232a.808.808 0 0 1-.798-.695l-1.907-13.63a.808.808 0 0 1 1.598-.224l1.907 13.63a.808.808 0 0 1-.8.92"/>
    <path fill="#FFF" d="M109.124 218.344c.22-8.797 8.077-15.286 16.294-14.17 8.238 1.102 13.936 7.758 13.73 14.525-.253 6.776-6.403 12.686-14.644 13.605-8.205.915-15.61-5.153-15.38-13.96"/>
    <path fill="#646464" d="M123.585 204.86c-3.153 0-6.274 1.153-8.77 3.281a13.915 13.915 0 0 0-4.884 10.223v.001c-.1 3.836 1.336 7.32 4.043 9.81 2.768 2.545 6.574 3.758 10.44 3.326 7.7-.858 13.687-6.375 13.928-12.832.203-6.672-5.52-12.689-13.03-13.693a12.852 12.852 0 0 0-1.727-.117Zm-.707 28.342c-3.726 0-7.296-1.355-9.996-3.837-3.055-2.81-4.676-6.731-4.564-11.04a15.532 15.532 0 0 1 5.45-11.414c3.302-2.814 7.588-4.103 11.76-3.537 8.317 1.113 14.655 7.855 14.427 15.35-.27 7.255-6.875 13.436-15.362 14.383a15.47 15.47 0 0 1-1.714.095Zm-12.263-36.439c1.368 1.734.668 4.45-1.763 5.807-2.43 1.36-5.211.576-6.027-1.472-.822-2.052.157-4.396 2.033-5.447 1.881-1.04 4.387-.63 5.757 1.112"/>
    <path fill="#646464" d="M107.083 195.887c-.626 0-1.26.153-1.836.471-1.579.885-2.315 2.836-1.673 4.44.265.665.824 1.178 1.574 1.444 1.024.364 2.231.227 3.31-.377 1.06-.591 1.783-1.514 1.986-2.532.152-.764-.012-1.499-.462-2.07-.704-.895-1.79-1.376-2.9-1.376Zm-.748 8.17a5.151 5.151 0 0 1-1.727-.292c-1.194-.425-2.093-1.265-2.532-2.368-.954-2.38.072-5.154 2.387-6.451 2.287-1.263 5.202-.697 6.785 1.316.748.949 1.024 2.151.778 3.387-.295 1.483-1.31 2.805-2.781 3.626a5.984 5.984 0 0 1-2.91.782Zm51.956-21.259c-.507 2.094-2.797 3.532-4.803 3.035-2.014-.493-2.825-2.602-2.132-4.56.702-1.967 2.502-3.142 4.33-2.78 1.82.366 3.121 2.21 2.605 4.305Z"/>
    <path fill="#646464" d="M155.035 179.237c-1.24 0-2.418.905-2.919 2.307-.298.842-.257 1.718.112 2.402.303.563.805.944 1.451 1.102.728.181 1.561.03 2.29-.411.78-.474 1.34-1.213 1.538-2.03v-.002c.19-.772.076-1.544-.322-2.172a2.578 2.578 0 0 0-1.657-1.147 2.531 2.531 0 0 0-.494-.049Zm-.735 7.5c-.342 0-.68-.039-1.006-.12a3.813 3.813 0 0 1-2.486-1.904c-.585-1.085-.663-2.438-.212-3.71.84-2.35 3.046-3.738 5.248-3.302a4.2 4.2 0 0 1 2.704 1.866c.636 1.004.823 2.22.527 3.423-.298 1.23-1.126 2.334-2.27 3.028a4.86 4.86 0 0 1-2.505.72Zm9.772 16.747c-.777 3.21-4.289 5.416-7.364 4.652-3.087-.756-4.33-3.988-3.268-6.992 1.075-3.014 3.835-4.815 6.64-4.26 2.789.56 4.782 3.387 3.992 6.6"/>
    <path fill="#646464" d="M159.08 197.593c-2.082 0-4.05 1.498-4.88 3.823-.497 1.406-.425 2.876.199 4.032.525.973 1.39 1.632 2.5 1.904 1.225.304 2.622.055 3.836-.682 1.293-.784 2.223-2.015 2.553-3.376v-.003c.32-1.3.125-2.603-.55-3.666a4.381 4.381 0 0 0-2.817-1.95 4.325 4.325 0 0 0-.841-.082Zm-1.126 11.5c-.49 0-.974-.056-1.44-.172-1.543-.378-2.799-1.339-3.536-2.705-.84-1.558-.949-3.504-.299-5.341 1.212-3.399 4.39-5.41 7.556-4.784a6.003 6.003 0 0 1 3.865 2.668c.913 1.439 1.181 3.185.755 4.917-.43 1.775-1.627 3.37-3.284 4.376-1.128.684-2.391 1.042-3.617 1.042Z"/>
    <path fill="#FFF" d="M140.408 186.908c3.283 1.528 4.801 5.876 3.14 8.943-1.654 3.083-5.433 3.445-8.292 1.575-2.872-1.89-4.051-5.044-2.81-7.79 1.244-2.725 4.683-4.275 7.962-2.728Z"/>
    <path fill="#646464" d="M137.73 187.104a5.07 5.07 0 0 0-1.745.309c-1.25.457-2.271 1.39-2.805 2.559-1.067 2.36-.054 5.086 2.52 6.78 1.393.91 3.01 1.226 4.435.862 1.176-.3 2.11-1.042 2.702-2.145.667-1.231.765-2.794.27-4.29-.526-1.595-1.634-2.885-3.038-3.538l-.004-.002a5.466 5.466 0 0 0-2.334-.535Zm1.21 12.273c-1.404 0-2.845-.437-4.124-1.274-3.215-2.115-4.49-5.733-3.105-8.8.713-1.561 2.068-2.802 3.72-3.407 1.714-.628 3.603-.528 5.32.281 1.806.841 3.223 2.479 3.889 4.495.634 1.918.494 3.946-.382 5.565-.81 1.51-2.098 2.528-3.724 2.943a6.443 6.443 0 0 1-1.594.197Z"/>
    <path fill="#FFF" d="M189.492 245.007c-6.498 0-13.175-1.448-19.8-4.383a6.142 6.142 0 0 1-3.127-8.098 6.13 6.13 0 0 1 8.09-3.13c5.017 2.222 9.998 3.324 14.81 3.324 8.116 0 15.758-3.132 22.33-9.3 8.764-8.226 14.88-21.133 17.221-36.344 2.624-17.047.302-35.804-6.379-54.364-1.373-3.815.335-8.047 3.641-9.172 3.384-1.152 6.704 1.755 7.872 4.937 7.51 20.464 9.927 41.373 6.988 60.47-2.757 17.912-10.199 33.336-20.954 43.43-8.9 8.354-19.53 12.63-30.692 12.63Z"/>
    <path fill="#646464" d="M172.18 229.68a5.333 5.333 0 0 0-4.974 7.252 5.293 5.293 0 0 0 2.812 2.953c6.461 2.862 13.014 4.314 19.474 4.314 11.069 0 21.49-4.292 30.14-12.41 10.625-9.973 17.98-25.232 20.709-42.966 2.918-18.96.516-39.732-6.948-60.067-1.065-2.9-3.988-5.427-6.854-4.452-1.239.422-2.272 1.385-2.91 2.712-.794 1.65-.878 3.627-.232 5.422 6.803 18.9 9.022 37.836 6.417 54.761-2.369 15.389-8.572 28.462-17.467 36.81-6.634 6.227-14.546 9.519-22.88 9.52h-.003c-4.96 0-10.053-1.143-15.136-3.394a5.292 5.292 0 0 0-2.147-.456Zm17.312 16.135c-6.687 0-13.458-1.498-20.127-4.452a6.898 6.898 0 0 1-3.665-3.848 6.909 6.909 0 0 1 .127-5.315c1.548-3.503 5.655-5.092 9.154-3.542 4.876 2.16 9.75 3.254 14.483 3.255h.002c7.917 0 15.446-3.14 21.777-9.081 8.632-8.103 14.661-20.845 16.975-35.878 2.564-16.659.372-35.32-6.34-53.968-.792-2.2-.684-4.632.296-6.67.828-1.722 2.193-2.979 3.844-3.54 3.788-1.29 7.563 1.811 8.889 5.423 7.558 20.592 9.988 41.64 7.028 60.87-2.784 18.091-10.313 33.68-21.2 43.898-8.953 8.405-19.757 12.848-31.244 12.848Z"/>
    <path fill="#FFF" d="M180.233 217.254c-.787 2.767-.057 8.874-1.662 14.448l-6.493 8.626c-3.838 2.158-7.55 2.79-11.944 2.555-13.03-.696-30.03-10.457-28.997-18.294.04-.309.143-.529.289-.682-2.58-3.29-4.425-7.003-.721-8.942 1.053-.552 2.23-.373 3.413.166-1.462-2.618-.755-5.658 2.472-6.387 6.008-1.351 10.994 8.505 23.727 7.9.007 0 .013.007.02.01 3.04-.298 8.055-.252 9.714-2.787 1.571-2.409 1.96-6.517 6.247-8.214 3.313-1.31 8.753-.615 9.647 1.87 1.143 3.184-4.39 5.09-5.712 9.73Z"/>
    <path fill="#646464" d="M144.856 234.357a.802.802 0 0 1-.272-.047c-6.25-2.243-11.247-6.173-15.276-12.014-3.09-4.48-.843-6.82-.081-7.43 1.743-1.396 4.382-1.31 5.762.188a.808.808 0 0 1-1.186 1.095c-.799-.867-2.5-.877-3.568-.021-1.319 1.055-1.172 2.969.401 5.25 3.83 5.554 8.57 9.286 14.492 11.41a.808.808 0 0 1-.272 1.57Z"/>
    <path fill="#646464" d="M149.805 226.931a.8.8 0 0 1-.238-.036c-6.893-2.126-13.008-6.351-15.959-11.028-1.065-1.688-1.318-3.621-.677-5.171.575-1.39 1.812-2.362 3.481-2.74 2.964-.667 5.548.98 8.54 2.89 3.997 2.549 8.97 5.72 17.05 4.856a.808.808 0 0 1 .172 1.607c-8.642.925-13.88-2.416-18.088-5.1-2.8-1.786-5.01-3.197-7.319-2.676-1.16.262-1.97.878-2.345 1.781-.44 1.065-.235 2.445.551 3.69 2.754 4.365 8.529 8.33 15.07 10.347a.808.808 0 0 1-.237 1.58Z"/>
    <path fill="#646464" d="M161.776 243.736c-.548 0-1.11-.015-1.685-.046-8.734-.466-19.765-5.082-25.66-10.736-3.027-2.908-4.442-5.837-4.094-8.47.023-.183.064-.353.122-.51-2.135-2.827-2.949-5-2.56-6.81.264-1.228 1.082-2.208 2.432-2.914.727-.382 1.537-.507 2.421-.378-.286-1.15-.213-2.293.23-3.288.592-1.329 1.81-2.262 3.43-2.628 2.943-.662 5.564 1.002 8.6 2.927 3.712 2.355 8.332 5.287 15.267 4.956a.707.707 0 0 1 .098.001c.425-.04.884-.074 1.366-.11 2.718-.202 6.439-.48 7.633-2.305.401-.614.734-1.387 1.086-2.205.953-2.215 2.14-4.971 5.54-6.317 2.51-.993 6.037-.943 8.386.12 1.184.536 1.985 1.306 2.317 2.227.782 2.18-.771 3.778-2.416 5.469-1.275 1.311-2.721 2.797-3.28 4.758-.297 1.046-.363 2.719-.44 4.656-.111 2.86-.25 6.421-1.222 9.794a.807.807 0 1 1-1.55-.448c.916-3.184 1.052-6.636 1.16-9.41.08-2.04.15-3.803.5-5.036.67-2.352 2.267-3.994 3.676-5.442 1.593-1.638 2.474-2.622 2.053-3.794-.227-.632-.921-1.057-1.463-1.302-1.924-.87-5.055-.91-7.128-.09-2.776 1.1-3.73 3.313-4.651 5.454-.38.884-.74 1.72-1.217 2.45-1.631 2.494-5.642 2.792-8.864 3.032-.514.038-1.001.074-1.446.118a.788.788 0 0 1-.175-.002c-7.38.318-12.21-2.746-16.094-5.21-2.844-1.804-5.091-3.23-7.38-2.715-1.127.255-1.926.846-2.311 1.71-.44.989-.304 2.296.366 3.495a.808.808 0 0 1-1.039 1.13c-1.101-.502-1.986-.563-2.704-.186-.918.48-1.442 1.076-1.602 1.822-.292 1.359.577 3.346 2.584 5.905a.808.808 0 0 1-.052 1.057c-.008.009-.05.06-.072.227-.351 2.66 1.77 5.326 3.61 7.095 5.648 5.417 16.237 9.84 24.63 10.289 4.517.242 7.93-.47 11.379-2.382a.808.808 0 0 1 1.206 1.068l-.044.057a.802.802 0 0 1-.245.213c-3.285 1.848-6.64 2.704-10.697 2.704Zm64.004-100.32a.807.807 0 0 1-.803-.735c-.317-3.534 2.349-6.028 5.132-6.931 3.307-1.073 6.485-.019 8.095 2.688a.808.808 0 0 1-1.386.826c-1.47-2.47-4.265-2.61-6.212-1.977-2.173.705-4.26 2.602-4.021 5.249a.808.808 0 0 1-.805.88Zm3.354 16.121h-.008a.808.808 0 0 1-.799-.816c.036-3.548 2.937-5.763 5.796-6.384 3.398-.738 6.454.629 7.787 3.482a.807.807 0 1 1-1.462.684c-1.217-2.605-3.983-3.022-5.983-2.587-2.233.485-4.497 2.164-4.524 4.822a.807.807 0 0 1-.807.8Zm.873 17.873-.06-.001a.807.807 0 0 1-.746-.866c.262-3.534 3.33-5.561 6.255-6.003 3.486-.526 6.48 1.032 7.63 3.969a.807.807 0 1 1-1.502.59c-1.05-2.683-3.828-3.272-5.887-2.961-2.29.346-4.69 1.88-4.886 4.525a.807.807 0 0 1-.804.748Zm9.825 19.099a.807.807 0 0 1-.803-.736c-.273-3.066-2.688-4.72-4.96-4.999-2.059-.252-4.63.55-5.67 3.56a.807.807 0 1 1-1.525-.527c1.116-3.23 4.017-5.05 7.392-4.636 3.45.423 6.069 3.08 6.37 6.459a.807.807 0 0 1-.804.879m-6.048 17.654a.808.808 0 0 1-.8-.927c.454-3.045-1.505-5.22-3.647-6.025-1.943-.73-4.63-.554-6.347 2.128a.807.807 0 1 1-1.36-.872c1.843-2.877 5.09-3.964 8.273-2.768 3.254 1.222 5.178 4.42 4.678 7.775a.807.807 0 0 1-.797.689Zm-12.385 17.845a.808.808 0 0 1-.667-1.262c1.717-2.53.905-5.317-.661-6.957-1.437-1.504-3.944-2.513-6.67-.832a.807.807 0 1 1-.846-1.376c2.92-1.8 6.328-1.373 8.682 1.092 2.015 2.109 3.053 5.705.83 8.982a.806.806 0 0 1-.668.353Zm-18.024 11.464a.806.806 0 0 1-.466-1.468c2.5-1.76 2.722-4.656 1.835-6.743-.814-1.915-2.804-3.746-5.947-3.136a.807.807 0 0 1-.307-1.586c3.367-.653 6.405.952 7.739 4.09 1.142 2.685.845 6.416-2.39 8.696a.803.803 0 0 1-.464.148Zm-20.805 1.782a.807.807 0 0 1-.065-1.613c3.046-.248 4.706-2.629 5-4.878.268-2.065-.518-4.652-3.535-5.723a.808.808 0 0 1 .539-1.523c3.233 1.147 5.036 4.074 4.596 7.455-.378 2.894-2.525 5.958-6.469 6.28a.766.766 0 0 1-.066.002Z"/>
    <path fill="#CACACA" d="M128.07 109.277c.135.264.258.532.37.802 2.323 5.575.092 9.59-2.524 11.334a7.446 7.446 0 0 1-2.288 1.022c-4.208 1.08-8.272-1.657-10.113-6.81"/>
    <path fill="#646464" d="M121.79 123.48c-3.859 0-7.34-2.838-9.035-7.582a.808.808 0 0 1 1.52-.544c1.693 4.738 5.37 7.27 9.153 6.299a6.638 6.638 0 0 0 2.04-.912c2.362-1.574 4.361-5.23 2.228-10.35-.104-.252-.22-.503-.345-.748a.808.808 0 0 1 1.44-.732c.141.281.274.57.395.857 2.51 6.028.049 10.403-2.822 12.317-.78.52-1.632.9-2.536 1.132a8.174 8.174 0 0 1-2.037.262Z"/>
    <path fill="#646464" d="M117.048 114.38c-.988-3.15-.49-7.187-1.72-10.209 3.854 1.322 8.356 4.086 9.68 7.956 2.453 6.976-5.708 9.444-7.96 2.253Z"/>
    <path fill="#646464" d="M116.588 105.523c.298 1.302.415 2.686.53 4.037.138 1.649.27 3.206.7 4.578.638 2.037 1.855 3.386 3.34 3.7 1.02.216 2.027-.11 2.693-.87.909-1.036 1.053-2.703.395-4.573-1.062-3.108-4.423-5.48-7.657-6.872Zm5.197 13.997c-.317 0-.639-.033-.961-.102-2.072-.438-3.729-2.186-4.546-4.796-.483-1.542-.629-3.262-.77-4.926-.16-1.908-.312-3.71-.927-5.22a.808.808 0 0 1 1.01-1.069c3.991 1.37 8.762 4.311 10.18 8.459.854 2.43.597 4.68-.707 6.168a4.325 4.325 0 0 1-3.279 1.486Z"/>
    <path fill="#646464" d="M124.805 112.406a.807.807 0 0 1-.745-.497c-.784-1.881-2.49-3.608-5.217-5.28-1.664-1.02-2.58-1.31-3.315-1.543-.16-.051-.314-.1-.464-.152-.46-.159-1.587-.43-2.61-.59a.808.808 0 0 1 .25-1.596c1.125.177 2.35.473 2.887.659.137.047.278.092.425.139.819.26 1.837.583 3.67 1.706 3.026 1.855 4.944 3.829 5.863 6.035a.809.809 0 0 1-.744 1.12"/>
    <path fill="#FFF" d="M122.65 118.613c-1.679.432-3.227-.39-4.327-1.782.19-2.336 2.776-5.646 5.932-6.308 1.861 3.01 1.678 7.25-1.605 8.09"/>
    <path fill="#646464" d="M119.17 116.583c.647.728 1.791 1.63 3.28 1.248.908-.233 1.545-.791 1.895-1.66.52-1.293.32-3.123-.485-4.705-2.354.78-4.352 3.23-4.69 5.117Zm2.577 2.954c-1.486 0-2.921-.768-4.057-2.205a.81.81 0 0 1-.17-.567c.22-2.715 3.077-6.3 6.57-7.032a.806.806 0 0 1 .85.365c1.321 2.136 1.675 4.757.901 6.678-.545 1.353-1.579 2.259-2.991 2.62a4.422 4.422 0 0 1-1.103.141Z"/>
    <path fill="#FFF" d="M138.217 121.217a15.305 15.305 0 0 1-1.362 2.692c-2.125 3.343-4.646 6.059-7.636 8.316a32.645 32.645 0 0 1-.606.445c.977 1.581.865 4.76-.832 7.01 1.421 1.065 1.26 4.49-1.142 7.31-2.77 3.253-7.187 5.002-9.866 5.9-7.38 2.46-14.276 1.426-18.526-2.268l-4.328-9.347c-.066-1.455.06-3.015.403-4.672v-.007c.294-1.262.83-2.44 1.512-3.53 2.804-4.496 8.052-7.559 8.651-9.283 1.113-3.217-4.845-8.11-.742-11.566.574-.483 1.509-.757 2.6-.774 2.704-.053 6.355 1.433 7.857 5.011 1.628 3.887 1.351 8.173-.06 11.948 4.814-.837 11.018-4.086 15.264-10.78 2.363-3.726 6.225-4.725 8.381-3.25.301.207.543.47.732.786.833 1.388.61 3.725-.301 6.06v-.001Z"/>
    <path fill="#FFF" d="M138.217 121.217c.679-2.253.682-4.335.3-6.06.834 1.388.61 3.726-.3 6.06"/>
    <path fill="#646464" d="M108.922 155.032c-4.838 0-9.132-1.58-12.051-4.605a.809.809 0 0 1 1.16-1.122c4.046 4.192 11.129 5.271 18.486 2.816 4.35-1.452 7.55-3.354 9.507-5.655 1.55-1.821 1.962-3.722 1.832-4.893-.065-.583-.264-1.026-.559-1.247a.807.807 0 0 1-.16-1.134c1.476-1.958 1.602-4.784.791-6.096a.808.808 0 0 1 .215-1.08c3.229-2.327 5.856-5.12 8.032-8.54 2.18-3.426 2.72-7.369 1.155-8.438-.707-.483-1.673-.63-2.719-.416-1.717.354-3.366 1.604-4.525 3.431-3.749 5.908-9.658 10.074-15.806 11.145a.806.806 0 0 1-.894-1.079c1.467-3.928 1.492-7.959.07-11.351-1.277-3.05-4.08-4.025-5.224-4.302-1.883-.456-3.377-.128-3.968.37-1.858 1.562-1.244 3.358-.013 6.13.761 1.715 1.549 3.487.996 5.082-.33.951-1.476 1.96-3.063 3.358-2.593 2.281-6.14 5.403-7.068 9.335a.44.44 0 0 1-.006.03c-.319 1.548-.45 3.053-.385 4.467a.808.808 0 1 1-1.612.074c-.07-1.538.068-3.165.41-4.837a.662.662 0 0 1 .011-.059c1.032-4.458 4.819-7.79 7.584-10.224 1.186-1.044 2.414-2.125 2.604-2.673.344-.992-.283-2.403-.946-3.897-1.101-2.48-2.472-5.567.45-8.024 1.142-.96 3.206-1.23 5.385-.702 2.924.708 5.233 2.62 6.333 5.247 1.414 3.372 1.55 7.288.413 11.163 3.033-.804 8.977-3.202 13.366-10.12 1.392-2.194 3.42-3.705 5.563-4.146 1.478-.304 2.882-.069 3.953.664 2.647 1.808 1.72 6.83-.703 10.64-2.164 3.4-4.754 6.213-7.902 8.58.68 1.75.553 4.458-.819 6.67.345.473.564 1.082.644 1.8.215 1.922-.631 4.267-2.207 6.12-2.15 2.527-5.591 4.593-10.225 6.14-2.772.925-5.517 1.377-8.106 1.377Z"/>
    <path fill="#646464" d="M119.73 145.468a.807.807 0 0 1-.224-1.584c3.516-1.02 6.377-2.833 7.847-4.977 1.036-1.51 1.506-4.317.584-5.814a.808.808 0 0 1 1.373-.848c1.294 2.1.72 5.613-.627 7.577-2.297 3.35-6.455 4.955-8.729 5.614a.808.808 0 0 1-.224.032Z"/>
    <path fill="#646464" d="M117.506 139.075a.807.807 0 0 1-.269-1.57c8.938-3.164 14.779-7.49 18.938-14.03 2.18-3.425 2.72-7.367 1.155-8.436a.809.809 0 0 1 .91-1.335c2.646 1.809 1.72 6.83-.704 10.64-4.366 6.862-10.46 11.391-19.761 14.684a.81.81 0 0 1-.27.047h.001Zm-8.366-8.023a.807.807 0 0 1-.367-1.528c1.702-.866 3.103-1.382 5.171-1.905a.807.807 0 1 1 .395 1.567c-1.94.49-3.25.972-4.834 1.778a.801.801 0 0 1-.365.088ZM64.278 32.244a.8.8 0 0 1-.568-.236l-.003-.003a.807.807 0 1 1 1.141-1.143.81.81 0 0 1-.57 1.382Z"/>
    <path fill="#FFF" d="m236.456 98.066-22.917 4.47a1.476 1.476 0 0 1-1.755-1.535l.143-2.484a1.476 1.476 0 0 1 1.258-1.376l22.263-3.289c.68-.1 1.338.282 1.589.922l.51 1.302a1.477 1.477 0 0 1-1.09 1.99Zm-2.602-7.046-19.928 2.672a1.476 1.476 0 0 1-1.669-1.55l.09-1.555a1.477 1.477 0 0 1 1.322-1.385l19.486-2.014a1.475 1.475 0 0 1 1.525.93l.353.897a1.477 1.477 0 0 1-1.178 2.004Zm-2.563-6.283-17.007 1.176a1.477 1.477 0 0 1-1.575-1.558l.09-1.578a1.476 1.476 0 0 1 1.428-1.392l16.554-.52a1.475 1.475 0 0 1 1.42.937l.361.92a1.477 1.477 0 0 1-1.271 2.015Z"/>
    <path fill="#646464" d="M46.17 155.832c-4.287-3.558-6.388-8.586-5.8-13.982.255-2.326.98-4.63 2.153-6.889l7.769 7.778c-4.123.863-8.262 7.446-4.122 13.093Z"/>
    <path fill="#646464" d="M42.752 136.333c-.845 1.856-1.375 3.737-1.58 5.605-.402 3.693.494 7.165 2.556 10.094-.214-1.501-.036-3.046.544-4.562.873-2.282 2.602-4.18 4.533-5.077l-6.053-6.06Zm3.418 20.306a.805.805 0 0 1-.515-.185c-4.48-3.719-6.699-9.073-6.087-14.69.263-2.405 1.016-4.819 2.239-7.174a.808.808 0 0 1 1.286-.2l7.77 7.778a.809.809 0 0 1-.406 1.362c-1.918.402-3.798 2.217-4.678 4.518-.553 1.444-1.152 4.314 1.041 7.306a.808.808 0 0 1-.65 1.286Zm8.687 4.616a.801.801 0 0 1-.408-.112c-3.738-2.206-4.514-5.769-3.994-8.367.591-2.958 2.795-5.196 5.484-5.567a.807.807 0 0 1 .222 1.6c-2.01.278-3.667 2-4.124 4.284-.532 2.661.676 5.15 3.231 6.658a.808.808 0 0 1-.41 1.504Zm40.633-7.76c-2.944 0-5.484-1.603-6.634-4.19-1.16-2.609-.602-5.636 1.454-7.9a.807.807 0 1 1 1.194 1.087c-1.644 1.81-2.083 4.111-1.173 6.156.89 2.003 2.88 3.248 5.187 3.231a.807.807 0 0 1 .007 1.616h-.036Zm-21.123 7.15a.77.77 0 0 1-.072-.003c-2.927-.258-5.32-2.113-6.243-4.841-.938-2.772-.11-5.785 2.16-7.863a.806.806 0 1 1 1.09 1.192c-1.818 1.664-2.462 3.964-1.721 6.152.714 2.113 2.575 3.55 4.856 3.75a.807.807 0 0 1-.07 1.612Zm73.088-33.085a.807.807 0 0 1-.806-.869c1.792-23.87 6.933-54.644 13.753-82.322a.807.807 0 1 1 1.566.387c-6.799 27.596-11.924 58.271-13.709 82.056a.808.808 0 0 1-.804.747Z"/>
    <path fill="#646464" d="M156.367 66.787a.808.808 0 0 1-.791-.97 562.74 562.74 0 0 1 4.018-18.12.806.806 0 1 1 1.569.376 561.228 561.228 0 0 0-4.006 18.069.808.808 0 0 1-.79.646Z"/>
    <path fill="#FFF" d="M95.382 95.69c-1.804 1.19-3.654 1.687-5.442 1.62-3.673-.133-7.094-2.631-9.37-6.37-2.853-4.678-3.912-11.299-1.414-17.652l-.003-.003c1.866-4.737 5.507-8.01 9.841-8.2 3.803-.382 8.402 2.53 10.926 7.887.54 1.14.981 2.394 1.3 3.751.295 1.228.485 2.54.556 3.926.349 7.009-2.62 12.57-6.394 15.041m45.046-13.713c-.107 3.36-.995 6.689-2.776 9.451v.004c-1.856 3.024-4.693 5.486-8.224 6.203a10.168 10.168 0 0 1-3.644.114 9.912 9.912 0 0 1-1.075-.227c-1.485-.39-2.866-1.114-4.106-2.1-5.697-4.504-8.466-14.47-4.409-23.032v-.003c2.999-6.323 8.508-8.84 13.169-7.871 4.254.83 7.44 4.023 9.273 8.14.032.064.061.135.09.2 0 0 .004 0 .004.003.958 2.21 1.523 4.678 1.672 7.183l.01.161c.028.591.032 1.183.016 1.774Z"/>
    <path fill="#646464" d="M95.382 95.69c-1.804 1.19-3.654 1.687-5.442 1.62-4.725-1.41-7.866-7.3-7.178-13.953.755-7.296 5.816-12.747 11.306-12.182 3.073.317 5.63 2.453 7.153 5.548.294 1.228.484 2.54.555 3.926.349 7.009-2.62 12.57-6.394 15.041Zm45.046-13.713c-.107 3.36-.995 6.689-2.776 9.451v.004c-1.856 3.024-4.693 5.486-8.224 6.203a10.168 10.168 0 0 1-3.644.114c-4.222-2.127-7.07-7.687-6.756-14.06.394-7.97 5.574-14.19 11.574-13.897 4.765.233 8.612 4.508 9.8 10.25l.01.161c.028.591.032 1.183.016 1.774Z"/>
    <path fill="#FFF" d="M91.714 91.184c1.274 0 2.307 1.386 2.307 3.095 0 1.71-1.033 3.095-2.307 3.095-1.275 0-2.308-1.386-2.308-3.095 0-1.71 1.033-3.095 2.308-3.095m34.515 3.32c.093-1.901 1.3-3.387 2.694-3.318 1.395.069 2.45 1.665 2.357 3.566-.093 1.901-1.3 3.386-2.695 3.318-1.394-.069-2.45-1.665-2.356-3.566"/>
    <path fill="#646464" d="M79.932 73.51a.818.818 0 0 1-.025.074c-2.203 5.603-1.698 11.934 1.352 16.935 1.185 1.948 2.565 3.454 4.102 4.475 2.82 1.876 6.111 2 9.028.34 3.435-1.956 6.969-6.83 6.581-14.645-.232-4.55-1.75-8.559-4.275-11.285-2.53-2.728-5.79-3.952-8.945-3.357-3.38.638-6.154 3.287-7.818 7.462Zm10.205 24.61c-1.948 0-3.887-.595-5.669-1.78-1.735-1.153-3.278-2.829-4.587-4.98-3.298-5.407-3.859-12.24-1.505-18.293a.86.86 0 0 1 .026-.078c1.872-4.752 5.085-7.781 9.05-8.53 3.656-.69 7.554.749 10.426 3.847 2.782 3.004 4.453 7.373 4.704 12.302.355 7.151-2.479 13.332-7.395 16.13-1.62.923-3.338 1.382-5.05 1.382Zm26.804-25.425a.668.668 0 0 1-.018.041c-4.044 8.537-1.05 17.916 4.18 22.052.224.178.466.355.72.527 2.302 1.561 4.89 2.09 7.485 1.53 3.017-.651 5.725-2.709 7.631-5.796a.931.931 0 0 1 .035-.06c3.12-4.833 3.534-11.966 1.035-17.765a.703.703 0 0 1-.019-.038c-.789-1.76-1.772-3.275-2.922-4.506-2.551-2.735-5.79-3.955-9.12-3.438-3.743.58-7.023 3.296-9.007 7.453Zm10.347 25.984c-2.224 0-4.39-.684-6.37-2.026a12.992 12.992 0 0 1-.817-.599c-5.716-4.52-9.015-14.717-4.655-23.97a.743.743 0 0 1 .02-.044c2.214-4.669 5.945-7.728 10.234-8.395 3.819-.593 7.663.84 10.547 3.932 1.262 1.35 2.338 3 3.197 4.905.01.018.018.036.026.055 2.718 6.263 2.27 14.006-1.113 19.286a.71.71 0 0 1-.018.03c-2.14 3.49-5.226 5.823-8.691 6.571-.79.17-1.579.255-2.36.255Zm70.322-73.461a2.42 2.42 0 0 0-2.339 1.797c-9.88 37.485-16.014 77.373-18.232 118.554-.064 1.187.555 3.029 1.326 3.943l13.715 16.27.002.002v-.003c9.748-58.234 12.689-111.558 13.574-138.162.007-.19-.176-.434-.362-.482l-7.074-1.84a2.419 2.419 0 0 0-.61-.079Zm-5.395 142.344c-.35 0-.86-.134-1.369-.739l-13.715-16.27c-1.042-1.236-1.79-3.463-1.704-5.07 2.224-41.292 8.376-81.289 18.283-118.88l.78.205-.78-.206a4.038 4.038 0 0 1 4.915-2.87l7.074 1.841c.912.237 1.6 1.16 1.57 2.1-.887 26.643-3.832 80.05-13.595 138.375-.185 1.1-.843 1.395-1.118 1.47-.08.022-.197.044-.341.044ZM181.166 65.13c-1.245 3.367-3.778 5.825-6.676 6.814-1.804.62-3.746.668-5.607.013-4.87-1.703-8.105-7.68-6.031-13.152 2.137-5.453 8.274-8.364 12.986-6.69.122.042.244.09.363.139 4.52 1.844 6.85 7.541 4.965 12.875Z"/>
    <path fill="#646464" d="M173 52.445c-3.84 0-7.835 2.668-9.398 6.655-.876 2.313-.763 4.874.321 7.203 1.083 2.326 2.987 4.108 5.225 4.891 1.63.574 3.385.569 5.08-.014 2.75-.94 5.06-3.304 6.18-6.326 1.701-4.827-.322-10.143-4.512-11.853a7.677 7.677 0 0 0-2.897-.556Zm-1.358 20.792a9.098 9.098 0 0 1-3.027-.518c-2.646-.925-4.89-3.015-6.154-5.733-1.27-2.728-1.4-5.735-.364-8.467 2.227-5.682 8.773-9.026 14.01-7.165.128.043.265.097.397.15 4.98 2.033 7.412 8.265 5.423 13.894l-.004.011c-1.285 3.476-3.967 6.205-7.172 7.3a9.545 9.545 0 0 1-3.109.528Z"/>
    <path fill="#FFF" d="M178.488 64.554c-1.265 3.215-3.721 5.516-6.478 6.391a8.033 8.033 0 0 1-1.09.272 7.71 7.71 0 0 1-4.197-.41c-4.54-1.771-7.426-7.62-5.322-12.841 1.882-4.52 6.559-7.106 10.635-6.563a7.41 7.41 0 0 1 1.788.462c.113.045.226.094.34.142 4.205 1.9 6.245 7.458 4.324 12.547"/>
    <path fill="#646464" d="M170.922 52.137c-3.611 0-7.26 2.495-8.776 6.139-.9 2.232-.852 4.73.138 7.023.96 2.223 2.685 3.956 4.732 4.754a6.873 6.873 0 0 0 3.763.368c.332-.058.663-.14.983-.244 2.61-.83 4.84-3.04 5.974-5.914 1.731-4.597-.02-9.764-3.905-11.52a6.632 6.632 0 0 0-1.9-.54 7.634 7.634 0 0 0-1.009-.065Zm-1.4 20.012a8.401 8.401 0 0 1-3.094-.59c-2.444-.954-4.495-3.002-5.625-5.619-1.162-2.693-1.216-5.633-.15-8.277 1.933-4.644 6.872-7.676 11.49-7.06a8.248 8.248 0 0 1 2.338.662c4.663 2.106 6.793 8.193 4.762 13.574l-.004.01c-1.308 3.326-3.92 5.892-6.985 6.866a8.73 8.73 0 0 1-1.195.297 8.836 8.836 0 0 1-1.537.137Zm6.792 15.647c-.702 1.9-2.131 3.286-3.766 3.845a4.766 4.766 0 0 1-3.163.007c-2.746-.96-4.571-4.332-3.402-7.418 1.206-3.076 4.668-4.718 7.325-3.774.069.024.138.05.205.078 2.55 1.04 3.863 4.254 2.8 7.262Z"/>
    <path fill="#646464" d="M171.698 80.993c-2.025 0-4.135 1.418-4.964 3.532-.458 1.21-.398 2.558.173 3.785.57 1.226 1.571 2.165 2.744 2.575a3.97 3.97 0 0 0 2.635-.009c1.453-.496 2.674-1.75 3.27-3.355.896-2.547-.156-5.345-2.347-6.239a4.02 4.02 0 0 0-1.51-.29l-.001.001Zm-.756 11.73a5.479 5.479 0 0 1-1.825-.313c-1.58-.553-2.92-1.799-3.673-3.417-.756-1.626-.833-3.42-.215-5.05 1.324-3.377 5.224-5.359 8.35-4.248.074.025.157.058.237.09 2.98 1.217 4.442 4.932 3.259 8.28l-.004.012c-.762 2.059-2.355 3.677-4.262 4.328a5.729 5.729 0 0 1-1.867.317Z"/>
    <path fill="#FFF" d="M174.803 87.472c-.713 1.813-2.099 3.111-3.653 3.605a4.552 4.552 0 0 1-.616.153 4.348 4.348 0 0 1-2.366-.231c-2.562-.999-4.19-4.298-3.003-7.243 1.062-2.55 3.7-4.007 6-3.701.345.045.684.13 1.008.26l.19.08c2.373 1.072 3.524 4.207 2.44 7.077Z"/>
    <path fill="#646464" d="M170.532 80.82c-1.899 0-3.82 1.32-4.622 3.247-.47 1.167-.444 2.48.077 3.686.504 1.168 1.406 2.077 2.473 2.493a3.529 3.529 0 0 0 1.934.189c.171-.03.341-.073.506-.126 1.374-.437 2.55-1.605 3.15-3.128.911-2.422.007-5.135-2.018-6.05l-.16-.066a3.407 3.407 0 0 0-.813-.21 3.991 3.991 0 0 0-.527-.034Zm-.775 11.286a5.15 5.15 0 0 1-1.885-.356c-1.465-.57-2.693-1.794-3.367-3.356-.693-1.607-.725-3.36-.088-4.94 1.15-2.766 4.096-4.568 6.853-4.2a5.007 5.007 0 0 1 1.412.398c2.802 1.266 4.086 4.9 2.876 8.105l-.004.01c-.777 1.974-2.332 3.498-4.16 4.08a5.306 5.306 0 0 1-1.637.259Zm4.496 15.217c-.702 1.9-2.13 3.286-3.766 3.845a4.766 4.766 0 0 1-3.163.007c-2.746-.96-4.57-4.332-3.402-7.418 1.206-3.076 4.668-4.718 7.325-3.774.07.024.138.05.205.078 2.55 1.04 3.864 4.254 2.8 7.262h.001Z"/>
    <path fill="#646464" d="M169.637 100.52c-2.024 0-4.134 1.417-4.963 3.532-.459 1.21-.399 2.558.173 3.785.57 1.226 1.57 2.165 2.744 2.575a3.97 3.97 0 0 0 2.634-.009c1.453-.496 2.674-1.75 3.27-3.354.896-2.548-.156-5.346-2.347-6.24a4.016 4.016 0 0 0-1.51-.29Zm-.756 11.73a5.479 5.479 0 0 1-1.824-.313c-1.58-.553-2.92-1.799-3.673-3.418-.757-1.625-.833-3.419-.216-5.049 1.324-3.378 5.224-5.359 8.35-4.248.074.025.157.058.238.09 2.98 1.217 4.441 4.931 3.258 8.28l-.004.012c-.761 2.059-2.354 3.676-4.262 4.328a5.729 5.729 0 0 1-1.866.317Z"/>
    <path fill="#FFF" d="M172.742 107c-.713 1.812-2.099 3.11-3.653 3.604a4.552 4.552 0 0 1-.615.153 4.348 4.348 0 0 1-2.367-.231c-2.562-.999-4.19-4.298-3.002-7.243 1.06-2.55 3.699-4.007 5.998-3.701.346.045.685.13 1.009.26l.191.08c2.372 1.072 3.523 4.207 2.44 7.077Z"/>
    <path fill="#646464" d="M168.471 100.347c-1.899 0-3.82 1.32-4.621 3.246-.47 1.168-.445 2.48.076 3.687.504 1.168 1.406 2.076 2.474 2.493a3.529 3.529 0 0 0 1.933.188c.172-.03.342-.072.507-.126 1.374-.436 2.549-1.604 3.15-3.127.91-2.422.006-5.135-2.019-6.05l-.16-.067a3.385 3.385 0 0 0-.813-.21 3.991 3.991 0 0 0-.527-.034Zm-.774 11.286c-.646 0-1.285-.12-1.885-.356-1.465-.571-2.693-1.795-3.367-3.357-.694-1.606-.725-3.36-.089-4.94 1.151-2.765 4.096-4.567 6.854-4.2.417.055.822.16 1.2.311l.211.088c2.802 1.266 4.086 4.899 2.876 8.105l-.004.01c-.776 1.974-2.331 3.498-4.16 4.08a5.306 5.306 0 0 1-1.636.259Z"/>
  </g>
</svg>
