<svg xmlns="http://www.w3.org/2000/svg" xmlns:xlink="http://www.w3.org/1999/xlink" viewBox="0 0 256 256">
  <defs>
    <path id="a" d="M0 0h66.302v37.558H0z"/>
    <path id="c" d="M0 0h67.079v78.755H0z"/>
    <path id="e" d="M0 0h59.881v77.7H0z"/>
  </defs>
  <g fill="none" fill-rule="evenodd">
    <path fill="#FFF" d="M228.662 248.058c-4.128 8.736-27.673 9.07-45.757 3.09-23.253-7.691-22.554-24.585-7.488-30.093 3.53-1.293 7.854-1.958 12.84-1.73.95.042 1.921.116 2.919.226 22.156 2.424 42.107 18.735 37.486 28.507"/>
    <g transform="translate(163.876 218.442)">
      <mask id="b" fill="#fff">
        <use xlink:href="#a"/>
      </mask>
      <path fill="#646464" d="M22.382 1.641c-3.668 0-7.257.516-10.566 1.728C8.446 4.6 5.722 6.466 3.937 8.76c-2.213 2.847-2.878 6.243-1.872 9.561C3.785 24.002 9.9 28.84 19.28 31.943c8.745 2.892 19.145 4.362 27.821 3.934 9.005-.445 15.186-2.852 16.96-6.605.672-1.421.813-3.003.418-4.701-1.181-5.076-7.242-11.118-15.817-15.767C41.742 5.05 31.81 1.64 22.382 1.64Zm21.687 35.917c-8.163 0-17.39-1.475-25.291-4.088C8.888 30.198 2.408 24.984.53 18.789c-1.16-3.834-.4-7.746 2.142-11.017 1.97-2.533 4.942-4.577 8.593-5.914 12.305-4.505 27.78-.097 38.16 5.531 9.102 4.936 15.314 11.222 16.615 16.816.48 2.062.301 3.998-.53 5.755-2.064 4.37-8.574 7.04-18.33 7.523a63.33 63.33 0 0 1-3.111.075Z" mask="url(#b)"/>
    </g>
    <path fill="#646464" d="M188.257 219.325c-4.004.726-7.094 2.105-9.394 3.903-1.234-.894-2.382-1.404-3.446-2.173 3.53-1.292 7.854-1.958 12.84-1.73Z"/>
    <path fill="#646464" d="m177.286 221.286.125.074c.463.27.938.548 1.433.877a18.704 18.704 0 0 1 3.36-1.926 29.34 29.34 0 0 0-4.918.975Zm1.577 2.746a.796.796 0 0 1-.47-.152c-.61-.442-1.21-.793-1.79-1.132-.572-.334-1.112-.65-1.655-1.04a.805.805 0 0 1 .193-1.408c3.835-1.404 8.259-2.004 13.152-1.778a.803.803 0 0 1 .106 1.594c-3.674.666-6.716 1.926-9.043 3.746a.797.797 0 0 1-.494.17h.001Z"/>
    <path fill="#FFF" d="M183.373 235.084a5.283 5.283 0 0 1-7.482.187c-2.828-2.701-5.666-5.682-8.476-8.894-10.89-12.44-21.38-28.318-29.365-44.421a188.16 188.16 0 0 1-6.337-14.164 5.31 5.31 0 0 1 2.96-6.89 5.282 5.282 0 0 1 6.872 2.968c2.409 6.063 5.288 12.234 8.508 18.31 9.236 17.425 21.284 34.097 33.134 45.406a5.314 5.314 0 0 1 .186 7.498Z"/>
    <path fill="#646464" d="M150.114 182.242c-2.864-3.589-13.174-4.502-12.004-.225a188.224 188.224 0 0 1-6.336-14.164 5.31 5.31 0 0 1 2.96-6.89 5.286 5.286 0 0 1 6.872 2.967c2.409 6.064 5.288 12.235 8.508 18.312"/>
    <path fill="#646464" d="M136.69 161.387a4.47 4.47 0 0 0-1.66.322 4.466 4.466 0 0 0-2.464 2.403 4.479 4.479 0 0 0-.048 3.444 185.235 185.235 0 0 0 5.345 12.13c.244-.269.556-.504.932-.695 2.053-1.05 6.062-.741 9.058.639-2.646-5.2-4.992-10.367-6.992-15.402a4.467 4.467 0 0 0-2.396-2.471 4.474 4.474 0 0 0-1.774-.37Zm13.424 21.658a.798.798 0 0 1-.626-.301c-1.908-2.39-7.742-3.457-9.965-2.322-.625.32-.817.733-.64 1.382a.802.802 0 0 1-1.491.57 189.353 189.353 0 0 1-6.363-14.224 6.082 6.082 0 0 1 .064-4.674 6.064 6.064 0 0 1 3.345-3.26 6.036 6.036 0 0 1 4.661.064 6.063 6.063 0 0 1 3.253 3.353c2.36 5.944 5.21 12.078 8.47 18.232a.805.805 0 0 1-.707 1.18Z"/>
    <path fill="#646464" d="M170.592 230.697a.8.8 0 0 1-.586-.256c-15.32-16.457-30.255-40.325-38.977-62.29a6.087 6.087 0 0 1 .064-4.675 6.06 6.06 0 0 1 3.343-3.26c3.121-1.247 6.672.286 7.915 3.415 8.346 21.02 22.56 43.644 37.095 59.044a.806.806 0 0 1-.032 1.137.8.8 0 0 1-1.133-.032c-14.665-15.538-29.003-38.358-37.42-59.554a4.491 4.491 0 0 0-5.832-2.517 4.466 4.466 0 0 0-2.463 2.402 4.482 4.482 0 0 0-.047 3.445c8.653 21.792 23.466 45.467 38.66 61.788a.805.805 0 0 1-.586 1.353Z"/>
    <path fill="#FFF" d="M142.95 241.891c-1.957 2.868-5.135 5.508-9.688 7.537-12.546 5.595-28.228 5.595-35.982 4.881-10.224-.936-15.759-4.83-16.503-9.791-.766-5.077 3.483-11.276 12.85-16.575 9.217-5.21 22.988-9.039 34.205-8.29 2.293.145 4.394.553 6.283 1.177 6.16 2.032 10.07 6.357 11.025 11.212.635 3.222-.025 6.675-2.19 9.85Z"/>
    <path fill="#646464" d="M127.832 219.653c.007 1.421.042 3.126.12 5.174-4.266-2.833-8.628-4.331-15.68-3.804 5.013-1.112 10.368-1.717 15.56-1.37Z"/>
    <path fill="#646464" d="M120.07 220.588c2.47.498 4.741 1.4 7.028 2.754-.03-.976-.05-1.953-.061-2.93-2.23-.11-4.558-.05-6.966.176Zm7.881 5.043a.8.8 0 0 1-.443-.134c-3.904-2.594-7.98-4.21-15.176-3.672a.804.804 0 0 1-.233-1.586c5.612-1.247 10.923-1.713 15.787-1.388.42.028.746.377.748.799.007 1.51.046 3.242.118 5.147a.803.803 0 0 1-.771.833h-.03Z"/>
    <path fill="#FFF" d="M135.901 232.245a5.45 5.45 0 0 1-6.789-3.666 212.164 212.164 0 0 0-1.61-5.135c-4.833-14.755-12.462-32.787-21.859-47.607-3.925-6.2-8.164-11.84-12.635-16.44a5.476 5.476 0 0 1 2.062-8.959 5.443 5.443 0 0 1 5.75 1.328c6.228 6.412 11.975 14.466 17.119 23.244l.006.007c9.554 16.299 17.023 35.08 21.612 50.421a5.469 5.469 0 0 1-3.656 6.807Z"/>
    <path fill="#646464" d="M124.886 220.359c-11.192 0-23.452 4.092-30.864 8.285-8.845 5.004-13.472 11.048-12.377 16.169 1.006 4.702 6.73 7.872 15.707 8.696 3.431.315 21.276 1.564 35.584-4.816 6.75-3.009 10.845-7.548 11.53-12.782.551-4.208-1.23-8.321-4.887-11.284a6.238 6.238 0 0 1-2.026-2.955c-3.461-10.83-16.364-47.789-37.307-69.345a4.615 4.615 0 0 0-3.27-1.408 4.625 4.625 0 0 0-3.306 1.322 4.638 4.638 0 0 0-1.405 3.278 4.64 4.64 0 0 0 1.319 3.315c14.23 14.647 26.209 39.89 33.357 60.443.613 1.761 1.204 3.53 1.773 5.305a.801.801 0 1 1-1.527.492 223.935 223.935 0 0 0-1.566-4.71c-.244-.003-.49-.005-.734-.005Zm-20.111 35.065c-3.68 0-6.419-.208-7.57-.315-9.722-.892-15.965-4.522-17.128-9.96-1.25-5.844 3.669-12.537 13.157-17.905 7.597-4.299 20.173-8.492 31.662-8.492h.162c-7.126-20.184-18.813-44.582-32.623-58.796-2.406-2.477-2.354-6.455.116-8.867a6.214 6.214 0 0 1 4.446-1.778c1.66.017 3.243.7 4.398 1.895 21.186 21.807 34.197 59.062 37.68 69.96.276.87.802 1.639 1.511 2.211 4.102 3.323 6.096 7.967 5.47 12.744-.76 5.81-5.189 10.796-12.468 14.041-9.85 4.392-21.295 5.262-28.813 5.262Z"/>
    <path fill="#646464" d="M117.939 175.01c-2.87-3.582-13.463-3.45-12.292.823l-.004.003c-3.925-6.199-8.164-11.839-12.635-16.44a5.476 5.476 0 0 1 .103-7.73 5.444 5.444 0 0 1 7.71.1c6.227 6.412 11.974 14.466 17.118 23.244"/>
    <path fill="#646464" d="M96.915 150.921a4.627 4.627 0 0 0-3.245 1.321 4.677 4.677 0 0 0-.087 6.594c3.902 4.016 7.81 9.007 11.634 14.854.316-.47.792-.875 1.416-1.195 2.17-1.112 5.949-1.114 8.839-.039-4.932-8.034-10.045-14.795-15.226-20.13a4.631 4.631 0 0 0-3.331-1.405Zm8.729 25.718a.803.803 0 0 1-.677-.371c-4.115-6.499-8.332-11.986-12.533-16.311-2.406-2.478-2.353-6.456.117-8.867a6.25 6.25 0 0 1 8.843.115c5.896 6.069 11.695 13.941 17.236 23.398a.805.805 0 0 1-.278 1.101.8.8 0 0 1-1.038-.19c-1.797-2.244-7.466-2.861-9.951-1.588-1.234.633-1.023 1.404-.943 1.694a.805.805 0 0 1-.776 1.019Z"/>
    <path fill="#FFF" d="M72.272 161.467c-.315 4.95-1.042 8.156-3.784 12.917 0 .003-.006.006-.006.006-3.404 5.972-9.505 11.255-17.186 13.939a.025.025 0 0 1-.016.006c-7.791 2.601-15.802 2.494-22.407.399h-.007a31.204 31.204 0 0 1-2.235-.8c-.003 0-.006 0-.01-.004a26.98 26.98 0 0 1-1.43-.617h-.003a30.105 30.105 0 0 1-7.02-4.505c-.081 0-2.56-2.192-4.58-4.897 0 0-.006-.003-.006-.007-12.865-16.958-7.851-44.622 18.466-59.694a55.382 55.382 0 0 1 1.716-.945c.144-.077.288-.151.43-.228l.4-.21a86.56 86.56 0 0 1 4.618-2.192c.244-.107.478-.21.699-.302.15-.065.295-.126.433-.18a40.629 40.629 0 0 1 1.572-.634c.09-.035.153-.058.192-.068l.144-.048a5.283 5.283 0 0 1 6.517 3.135 5.307 5.307 0 0 1-3.012 6.868c-4.137 1.615-7.927 3.582-11.294 5.823l-.007.007c-9.688 6.447-15.887 15.177-16.881 24.34-3.406 31.372 38.371 32.229 39.647 6.258.105-2.124 1.722-3.852 3.841-4.332a13.479 13.479 0 0 1 3.695-.305c2.919.183 7.697 3.347 7.514 6.27Z"/>
    <path fill="#646464" d="M45.757 123.406a60.286 60.286 0 0 0-9.608 4.746c1.449-3.388 1.04-8.106-2.39-10.89a75.062 75.062 0 0 1 8.16-3.743 5.284 5.284 0 0 1 6.85 3.019 5.307 5.307 0 0 1-3.011 6.868Z"/>
    <path fill="#646464" d="M35.14 117.444c2.451 2.56 2.97 6.045 2.38 8.969a62.127 62.127 0 0 1 7.947-3.756 4.463 4.463 0 0 0 2.481-2.382 4.483 4.483 0 0 0 .074-3.445 4.463 4.463 0 0 0-2.376-2.489 4.452 4.452 0 0 0-3.436-.073 75.444 75.444 0 0 0-7.07 3.176Zm1.009 11.512a.802.802 0 0 1-.737-1.121c1.253-2.93 1.113-7.294-2.158-9.948a.806.806 0 0 1 .127-1.334 76.131 76.131 0 0 1 8.247-3.783 6.04 6.04 0 0 1 4.664.1 6.058 6.058 0 0 1 3.224 3.377 6.082 6.082 0 0 1-.1 4.676 6.059 6.059 0 0 1-3.368 3.233 59.533 59.533 0 0 0-9.48 4.682.8.8 0 0 1-.42.118h.001Z"/>
    <g transform="translate(6 112.355)">
      <mask id="d" fill="#fff">
        <use xlink:href="#c"/>
      </mask>
      <path fill="#646464" d="M23.063 75.598a.68.68 0 0 1 .052.014c6.846 2.174 14.62 2.036 21.892-.389a.313.313 0 0 1 .025-.008c7.167-2.507 13.118-7.331 16.757-13.585a.838.838 0 0 1 .031-.05c2.73-4.751 3.354-7.827 3.652-12.52.064-1.028-.789-2.327-2.281-3.472-1.433-1.1-3.193-1.863-4.483-1.944a12.536 12.536 0 0 0-3.466.287c-1.812.41-3.135 1.885-3.22 3.588-.374 7.63-4.321 13.836-10.828 17.024-7.065 3.463-15.707 2.83-22.015-1.612-6.45-4.543-9.434-12.283-8.402-21.797.999-9.2 7.26-18.267 17.182-24.887a.738.738 0 0 1 .06-.043c3.46-2.303 7.312-4.289 11.447-5.902a4.462 4.462 0 0 0 2.482-2.382 4.483 4.483 0 0 0 .073-3.445 4.488 4.488 0 0 0-5.527-2.66l-.13.043a.99.99 0 0 1-.066.02l-.089.034a39.06 39.06 0 0 0-1.554.626c-.148.06-.287.118-.43.18-.178.074-.36.153-.55.236l-.144.063a84.582 84.582 0 0 0-4.571 2.171l-.396.206c-.08.045-.175.094-.27.144l-.154.082a52.68 52.68 0 0 0-1.695.934C13.448 13.998 4.888 25.01 2.341 37.56c-2.008 9.893.128 19.905 5.86 27.476l.03.038c1.782 2.386 3.95 4.382 4.34 4.684a.801.801 0 0 1 .119.084 29.414 29.414 0 0 0 6.796 4.368l.044.019c.45.21.906.406 1.367.59l.033.013c.702.282 1.413.537 2.134.766Zm10.201 3.157c-3.637 0-7.218-.531-10.588-1.596a32.19 32.19 0 0 1-2.326-.828l-.025-.01a28.312 28.312 0 0 1-1.472-.633 31.039 31.039 0 0 1-7.175-4.599c-.284-.193-.748-.608-1.64-1.503a34.349 34.349 0 0 1-3.093-3.551C.917 58.093-1.333 47.597.77 37.238c2.64-13.01 11.476-24.403 24.88-32.081.575-.33 1.155-.65 1.74-.96l.16-.083c.087-.046.174-.092.259-.139l.414-.215a86.1 86.1 0 0 1 4.667-2.217l.146-.064a51.347 51.347 0 0 1 1.013-.43 41.64 41.64 0 0 1 1.59-.64c.094-.037.175-.065.234-.082L36 .284a6.096 6.096 0 0 1 7.516 3.608 6.084 6.084 0 0 1-.1 4.675 6.057 6.057 0 0 1-3.368 3.233c-4.013 1.566-7.748 3.49-11.103 5.718l-.045.032c-9.556 6.359-15.58 15.018-16.528 23.758-.966 8.905 1.778 16.117 7.73 20.307 5.747 4.048 13.941 4.644 20.389 1.484 6.053-2.967 9.58-8.528 9.93-15.66.12-2.422 1.958-4.509 4.467-5.076a14.233 14.233 0 0 1 3.922-.323c1.609.1 3.661.97 5.355 2.27 1.144.879 3.043 2.676 2.907 4.852-.308 4.857-.995 8.243-3.89 13.268h-.001a.796.796 0 0 1-.026.042c-3.83 6.565-10.073 11.626-17.582 14.256l-.04.014a38.826 38.826 0 0 1-12.27 2.013h.001Z" mask="url(#d)"/>
    </g>
    <path fill="#646464" d="M44.15 131.956c-.005.01-.016.025-.027.05l.26.09-.233-.14Zm.686 1.219a.803.803 0 0 1-.733-1.126l.044-.103a.8.8 0 0 1 1.49.59 1.37 1.37 0 0 1-.113.25.801.801 0 0 1-.688.389Z"/>
    <path fill="#FFF" d="m236.583 57.648-5.221 55.012-1.758 18.505-3.627 38.202c-.455 4.775-4.342 8.492-9.123 8.72l-51.122 2.425a63.875 63.875 0 0 1-16.067-1.27l-31.72-6.599L137.421 23.21l26.329-6.183a25.573 25.573 0 0 1 18.302 2.553l48.803 27.16a11.262 11.262 0 0 1 5.728 10.908Z"/>
    <path fill="#FFF" d="M219.783 136.498c.186-1.6 1.428-2.77 2.773-2.614 1.345.158 2.285 1.583 2.098 3.184-.186 1.6-1.428 2.77-2.773 2.613-1.345-.157-2.284-1.583-2.098-3.183"/>
    <path fill="#FFF" d="M219.174 135.916c.187-1.6 1.428-2.77 2.773-2.613 1.346.157 2.285 1.583 2.099 3.184-.186 1.6-1.428 2.77-2.773 2.613-1.345-.158-2.285-1.583-2.099-3.184"/>
    <path fill="#FFF" d="M220.473 135.997c.15-1.284 1.079-2.23 2.076-2.114.996.117 1.683 1.252 1.534 2.536-.15 1.285-1.079 2.23-2.076 2.114-.996-.117-1.683-1.252-1.534-2.536"/>
    <path fill="#CACACA" d="M219.174 135.916c.187-1.6 1.428-2.77 2.773-2.613 1.346.157 2.285 1.583 2.099 3.184-.186 1.6-1.428 2.77-2.773 2.613-1.345-.158-2.285-1.583-2.099-3.184"/>
    <path fill="#646464" d="M221.707 134.094c-.363 0-.724.154-1.03.443-.387.364-.637.887-.706 1.473-.134 1.158.492 2.186 1.396 2.292.906.104 1.749-.75 1.883-1.908.068-.586-.055-1.153-.347-1.596-.264-.4-.635-.648-1.047-.696a1.276 1.276 0 0 0-.149-.008Zm-.193 5.824a2.68 2.68 0 0 1-.333-.02c-1.783-.208-3.04-2.036-2.802-4.074.112-.963.538-1.836 1.199-2.46.699-.658 1.574-.963 2.463-.859.89.104 1.67.603 2.2 1.405.5.76.714 1.708.602 2.67-.223 1.91-1.68 3.338-3.329 3.338Z"/>
    <path fill="#CACACA" d="m172.518 24.565-13.889 146.328c-.506 5.34-5.526 9.052-10.763 7.963L42.882 157.012c-4.483-.932-7.549-5.098-7.115-9.668l9.076-95.629a9.638 9.638 0 0 1 7.383-8.478l111.66-26.23c5.26-1.235 9.144 2.166 8.632 7.558Z"/>
    <path fill="#FFF" d="m161.034 145.55-.818 8.624-22.51 22.57-4.74-.988-1.706-.353 29.774-29.852Z"/>
    <path fill="#CACACA" d="m157.953 34.566-11.788 124.218c-.265 2.785-2.83 4.76-5.58 4.301L46.93 147.419a4.82 4.82 0 0 1-3.997-5.214l8.12-85.578a6.425 6.425 0 0 1 5.116-5.695l97.957-19.823c2.33-.47 4.052 1.085 3.827 3.457Z"/>
    <path fill="#FFF" d="M77.355 37.333 42.932 71.847l1.911-20.131a9.643 9.643 0 0 1 7.383-8.48l25.13-5.903Zm86.013 83.623c-.109 1.18-.224 2.373-.336 3.579l-47.472 47.598-2.681-.557 50.49-50.62Z"/>
    <path fill="#646464" d="m131.393 174.61.03.006 16.606 3.453a8.169 8.169 0 0 0 6.516-1.43 8.215 8.215 0 0 0 3.286-5.82c.548-5.785 1.077-11.357 1.587-16.721l.816-8.606.002-.02.653-6.868 1.345-14.145.156-1.654.179-1.907.001-.021c6.658-70.09 8.858-93.308 9.15-96.389.223-2.343-.445-4.326-1.88-5.582-1.437-1.257-3.487-1.654-5.772-1.115L52.408 44.019a8.832 8.832 0 0 0-6.767 7.772l-9.075 95.63a8.187 8.187 0 0 0 6.477 8.805l76.009 15.814 12.341 2.57Zm18.294 5.237a9.727 9.727 0 0 1-1.984-.204l-16.578-3.448-.03-.006-38.131-7.935L42.718 157.8c-4.89-1.017-8.221-5.544-7.749-10.532l9.076-95.63a10.436 10.436 0 0 1 7.998-9.184l111.659-26.229c2.801-.659 5.355-.137 7.191 1.47 1.836 1.606 2.696 4.073 2.423 6.945a404138.764 404138.764 0 0 1-9.33 98.318l-.156 1.652c-.432 4.525-.88 9.238-1.346 14.147l-.65 6.85a.445.445 0 0 1-.002.02l-.818 8.624c-.51 5.364-1.04 10.935-1.588 16.72a9.825 9.825 0 0 1-3.93 6.962 9.777 9.777 0 0 1-5.809 1.914Z"/>
    <path fill="#CACACA" d="M188.43 43.473c.216-1.845 1.647-3.194 3.197-3.013 1.55.182 2.634 1.825 2.419 3.67-.215 1.845-1.646 3.194-3.196 3.012-1.55-.18-2.634-1.824-2.42-3.67m-2.791 29.068c.214-1.845 1.645-3.194 3.196-3.013 1.55.182 2.634 1.825 2.419 3.67-.215 1.845-1.646 3.194-3.197 3.012-1.55-.181-2.633-1.824-2.418-3.67"/>
    <path fill="#FFF" d="M182.847 101.607c.215-1.845 1.646-3.194 3.196-3.013 1.55.182 2.634 1.825 2.419 3.67-.215 1.845-1.646 3.194-3.197 3.012-1.55-.181-2.633-1.824-2.418-3.67m-2.792 29.068c.214-1.845 1.645-3.194 3.196-3.013 1.55.182 2.633 1.825 2.419 3.67-.215 1.845-1.646 3.194-3.197 3.012-1.55-.181-2.633-1.824-2.418-3.67m-2.792 29.067c.214-1.845 1.646-3.193 3.196-3.012 1.55.181 2.634 1.824 2.419 3.67-.215 1.845-1.646 3.193-3.197 3.012-1.55-.181-2.633-1.825-2.418-3.67"/>
    <path fill="#646464" d="M188.555 70.315c-1.036 0-1.965.996-2.12 2.319-.081.704.068 1.387.42 1.922.325.492.785.796 1.296.856 1.107.132 2.145-.906 2.308-2.308.163-1.402-.607-2.648-1.716-2.778a1.59 1.59 0 0 0-.187-.01Zm-.22 6.715c-.122 0-.246-.007-.37-.021-.988-.116-1.858-.672-2.447-1.567-.561-.85-.8-1.914-.675-2.994.266-2.283 2.098-3.95 4.086-3.718 1.987.232 3.387 2.278 3.122 4.56-.25 2.14-1.876 3.74-3.716 3.74Zm3.014-35.782c-.449 0-.894.19-1.271.545-.466.439-.768 1.069-.85 1.773-.082.705.067 1.387.42 1.922.324.493.784.797 1.295.856.511.06 1.03-.129 1.458-.533.466-.44.768-1.07.85-1.774.081-.704-.067-1.387-.42-1.922-.325-.492-.785-.796-1.296-.856a1.63 1.63 0 0 0-.186-.01Zm-.214 6.715c-.125 0-.251-.007-.378-.022-.989-.115-1.858-.672-2.447-1.566-.561-.85-.8-1.914-.675-2.995.126-1.08.603-2.06 1.344-2.758.78-.734 1.751-1.075 2.742-.96.988.117 1.858.673 2.447 1.567.561.85.8 1.915.675 2.995-.126 1.08-.603 2.06-1.345 2.758-.679.64-1.506.981-2.363.981Z"/>
    <path fill="#CACACA" d="M182.847 101.607c.215-1.845 1.646-3.194 3.196-3.013 1.55.182 2.634 1.825 2.419 3.67-.215 1.845-1.646 3.194-3.197 3.012-1.55-.181-2.633-1.824-2.418-3.67"/>
    <path fill="#646464" d="M185.763 99.382c-1.036 0-1.965.996-2.12 2.319-.162 1.401.607 2.647 1.716 2.777 1.107.133 2.144-.905 2.308-2.307.082-.704-.067-1.387-.42-1.922-.325-.492-.785-.796-1.296-.856a1.597 1.597 0 0 0-.188-.01Zm-.22 6.715c-.122 0-.246-.007-.37-.022-1.987-.232-3.388-2.279-3.122-4.561.266-2.283 2.098-3.95 4.086-3.718.988.116 1.858.672 2.447 1.566.56.851.8 1.915.675 2.995-.25 2.14-1.876 3.74-3.716 3.74Z"/>
    <path fill="#CACACA" d="M180.055 130.674c.214-1.845 1.645-3.194 3.196-3.013 1.55.182 2.633 1.825 2.419 3.67-.215 1.845-1.646 3.194-3.197 3.012-1.55-.181-2.633-1.824-2.418-3.67"/>
    <path fill="#646464" d="M182.973 128.45c-.45 0-.895.189-1.271.544-.467.439-.769 1.069-.85 1.773-.164 1.402.606 2.648 1.715 2.778 1.107.134 2.144-.905 2.307-2.307.082-.704-.067-1.387-.42-1.923-.324-.491-.785-.795-1.296-.855a1.628 1.628 0 0 0-.185-.01Zm-.222 6.714c-.123 0-.246-.007-.37-.022-1.987-.232-3.388-2.279-3.122-4.561.126-1.08.603-2.06 1.344-2.759.78-.734 1.753-1.074 2.742-.958.988.115 1.858.671 2.447 1.565.56.851.8 1.915.675 2.996-.25 2.14-1.876 3.739-3.716 3.739Z"/>
    <path fill="#CACACA" d="M177.263 159.74c.214-1.845 1.646-3.193 3.196-3.012 1.55.181 2.634 1.824 2.419 3.67-.215 1.845-1.646 3.193-3.197 3.012-1.55-.181-2.633-1.825-2.418-3.67"/>
    <path fill="#646464" d="M180.181 157.516c-.45 0-.895.19-1.271.545-.467.439-.768 1.069-.85 1.773-.083.705.066 1.387.419 1.922.324.493.784.797 1.296.856.511.06 1.029-.13 1.457-.533.466-.44.768-1.07.85-1.774.081-.704-.067-1.387-.42-1.922-.324-.492-.785-.796-1.296-.856a1.628 1.628 0 0 0-.186-.01h.001Zm-.213 6.715a3.26 3.26 0 0 1-.379-.022c-.989-.115-1.858-.672-2.447-1.566-.56-.85-.801-1.914-.675-2.995.126-1.08.603-2.06 1.345-2.758.779-.735 1.752-1.074 2.741-.96.989.117 1.858.673 2.447 1.567.561.85.8 1.915.675 2.995-.126 1.08-.603 2.06-1.344 2.758-.68.64-1.507.982-2.363.982Z"/>
    <path fill="#646464" d="M162.101 181.347c-5.358 0-8.23-.408-12.6-1.319l-2.15-.446a.804.804 0 0 1 .325-1.574l2.152.447c8.348 1.739 11.143 1.597 37.884.249 7.595-.383 17.047-.86 29.104-1.42a8.693 8.693 0 0 0 2.7-.563c3.54-1.337 5.477-4.173 5.756-8.428.013-.194.02-.317.04-.421l3.486-36.703 6.986-73.598a10.46 10.46 0 0 0-5.318-10.128l-48.803-27.16a24.722 24.722 0 0 0-17.73-2.473.804.804 0 0 1-.366-1.565 26.32 26.32 0 0 1 18.874 2.632l48.803 27.16a12.068 12.068 0 0 1 6.136 11.687c-2.329 24.532-4.639 49.067-6.986 73.598l-3.49 36.758a.761.761 0 0 1-.018.104c-.005.049-.009.122-.015.215-.4 6.119-3.875 8.71-6.741 9.807a10.284 10.284 0 0 1-3.237.684c-12.057.56-21.507 1.037-29.1 1.42-13.165.664-20.566 1.037-25.692 1.037Z"/>
    <path fill="#646464" d="m231.362 112.66-1.822 19.176c-5.662 3.132-25.423.5-40.994-9.648l42.816-9.528Z"/>
    <path fill="#646464" d="M154.94 32.312c-.178 0-.366.02-.56.059L56.424 52.193a5.111 5.111 0 0 0-4.093 4.556l-8.12 85.578a3.548 3.548 0 0 0 2.93 3.823l93.654 15.666a3.485 3.485 0 0 0 2.73-.684 3.502 3.502 0 0 0 1.362-2.47l11.789-124.218c.07-.732-.121-1.342-.537-1.717-.303-.274-.718-.415-1.2-.415h.001Zm-13.57 132.124c-.333 0-.666-.027-.997-.083L46.72 148.687c-3.14-.525-5.364-3.426-5.063-6.604l8.12-85.578a7.666 7.666 0 0 1 6.14-6.834l97.956-19.822c1.513-.305 2.965.046 3.984.967 1.02.92 1.52 2.332 1.374 3.872l-11.788 124.218a6.134 6.134 0 0 1-2.353 4.265 6.106 6.106 0 0 1-3.72 1.265Zm49.258-41.888c14.5 8.784 32.489 11.353 38.156 8.769l1.675-17.633-39.83 8.863Zm31.885 11.327c-2.897 0-6.293-.364-9.913-1.095-8.668-1.752-17.366-5.274-24.491-9.918a.805.805 0 0 1 .263-1.459l42.816-9.527a.803.803 0 0 1 .972.86l-1.822 19.176a.803.803 0 0 1-.41.627c-1.608.889-4.204 1.336-7.415 1.336Z"/>
    <path fill="#646464" d="M132.455 106.415c-1.656 0-3.3-.282-4.862-.835a.805.805 0 0 1-.5-1.02.802.802 0 0 1 1.018-.502l.019.007c3.62 1.29 7.733.887 10.48-1.026 2.563-1.783 3.95-4.826 4.01-8.797.007-.445.37-.783.815-.792a.803.803 0 0 1 .79.816c-.09 5.7-2.605 8.636-4.7 10.094-1.943 1.353-4.465 2.055-7.07 2.055Z"/>
    <path fill="#CACACA" d="M102.628 50.821c6.111-14.296 20.434-18.223 30.028-7.237"/>
    <path fill="#646464" d="M102.628 51.625a.803.803 0 0 1-.737-1.12c3.263-7.634 9.113-12.812 15.648-13.85 5.738-.91 11.32 1.362 15.72 6.4a.805.805 0 0 1-.062 1.135.8.8 0 0 1-1.132-.062l-.013-.015c-4.023-4.607-9.09-6.69-14.262-5.87-5.988.951-11.38 5.772-14.425 12.895a.802.802 0 0 1-.737.488Z"/>
    <path fill="#FFF" d="M134.456 74.09c-1.738 11.329-9.72 18.336-17.37 17.544-2.211-.21-4.232-.965-6.02-2.14-6.014-3.938-9.444-12.588-9.004-20.95.525-11.182 7.49-20.93 16.733-20.802 9.05.16 16.215 10.122 16.007 22.26a30.16 30.16 0 0 1-.345 4.088Z"/>
    <path fill="#646464" d="M131.997 76.041c-1.857 10.832-9.383 15.72-14.737 11.068-3.52-3.048-5.307-9.564-4.754-15.795.7-8.332 5.265-15.478 10.877-15.216 6.533.338 10.27 10.35 8.614 19.943Z"/>
    <path fill="#646464" d="M123.095 56.896c-4.747 0-9.111 6.414-9.79 14.486-.546 6.147 1.296 12.362 4.479 15.119 1.762 1.531 3.783 1.948 5.847 1.21 3.648-1.308 6.551-5.832 7.576-11.806 1.054-6.105-.17-12.633-3.046-16.244-1.364-1.713-3.03-2.667-4.82-2.76a4.831 4.831 0 0 0-.246-.005Zm-1.427 32.776c-1.75 0-3.445-.662-4.933-1.955-3.604-3.122-5.626-9.743-5.028-16.474.775-9.211 5.92-16.217 11.713-15.947 2.264.117 4.335 1.28 5.994 3.362 3.194 4.01 4.518 10.887 3.373 17.52-1.122 6.544-4.424 11.544-8.617 13.046a7.38 7.38 0 0 1-2.502.448Z"/>
    <path fill="#FFF" d="M88.127 82.053c-.003.006-.003.013-.006.02-3.108 9.433-11.144 13.591-17.683 9.999a11.446 11.446 0 0 1-1.129-.707c-4.948-3.505-7.665-11.071-7.164-18.331.833-13.065 11.055-22.24 20.04-15.81 6.991 5 8.774 16.264 5.942 24.829Z"/>
    <path fill="#646464" d="M74.396 92.509c2.584.318 5.442-.672 7.842-2.72 3.806-3.247 6.124-8.742 6.36-15.073.279-8.032-3.098-15.17-8.401-17.762-2.959-1.458-6.05-1.34-8.943.342-4.607 2.677-7.868 8.875-8.306 15.79-.506 7.291 2.237 14.37 6.823 17.622 1.41.998 2.947 1.601 4.57 1.792a.797.797 0 0 1 .055.008Zm1.005 1.669a9.813 9.813 0 0 1-1.281-.085c-1.88-.228-3.653-.925-5.274-2.072-5.027-3.564-8.04-11.216-7.498-19.041.47-7.433 4.044-14.137 9.101-17.075 3.33-1.936 7.042-2.075 10.453-.396 5.861 2.865 9.599 10.607 9.299 19.264v.002c-.253 6.781-2.776 12.7-6.924 16.239-2.42 2.065-5.176 3.164-7.876 3.164Zm43.216-45.631c-8.319 0-15.224 8.758-15.755 20.033-.443 8.434 3.03 16.566 8.642 20.24 3.542 2.32 7.827 2.642 11.758.882 5.371-2.404 9.26-8.285 10.403-15.731 1.129-7.432-.857-15.456-5.06-20.444-2.692-3.195-6.089-4.917-9.823-4.979a9.375 9.375 0 0 0-.165-.001Zm-.496 43.888c-2.617 0-5.193-.762-7.493-2.27-6.075-3.976-9.839-12.683-9.367-21.666.574-12.216 8.281-21.68 17.545-21.559 4.213.07 8.025 1.99 11.024 5.55 4.488 5.325 6.616 13.852 5.42 21.722v.002c-1.226 7.99-5.463 14.328-11.334 16.956-1.89.845-3.854 1.265-5.795 1.265Z"/>
    <path fill="#646464" d="M73.751 89.759c-2.425-2.651-3.332-8.011-2.512-13.015 1.068-6.694 4.94-12.223 9.108-11.71 4.077.524 6.575 6.849 5.578 14.133-1.313 9.56-7.811 15.377-12.174 10.592"/>
    <path fill="#646464" d="M79.82 65.805c-3.357 0-6.791 4.813-7.79 11.066-.803 4.904.147 9.979 2.312 12.345 1.187 1.302 2.533 1.73 4.002 1.272 3.21-1.002 6-5.702 6.787-11.431.624-4.56-.16-8.927-2.044-11.394-.824-1.079-1.78-1.695-2.842-1.832a3.46 3.46 0 0 0-.425-.026Zm-2.58 26.466c-1.487 0-2.897-.671-4.08-1.969-2.514-2.747-3.604-8.249-2.712-13.688 1.194-7.483 5.585-12.923 9.996-12.378 1.485.191 2.838 1.038 3.916 2.45 2.135 2.796 3.04 7.62 2.36 12.59-.87 6.325-4.117 11.566-7.9 12.747a5.306 5.306 0 0 1-1.58.248Z"/>
    <path fill="#FFF" d="M124.7 81.673c.622-2.237 2.454-3.68 4.092-3.221 1.637.458 2.46 2.644 1.836 4.88-.623 2.238-2.455 3.68-4.092 3.222-1.637-.458-2.46-2.644-1.837-4.88m-44.293 2.271c.74-1.926 2.37-3.09 3.638-2.599 1.268.491 1.695 2.45.954 4.377-.741 1.926-2.37 3.09-3.639 2.599-1.268-.491-1.695-2.45-.953-4.377"/>
    <path fill="#CACACA" d="M90.762 64.34c-.238-.1-.48-.2-.72-.296-2.352-7.052-7.392-11.984-13.395-12.19-5.29-.164-9.86 3.242-12.81 8.398-.04.003-.08.008-.12.01-1.421.136-2.465 1.416-2.329 2.858.043.495.228.967.533 1.36a2.564 2.564 0 0 0 2.28 1.002c7.954-.768 17.369.649 24.572 3.694.3.128.622.196.948.202a2.539 2.539 0 0 0 1.463-.406c1.565-1.04 1.673-3.748-.421-4.632Z"/>
    <path fill="#CACACA" d="M83.621 61.41c1.366.468 3.013 1.067 4.397 1.857 3.905 2.225 3.29 6.926.174 5.67-7.253-2.919-16.038-4.221-23.991-3.457-1.419.137-2.123-.962-1.777-2.476.297-1.296 1.37-2.255 3.106-2.512"/>
    <path fill="#646464" d="M89.16 69.952c-.378 0-.801-.08-1.267-.268-7.23-2.91-15.836-4.15-23.616-3.404-.87.084-1.626-.185-2.129-.76-.574-.655-.753-1.612-.505-2.695.386-1.69 1.76-2.83 3.77-3.128a.803.803 0 1 1 .234 1.59c-1.34.198-2.207.872-2.442 1.896-.125.55-.07 1.027.148 1.277.158.18.417.253.77.22 8.027-.772 16.908.509 24.367 3.512.666.268 1.11.185 1.318-.248.422-.876-.114-2.798-2.186-3.98-1.3-.74-2.883-1.322-4.26-1.794a.805.805 0 0 1 .518-1.521c1.448.496 3.118 1.111 4.534 1.919 2.793 1.591 3.648 4.392 2.838 6.075a2.276 2.276 0 0 1-2.092 1.309Z"/>
    <path fill="#646464" d="M86.763 63.401a.803.803 0 0 1-.798-.736c-.217-2.584-1.758-5.012-4.226-6.663a.805.805 0 0 1-.222-1.114.8.8 0 0 1 1.112-.223c2.877 1.923 4.675 4.79 4.934 7.865a.803.803 0 0 1-.8.871"/>
    <path fill="#FFF" d="M48.053 111.633c-.195 2.074-1.378 14.525-1.549 16.327a.321.321 0 0 1-.22.275c-.973.32-2.843.34-4.015.007a.32.32 0 0 1-.235-.337c.18-2.063 1.201-13.034 1.475-15.913a1.583 1.583 0 0 1 .967-1.325c1.026-.416 2.552-.417 3.253.153.24.194.353.505.324.813"/>
    <path fill="#646464" d="m46.223 87.936 3.898-.222-1.971-2.215-1.927 2.437Zm-3.354 39.622a8.459 8.459 0 0 0 2.165.092c.257-.022.497-.057.704-.1l.703-7.41.814-8.58c.005-.057-.013-.1-.027-.112-.12-.097-.328-.177-.573-.222a3.653 3.653 0 0 0-1.88.186.772.772 0 0 0-.468.654c-.254 2.648-1.183 12.64-1.438 15.492Zm1.442 1.73c-.822 0-1.639-.096-2.261-.273a1.13 1.13 0 0 1-.815-1.176 4202.07 4202.07 0 0 1 1.476-15.924 2.373 2.373 0 0 1 1.462-1.993 5.229 5.229 0 0 1 2.774-.276c.512.093.958.284 1.286.55.442.355.674.921.618 1.514-.1 1.067-.463 4.884-.814 8.582l-.734 7.743a1.134 1.134 0 0 1-.76.961 6.245 6.245 0 0 1-1.372.256c-.281.024-.57.036-.86.036Z"/>
    <path fill="#646464" d="m48.186 86.747-.225.285.455-.026-.23-.259Zm-1.963 1.993a.803.803 0 0 1-.628-1.303L47.52 85a.801.801 0 0 1 .605-.304.772.772 0 0 1 .621.268l1.972 2.215a.806.806 0 0 1-.552 1.338l-3.899.222a.713.713 0 0 1-.045.001Z"/>
    <path fill="#FFF" d="m51.898 71.364-1.514 16.064a.315.315 0 0 1-.378.285c-.407-.078-1.109-.187-1.74-.159-.673.03-1.494.232-1.99.372-.247.07-.43-.082-.405-.337.222-2.4 1.246-13.222 1.471-15.602.037-.39.187-.761.443-1.056a2.818 2.818 0 0 1 1.856-.973c1-.108 1.636.3 1.978.631.207.2.306.488.279.775Z"/>
    <path fill="#646464" d="M49.955 70.744a2.013 2.013 0 0 0-1.566.715c-.14.16-.226.37-.25.606l-.416 4.414c-.345 3.646-.789 8.354-.99 10.5a8.575 8.575 0 0 1 1.498-.227c.256-.011.523-.006.792.018.213.015.422.04.613.067L51.1 71.292a.16.16 0 0 0-.038-.125 1.466 1.466 0 0 0-.656-.369 1.824 1.824 0 0 0-.45-.054h-.001ZM46.16 88.747a1.083 1.083 0 0 1-.703-.252 1.12 1.12 0 0 1-.386-.976c.152-1.626.668-7.083 1.055-11.192l.418-4.417a2.683 2.683 0 0 1 .635-1.507 3.624 3.624 0 0 1 2.375-1.246 3.538 3.538 0 0 1 1.256.085c.514.135.985.4 1.368.77.377.368.567.887.52 1.424v.005L51.182 87.5a1.118 1.118 0 0 1-1.337.998 8.968 8.968 0 0 0-.948-.126 4.61 4.61 0 0 0-.599-.015c-.644.028-1.474.249-1.802.342a1.28 1.28 0 0 1-.337.047Z"/>
    <path fill="#FFF" d="M199.391 160.418c.201-1.723 1.537-2.982 2.985-2.812 1.448.17 2.46 1.703 2.259 3.426-.2 1.723-1.537 2.982-2.985 2.813-1.448-.17-2.46-1.704-2.259-3.427"/>
    <path fill="#CACACA" d="M199.391 160.418c.201-1.723 1.537-2.982 2.985-2.812 1.448.17 2.46 1.703 2.259 3.426-.2 1.723-1.537 2.982-2.985 2.813-1.448-.17-2.46-1.704-2.259-3.427"/>
    <path fill="#646464" d="M202.117 158.395c-.406 0-.81.172-1.151.494-.426.401-.702.978-.777 1.623-.075.645.061 1.27.383 1.76.294.446.71.72 1.172.775.46.055.93-.118 1.318-.484.426-.401.703-.978.778-1.624.074-.645-.062-1.27-.384-1.76-.294-.445-.71-.72-1.172-.774a1.445 1.445 0 0 0-.167-.01Zm-.2 6.27c-.12 0-.239-.007-.36-.021-.938-.11-1.764-.637-2.323-1.486-.53-.805-.757-1.81-.639-2.832.12-1.022.571-1.948 1.272-2.609.74-.696 1.664-1.02 2.603-.909.939.11 1.764.637 2.323 1.486.531.805.758 1.81.639 2.832-.12 1.021-.57 1.948-1.272 2.609-.644.607-1.43.93-2.242.93Z"/>
    <path fill="#CACACA" d="M216.622 160.746c.186-1.6 1.428-2.77 2.773-2.613 1.346.157 2.285 1.582 2.099 3.183-.187 1.601-1.428 2.771-2.774 2.613-1.345-.157-2.284-1.582-2.098-3.183"/>
    <path fill="#646464" d="M65.065 162.67a3.048 3.048 0 0 1 .13-4.3v-.001c12.534-11.828 26.344-36.765 29.38-53.197a3.036 3.036 0 0 1 3.537-2.437 3.042 3.042 0 0 1 2.431 3.546c-1.599 8.653-6.04 19.909-12.184 30.883-5.9 10.534-12.649 19.639-19.005 25.636a3.03 3.03 0 0 1-4.29-.13Zm154.09-3.747c-.364 0-.724.154-1.03.443-.387.365-.637.888-.706 1.474-.134 1.158.491 2.186 1.395 2.292.903.104 1.75-.75 1.884-1.909.068-.586-.055-1.153-.347-1.596-.264-.4-.636-.647-1.048-.695a1.27 1.27 0 0 0-.148-.009Zm-.193 5.825c-.11 0-.222-.006-.334-.02-1.782-.208-3.039-2.036-2.801-4.075.112-.962.537-1.835 1.199-2.458.699-.66 1.574-.963 2.463-.86.89.103 1.67.603 2.2 1.405.5.76.714 1.707.602 2.67-.223 1.91-1.68 3.338-3.33 3.338Z"/>
    <path fill="#646464" d="M97.555 103.487c-.446 0-.883.135-1.26.395a2.226 2.226 0 0 0-.931 1.437c-3.063 16.574-16.904 41.637-29.62 53.636a2.227 2.227 0 0 0-.701 1.562 2.231 2.231 0 0 0 3.762 1.698c6.298-5.943 12.994-14.98 18.854-25.445 6.103-10.9 10.512-22.066 12.096-30.635a2.241 2.241 0 0 0-2.2-2.648Zm-30.28 60.942a3.82 3.82 0 0 1-2.794-1.209 3.826 3.826 0 0 1-1.04-2.752 3.826 3.826 0 0 1 1.204-2.685c12.513-11.806 26.13-36.46 29.143-52.758a3.823 3.823 0 0 1 1.6-2.469 3.798 3.798 0 0 1 2.87-.612 3.85 3.85 0 0 1 3.074 4.483c-1.614 8.736-6.088 20.082-12.274 31.13-5.937 10.603-12.74 19.776-19.154 25.828a3.816 3.816 0 0 1-2.628 1.043v.001Z"/>
    <path fill="#FFF" d="M102.023 156.678C91.88 142.73 72.407 127.674 57.954 122.5a3.044 3.044 0 0 1-1.888-3.864 3.033 3.033 0 0 1 3.928-1.867c15.551 5.566 35.997 21.286 46.933 36.324a3.048 3.048 0 0 1-.664 4.252 3.03 3.03 0 0 1-4.24-.666Z"/>
    <path fill="#646464" d="M102.671 156.205a2.232 2.232 0 0 0 3.12.49 2.246 2.246 0 0 0 .488-3.128c-10.682-14.69-31.132-30.521-46.555-36.041a2.235 2.235 0 0 0-2.768 3.067 2.22 2.22 0 0 0 1.267 1.15c14.696 5.26 34.22 20.398 44.448 34.461Zm1.81 2.526a3.83 3.83 0 0 1-3.105-1.579c-10.064-13.84-29.256-28.728-43.691-33.895a3.816 3.816 0 0 1-2.178-1.975 3.829 3.829 0 0 1-.146-2.94 3.838 3.838 0 0 1 4.903-2.33c15.945 5.707 36.284 21.445 47.311 36.608a3.858 3.858 0 0 1-.839 5.374 3.807 3.807 0 0 1-2.255.737Z"/>
    <path fill="#646464" d="M89.579 126.94a263.61 263.61 0 0 0-6.024-2.386l-3.399 20.733c3.91-.077 5.573-.135 7.16-.404 3.64-.617 6.705-3.857 7.182-8.265.487-4.488-2.47-8.648-4.92-9.678Z"/>
    <path fill="#646464" d="m84.186 125.656-3.083 18.808c3.133-.067 4.67-.135 6.08-.374 3.419-.58 6.1-3.688 6.518-7.559.449-4.14-2.28-7.944-4.433-8.85-1.204-.507-3.733-1.501-5.082-2.025Zm-4.03 20.435a.803.803 0 0 1-.791-.934l3.398-20.733a.803.803 0 0 1 1.012-.643c.227.066 4.611 1.786 6.113 2.418 2.961 1.245 5.91 5.866 5.407 10.506-.496 4.583-3.722 8.272-7.845 8.97-1.654.28-3.399.34-7.278.417h-.016Z"/>
    <path fill="#FFF" d="M106.264 157.344a3.03 3.03 0 0 1-4.241-.666c-3.37-4.638-7.774-9.395-12.679-13.87a.338.338 0 0 1-.001-.496c1.26-1.201 2.23-2.763 2.622-4.654a.337.337 0 0 1 .554-.184c5.561 4.978 10.572 10.34 14.41 15.62a3.05 3.05 0 0 1-.665 4.25Z"/>
    <path fill="#646464" d="M90.245 142.546c4.936 4.54 9.226 9.255 12.426 13.66a2.235 2.235 0 0 0 3.122.49 2.1 2.1 0 0 0 .263-.23l.006-.006a2.235 2.235 0 0 0 .219-2.893c-3.554-4.888-8.29-10.055-13.724-14.978l-.006.023a9.612 9.612 0 0 1-2.306 3.933v.001Zm14.237 16.185a3.835 3.835 0 0 1-3.107-1.578c-3.215-4.426-7.562-9.18-12.572-13.75a1.144 1.144 0 0 1-.007-1.678c1.068-1.018 1.816-2.222 2.219-3.575.064-.213.12-.433.166-.657a1.136 1.136 0 0 1 1.873-.617c5.755 5.149 10.778 10.594 14.523 15.744a3.84 3.84 0 0 1-.374 4.97 3.811 3.811 0 0 1-2.721 1.142Z"/>
    <path fill="#FFF" d="M89.58 135.742c-.698 5.857-5.439 10.105-10.588 9.488-5.15-.618-8.758-5.866-8.06-11.724.7-5.857 5.455-10.222 10.59-9.488 5.68.812 8.757 5.867 8.058 11.724"/>
    <path fill="#646464" d="M80.404 124.742c-1.664 0-3.321.582-4.754 1.686-2.146 1.653-3.576 4.268-3.922 7.174-.318 2.655.296 5.25 1.728 7.31 1.389 2.002 3.387 3.252 5.63 3.52a7.595 7.595 0 0 0 3.942-.579c3.104-1.328 5.31-4.473 5.756-8.208.676-5.659-2.358-10.113-7.377-10.832a7.123 7.123 0 0 0-1.003-.071Zm-.428 21.35a9.06 9.06 0 0 1-1.081-.064c-2.702-.323-5.101-1.814-6.755-4.198-1.657-2.383-2.37-5.373-2.004-8.42.397-3.332 2.051-6.342 4.537-8.257 2.066-1.591 4.539-2.279 6.961-1.932 5.933.85 9.528 6.037 8.742 12.615-.514 4.304-3.089 7.943-6.718 9.496a9.38 9.38 0 0 1-3.682.76Z"/>
    <path fill="#FFF" d="M96.125 162.55c-1.888 5.608-8.638 5.567-7.485-1.156 2.958-.744 5.668-2.093 8.066-3.905.215 1.47.057 3.168-.58 5.06"/>
    <path fill="#646464" d="M89.359 162.035c-.221 1.99.374 3.39 1.606 3.703 1.467.373 3.515-.815 4.4-3.445.393-1.164.602-2.273.627-3.313a23.02 23.02 0 0 1-6.633 3.055Zm2.148 5.375c-.323 0-.637-.038-.936-.113-1.74-.442-3.369-2.26-2.72-6.04a.803.803 0 0 1 .594-.643c2.78-.7 5.396-1.966 7.778-3.767a.8.8 0 0 1 1.275.525c.245 1.67.039 3.498-.613 5.435-1.056 3.138-3.384 4.603-5.379 4.603Z"/>
    <path fill="#FFF" d="m55.71 159.395-6.243-7.07c1.545-2.772 4.095-5.992 7.244-8.665 8.53-4.826 12.913-1.769 12.945 0-4.04 4.068-13.946 15.735-13.946 15.735Z"/>
    <path fill="#646464" d="M77.99 147.243c-.8 0-1.615.1-2.443.298-4.653 1.113-9.435 5.354-12.793 11.346a5.993 5.993 0 0 0-.21 5.476c.759 1.607 2.152 2.699 3.823 2.995 2.197.39 4.45-.73 5.604-2.79 2.07-3.695 4.299-5.351 5.29-5.748a.8.8 0 0 1 .697.05c2.445 1.415 5.576.547 7.13-1.977 1.644-2.674.952-6.213-1.544-7.89-1.744-1.172-3.604-1.76-5.554-1.76Zm-10.75 21.8c-.384 0-.769-.034-1.153-.102-2.19-.388-4.009-1.806-4.992-3.89a7.606 7.606 0 0 1 .261-6.952c3.573-6.375 8.74-10.907 13.819-12.122 3.3-.79 6.415-.221 9.261 1.69 3.204 2.152 4.108 6.67 2.016 10.07-1.931 3.138-5.77 4.286-8.906 2.736-.812.482-2.51 1.908-4.178 4.883-1.288 2.298-3.655 3.687-6.129 3.687Zm-16.79-16.818 5.25 5.944c2.156-2.528 9.459-11.051 13.075-14.759-.127-.249-.414-.58-.93-.876-.871-.5-4.213-1.845-10.674 1.789-2.661 2.27-5.083 5.122-6.722 7.902Zm5.26 7.974c-.23 0-.448-.1-.6-.271l-6.244-7.07a.806.806 0 0 1-.1-.925c1.738-3.115 4.444-6.355 7.427-8.887a.835.835 0 0 1 .124-.087c7.043-3.984 10.965-2.6 12.325-1.82 1.12.643 1.799 1.58 1.815 2.506a.805.805 0 0 1-.234.582c-3.973 4-13.803 15.573-13.902 15.689a.8.8 0 0 1-.603.283h-.008Z"/>
    <path fill="#646464" d="M71.27 144.18c-.924 0-1.846.1-2.75.294-4.98 1.066-9.782 4.933-13.171 10.608-.871 1.458-.962 3.191-.251 4.754.774 1.702 2.375 2.92 4.282 3.259 2.362.421 4.733-.612 5.902-2.568 2.153-3.607 4.735-5.296 5.945-5.551a.798.798 0 0 1 .576.096c2.644 1.582 6.04.921 7.731-1.504a5.062 5.062 0 0 0 .823-3.906c-.287-1.455-1.161-2.717-2.462-3.554a12.194 12.194 0 0 0-6.626-1.928Zm-10.845 20.615c-.439 0-.882-.038-1.325-.117-2.426-.43-4.467-1.991-5.461-4.175-.934-2.05-.812-4.328.334-6.247 3.617-6.057 8.798-10.195 14.213-11.355 3.723-.796 7.479-.138 10.575 1.854 1.672 1.075 2.797 2.707 3.17 4.596a6.659 6.659 0 0 1-1.082 5.138c-2.102 3.015-6.234 3.92-9.546 2.146-.787.327-2.768 1.572-4.646 4.718-1.286 2.153-3.685 3.442-6.232 3.442Z"/>
    <path fill="#FFF" d="M59.515 131.535c2.819-24.267 30.155-33.254 43.345-14.425 4.24 6.055 5.69 13.11 4.987 19.81-1.488 14.18-12.616 26.779-27.375 24.962a21.603 21.603 0 0 1-5.612-1.476c-10.227-4.215-16.836-16.006-15.345-28.871Zm46.036-24.09c-4.708-4.665-10.77-7.845-17.748-8.704-17.805-2.19-34.147 12.07-36.437 31.79-1.488 12.814 3.294 24.714 11.606 32.139 5.465 4.884 12.453 7.83 20.188 7.83 8.036 0 15.688-3.332 21.602-9 5.913-5.67 10.086-13.676 11.17-23.017 1.382-11.887-2.704-23.437-10.381-31.038Z"/>
    <path fill="#646464" d="M60.312 131.627c-1.427 12.314 4.681 23.843 14.854 28.036a20.815 20.815 0 0 0 5.404 1.42c5.864.724 11.45-.876 16.152-4.621 5.649-4.5 9.509-11.837 10.327-19.626.725-6.923-.996-13.765-4.846-19.264-5.572-7.954-14.21-11.355-23.108-9.098-10.073 2.554-17.446 11.643-18.783 23.154Zm22.999 31.235c-.97 0-1.95-.06-2.937-.182a22.428 22.428 0 0 1-5.82-1.53c-10.834-4.466-17.346-16.682-15.836-29.708 1.415-12.18 9.258-21.807 19.983-24.527 9.57-2.427 18.846 1.212 24.816 9.734 4.073 5.817 5.894 13.046 5.128 20.356-.861 8.208-4.945 15.952-10.924 20.715-4.257 3.39-9.19 5.142-14.41 5.142Zm.9-63.537c-6.618 0-13.124 2.297-18.627 6.632-7.384 5.816-12.275 14.807-13.42 24.668C50.76 142.716 55 154.472 63.507 162.07c5.581 4.988 12.377 7.625 19.653 7.625 7.668 0 15.142-3.117 21.047-8.777 6.031-5.781 9.912-13.782 10.927-22.528 1.327-11.413-2.466-22.768-10.147-30.373-4.788-4.745-10.763-7.676-17.281-8.478a28.591 28.591 0 0 0-3.495-.214Zm-1.051 71.978c-7.676 0-14.842-2.778-20.722-8.033-8.897-7.946-13.334-20.22-11.87-32.831 1.195-10.283 6.306-19.667 14.023-25.746 6.81-5.364 15.088-7.762 23.31-6.75 6.874.846 13.172 3.934 18.214 8.93 8.03 7.95 11.998 19.802 10.614 31.703-1.058 9.117-5.11 17.464-11.412 23.504-6.205 5.948-14.074 9.223-22.157 9.223Z"/>
    <path fill="#FFF" d="M97.54 156.834c-.523.43-1.059.836-1.613 1.218a22.546 22.546 0 0 1-6.475 3.123 1.73 1.73 0 0 1-.138.035c-.032.013-.064.022-.093.032-5.025 1.63-4.785 4.756-6.632 9.248-.01.019-.016.038-.026.054.061.003-1.568 4.309-4.685 6.58-3.868 3.096-9.092 4.22-14.12 3.427-7.61-1.2-14.78-6.782-16.153-16.56-.937-8.167 1.754-12.655 5.483-16.202.09.247.587 1.637.786 1.804v.003c.6.553 2.088.064 3.415-.63.793-.412 1.527-.9 1.986-1.283a31.39 31.39 0 0 1 3.883-2.759c1.36-.82 2.777-1.514 3.96-1.817 5.12-1.292 9.39-.553 11.392 1.833 3.277.077 7.151 1.714 8.55 4.993 1.773-.19 4.274.412 6.09 1.464 1.673.974 3.867 3.054 4.39 5.437Z"/>
    <path fill="#646464" d="M73.573 158.255a.803.803 0 0 1-.657-1.263c3.125-4.497 8.12-7.288 14.066-7.858a.8.8 0 0 1 .875.72v.003a.804.804 0 0 1-.722.877c-5.47.525-10.052 3.073-12.903 7.177a.8.8 0 0 1-.659.344Zm-8.498-5.656a.803.803 0 0 1-.595-1.343c4.372-4.85 9.372-7.38 14.08-7.117.442.025.78.404.756.847a.798.798 0 0 1-.845.758c-4.216-.237-8.76 2.108-12.802 6.59a.799.799 0 0 1-.595.265Z"/>
    <path fill="#646464" d="M66.906 181.603a20.944 20.944 0 0 1-7.561-1.414.804.804 0 0 1 .577-1.499 19.32 19.32 0 0 0 3.949 1.064c5.005.796 9.928-.393 13.507-3.26l.029-.022c2.634-1.918 4.167-5.451 4.366-6.064a.79.79 0 0 1 .077-.23l.002-.005c.396-.963.69-1.854.975-2.715 1.032-3.12 1.847-5.586 6.147-6.98l.045-.015a.989.989 0 0 1 .138-.041c1.447-.29 4.652-1.676 7.472-3.887-1.079-3.338-5.676-6.21-9.484-5.802a.807.807 0 0 1-.823-.484c-1.278-2.999-4.956-4.438-7.83-4.506a.801.801 0 0 1-.595-.286c-1.812-2.16-5.866-2.761-10.582-1.571-2.41.613-5.82 2.974-7.524 4.411-.735.616-4.803 3.411-6.458 1.891a.832.832 0 0 1-.058-.058c-.12-.127-.26-.344-.494-.904-2.801 2.925-5.252 7.065-4.38 14.673.467 3.323 1.651 6.285 3.518 8.783a.805.805 0 0 1-.161 1.126.8.8 0 0 1-1.123-.162c-2.03-2.718-3.316-5.928-3.824-9.544-1.044-9.102 2.31-13.648 5.726-16.897a.8.8 0 0 1 1.305.308l.013.036c.358.989.53 1.35.595 1.47.528.21 2.905-.776 4.311-1.954 1.561-1.317 5.279-4.005 8.161-4.738 5.21-1.316 9.64-.632 11.959 1.822 3.24.177 7 1.747 8.668 4.942 4.723-.191 9.85 3.35 10.774 7.57a.804.804 0 0 1-.274.793c-2.913 2.4-6.54 4.115-8.517 4.53a.694.694 0 0 1-.039.014c-3.552 1.152-4.152 2.964-5.144 5.965-.28.85-.6 1.812-1.019 2.832a1.331 1.331 0 0 1-.052.113c-.23.824-.937 2.076-1.198 2.523-.75 1.285-2.003 3.078-3.716 4.33-3.133 2.505-7.185 3.842-11.458 3.842Z"/>
    <path fill="#FFF" d="M76.287 125.09c-1.757.987-3.237 2.569-4.208 4.533-4.134-2.596-8.224-4.763-12.03-6.315-1.946-.766-2.38-2.184-2.094-3.536.34-1.579 2.504-2.61 4.68-1.98a.01.01 0 0 0 .007.003c1.92.566 8.989 4.303 13.645 7.295Z"/>
    <path fill="#646464" d="M61.328 118.409c-1.072 0-1.963.46-2.363 1.03a1.36 1.36 0 0 0-.224.502c-.26 1.216.278 2.097 1.6 2.617 3.576 1.46 7.419 3.452 11.44 5.932a11.485 11.485 0 0 1 3.02-3.387c-4.634-2.874-10.748-6.054-12.385-6.536l-.03-.01a3.91 3.91 0 0 0-1.057-.148Zm10.752 12.017a.802.802 0 0 1-.426-.123c-4.207-2.64-8.213-4.744-11.909-6.252-2.03-.8-2.996-2.463-2.572-4.447a2.96 2.96 0 0 1 .481-1.092c1.014-1.442 3.202-2.07 5.203-1.492l.05.016c2.121.645 9.311 4.484 13.813 7.378a.805.805 0 0 1-.04 1.378 8.871 8.871 0 0 0-1.173.794c-1.108.878-2.044 2.051-2.709 3.393a.801.801 0 0 1-.718.447Z"/>
    <path fill="#FFF" d="m99.21 111.899-.01.044c-1.618 5.713-4.16 12.136-7.387 18.664-.178.362-.455.351-.614-.02-.809-1.873-2.093-3.337-3.712-4.226a.336.336 0 0 1-.148-.44c2.869-6.047 5.152-12.055 6.497-17.393l.003-.003c.32-.656 1.444-.683 2.84.003 1.699.839 2.835 2.144 2.531 3.37Z"/>
    <path fill="#646464" d="M197.897 35.642c-1.201 0-2.424.22-3.59.785-1.357.658-2.186 1.646-2.332 2.783-.159 1.241.48 2.579 1.755 3.669 3.91 3.345 6.656 6.676 7.353 12.061.22 1.704.58 3.294 1.071 4.728.03.09.046.185.043.28-.127 5.327 3.745 10.74 9.634 13.472 3.717 1.723 7.74 2.179 11.33 1.283 3.524-.88 6.203-2.963 7.542-5.866 1.34-2.904 1.188-6.3-.427-9.562-1.643-3.322-4.596-6.1-8.313-7.823-2.312-1.073-4.815-1.668-7.238-1.724a.802.802 0 0 1-.756-.595c-1.289-4.814-3.933-8.316-8.32-11.02-1.132-.698-4.347-2.471-7.752-2.471Zm21.542 41.117c-2.758 0-5.596-.635-8.28-1.88-6.41-2.971-10.638-8.914-10.568-14.824-.502-1.5-.871-3.15-1.098-4.908-.633-4.892-3.073-7.853-6.804-11.045-1.694-1.45-2.534-3.307-2.304-5.098.217-1.693 1.362-3.122 3.224-4.025 5.205-2.523 11.174.712 12.88 1.763 4.518 2.786 7.424 6.52 8.867 11.402 2.454.137 4.958.771 7.28 1.848 4.048 1.877 7.27 4.92 9.076 8.568 1.835 3.708 1.993 7.597.446 10.952-1.547 3.354-4.605 5.751-8.61 6.751a16.996 16.996 0 0 1-4.11.495h.001ZM88.247 125.874c1.252.771 2.328 1.894 3.12 3.264.05.085.097.17.145.258 2.996-6.163 5.378-12.245 6.912-17.65l.009-.043c.124-.5-.227-1.007-.544-1.344-.385-.41-.925-.794-1.563-1.11-.996-.49-1.602-.453-1.75-.377-1.288 5.065-3.472 10.932-6.328 17.002Zm3.259 5.802h-.028c-.437-.011-.817-.302-1.017-.776a9.123 9.123 0 0 0-.48-.953c-.722-1.249-1.717-2.244-2.88-2.88a1.144 1.144 0 0 1-.489-1.488c2.932-6.177 5.16-12.14 6.446-17.247a.81.81 0 0 1 .089-.215c.304-.567.92-.892 1.703-.898.646.002 1.393.2 2.183.588.81.4 1.51.902 2.024 1.451.831.886 1.163 1.889.934 2.825l-.012.055c-1.639 5.782-4.212 12.283-7.449 18.825-.217.447-.6.713-1.024.713Z"/>
    <path fill="#646464" d="M216.73 53.68c3.676.111 6.764-2.364 6.884-5.505.476-12.434.715-18.675-1.067-30.962-1.024-7.069-3.722-10.815-7.59-10.544-1.374.095-2.612.762-3.579 1.927-1.77 2.137-2.477 5.668-1.987 9.946 1.319 11.527 1.38 16.87.906 29.262-.052 1.349.463 2.673 1.448 3.73 1.219 1.307 3.036 2.09 4.985 2.146Zm.226 1.61a9.7 9.7 0 0 1-.272-.003c-2.374-.069-4.601-1.037-6.111-2.655-1.28-1.373-1.946-3.109-1.878-4.89.47-12.296.41-17.597-.897-29.017-.54-4.718.294-8.68 2.347-11.156 1.254-1.512 2.88-2.378 4.7-2.504 2.796-.196 7.72 1.096 9.29 11.917 1.802 12.432 1.561 18.723 1.082 31.255-.151 3.938-3.83 7.054-8.26 7.054Z"/>
    <path fill="#646464" d="M229.513 48.618h.023c2.434 0 6.593-.68 7.27-5.205 1.682-11.233 1.302-20.811-1.273-32.029-1.492-6.503-4.388-10.063-7.94-9.758-1.364.116-2.588.786-3.538 1.937-1.622 1.966-2.338 5.17-1.962 8.792 1.075 10.363 1.538 18.215.91 30.01-.095 1.777.403 3.295 1.439 4.39 1.154 1.219 2.903 1.863 5.06 1.863h.011Zm.025 1.608h-.036c-2.607 0-4.76-.817-6.223-2.364-1.347-1.423-1.996-3.353-1.877-5.583.622-11.689.162-19.476-.904-29.758-.426-4.108.399-7.653 2.321-9.983 1.231-1.491 2.835-2.36 4.64-2.513 4.432-.38 7.946 3.632 9.637 10.999 2.622 11.426 3.01 21.184 1.296 32.628-.626 4.179-3.853 6.574-8.854 6.574Z"/>
    <path fill="#646464" d="M240.921 55.18c1.954.244 3.785-.206 5.024-1.228 1.016-.838 1.606-2.04 1.707-3.477.574-8.157.95-20.2-2.398-30.566-1.925-5.955-5.085-8.915-8.9-8.328-1.23.189-2.171.747-2.8 1.66-.892 1.297-1.129 3.328-.65 5.573 2.016 9.43 2.819 20.802 2.096 29.68-.274 3.36 2.272 6.234 5.922 6.686Zm1.023 1.672c-.401 0-.809-.025-1.22-.076-4.52-.56-7.668-4.177-7.322-8.412.71-8.733-.08-19.927-2.065-29.214-.58-2.715-.262-5.137.898-6.822.876-1.274 2.216-2.082 3.875-2.336 2.714-.416 7.707.254 10.669 9.422 3.435 10.632 3.056 22.883 2.472 31.174-.133 1.887-.924 3.48-2.288 4.605-1.305 1.078-3.09 1.659-5.02 1.659Z"/>
    <path fill="#FFF" d="M190.799 111.623c38.798 12.738 46.837-15.038 27.737-38.741-3.578-4.442-2.889-10.95 1.54-14.538 4.43-3.589 10.922-2.897 14.501 1.544 1.217 1.51 4.755 7.412 7.066 13.228 14.049 35.388-9.386 68.81-54.73 48.356a5.306 5.306 0 0 1-2.652-7.009 5.283 5.283 0 0 1 6.442-2.87l.096.031Z"/>
    <path fill="#646464" d="M212.557 128.516c-7.474 0-15.638-1.874-24.326-5.589a.805.805 0 0 1 .63-1.478c18.871 8.07 35.085 7.235 45.656-2.351 10.004-9.072 13.041-24.906 7.926-41.323a60.885 60.885 0 0 0-1.545-4.36c-2.269-5.708-5.726-11.51-6.943-13.02a9.44 9.44 0 0 0-6.394-3.492 9.43 9.43 0 0 0-6.98 2.064c-4.08 3.305-4.716 9.32-1.42 13.41 9.767 12.122 12.77 25.63 7.65 34.412-4.303 7.381-13.579 10.282-26.119 8.166a13.272 13.272 0 0 0-.433-.076c-3.056-.541-6.318-1.378-9.71-2.49l-.105-.036a.804.804 0 0 1-.498-1.02v-.001a.8.8 0 0 1 1.017-.5h.001l.094.033c3.31 1.084 6.498 1.903 9.464 2.429.138.02.294.048.454.079 11.818 1.994 20.507-.632 24.45-7.395 4.781-8.2 1.832-20.993-7.512-32.59-3.852-4.778-3.108-11.809 1.658-15.67a11.016 11.016 0 0 1 8.159-2.413 11.031 11.031 0 0 1 7.47 4.08c1.271 1.575 4.859 7.579 7.186 13.435a62.387 62.387 0 0 1 1.586 4.477c5.304 17.022 2.093 33.497-8.38 42.994-5.155 4.673-11.929 7.47-19.59 8.089-1.131.09-2.28.136-3.446.136Z"/>
    <path fill="#FFF" d="M247.762 63.413c-.003.003-.003.007-.006.01-2.877 6.923-9.733 11.717-17.85 11.119-5.574 2.858-10.07 2.964-15.236 1.167-9.371-3.26-12.023-8.788-13.595-15.135-1.34-5.418.587-10.245-7.866-17.084-1.286-1.038-1.988-2.15-2.213-3.225-1.058-5.135 8.867-9.398 18.742-.675.012-.874.022-1.72.022-2.543.019-5.962-.302-10.868-1.167-18.415-.725-6.334 1.122-10.273 3.704-11.907a5.469 5.469 0 0 1 4.159-.746c1.815.4 3.553 1.714 4.746 3.917.157-4.582 2.142-7.875 5.057-8.817a5.517 5.517 0 0 1 1.267-.254c3.704-.315 6.69 2.9 8.377 8.785.109.382.211.774.311 1.18 1.356-.219 2.575-.039 3.659.434 2.989 1.302 4.98 4.833 6.144 8.437 3.053 9.453 3.233 21.09 2.425 30.955 1.276 4.546.901 8.993-.68 12.797Z"/>
    <g transform="translate(190.119)">
      <mask id="f" fill="#fff">
        <use xlink:href="#e"/>
      </mask>
      <path fill="#646464" d="M31.003 77.7c-2.161 0-4.36-.414-6.716-1.233-9.284-3.228-12.355-8.611-14.109-15.701-.334-1.352-.473-2.667-.608-3.938-.419-3.97-.815-7.72-6.983-12.712C.64 42.54-.257 40.64.064 38.765c.329-1.922 1.93-3.565 4.282-4.398 3.387-1.199 8.859-.824 14.493 3.534.05-6.362-.257-11.283-1.16-19.176-.947-8.27 2.266-12.34 5.587-13.39 2.571-.815 5.289.112 7.243 2.331C31.278 3.3 33.864.32 37.34.024c4.192-.355 7.583 3.239 9.36 9.889 4.303-.283 7.903 3.131 9.96 9.5 3.293 10.193 3.17 22.525 2.476 31.127 2.296 8.398-.817 17.134-7.776 21.776a.8.8 0 0 1-1.116-.2.805.805 0 0 1 .2-1.12l.028-.018c6.417-4.28 9.262-12.375 7.082-20.143a.796.796 0 0 1-.028-.284c.692-8.461.839-20.646-2.39-30.642-1.12-3.464-3.765-9.156-8.912-8.326a.802.802 0 0 1-.906-.603C43.8 4.74 40.94 1.326 37.474 1.626c-3.233.275-5.426 3.532-5.588 8.298a.802.802 0 0 1-1.506.356c-1.547-2.858-4.15-4.198-6.63-3.413-2.589.82-5.315 4.369-4.478 11.675.99 8.65 1.269 13.768 1.15 21.06a.803.803 0 0 1-1.332.59c-5.564-4.916-10.989-5.449-14.21-4.309-1.797.636-3.007 1.815-3.236 3.153-.218 1.275.474 2.634 1.95 3.83 6.685 5.41 7.135 9.67 7.57 13.793.135 1.273.262 2.475.57 3.72 1.675 6.77 4.447 11.568 13.078 14.57 5.259 1.827 9.491 1.502 14.61-1.123a.8.8 0 0 1 1.079.35.805.805 0 0 1-.35 1.082c-3.19 1.636-6.132 2.442-9.148 2.442Z" mask="url(#f)"/>
    </g>
    <path fill="#646464" d="M237.84 42.645a.802.802 0 0 1-.795-.912c1.424-10.562.942-19.762-1.61-30.761a.804.804 0 0 1 .6-.965.8.8 0 0 1 .963.6c2.598 11.202 3.087 20.574 1.636 31.342a.802.802 0 0 1-.794.696Zm-13.19-.174h-.024a.803.803 0 0 1-.778-.827c.045-1.52.075-2.85.093-4.066.084-6.06-.12-11.581-1.393-20.364-.416-2.86-1.105-5.194-2.047-6.935a.803.803 0 1 1 1.418-.75c1.028 1.906 1.773 4.414 2.215 7.454 1.129 7.78 1.51 13.369 1.41 20.619a284.678 284.678 0 0 1-.093 4.09.803.803 0 0 1-.801.78Zm3.37 22.752a.802.802 0 0 1-.798-.733c-.372-4.213-2.436-8.048-5.52-10.255a11.2 11.2 0 0 0-1.103-.698.805.805 0 0 1-.312-1.093.8.8 0 0 1 1.09-.313c.434.241.855.507 1.258.796 3.46 2.476 5.772 6.746 6.184 11.422a.804.804 0 0 1-.8.874Zm-14.48-18.788a.802.802 0 0 1-.746-.51c-.885-2.254-2.074-4.144-3.635-5.78a.806.806 0 0 1 .025-1.137.8.8 0 0 1 1.134.025c1.707 1.79 3.005 3.851 3.968 6.303a.804.804 0 0 1-.745 1.099Z"/>
    <path fill="#646464" d="M240.664 43.591a.801.801 0 0 1-.238-.036c-5.288-1.644-12.42-1.837-19.568-.529a.804.804 0 0 1-.288-1.581c7.393-1.354 14.803-1.144 20.33.574a.805.805 0 0 1-.237 1.572h.001Z"/>
  </g>
</svg>
